  0
SECTION
  2
HEADER
  9
$ACADVER
  1
AC1015
  9
$ACADMAINTVER
 70
     6
  9
$DWGCODEPAGE
  3
ANSI_1252
  9
$INSBASE
 10
0.0
 20
0.0
 30
0.0
  9
$EXTMIN
 10
-6.096
 20
-6.096
 30
0.0
  9
$EXTMAX
 10
256.096
 20
86.096
 30
0.0
  9
$LIMMIN
 10
0.0
 20
0.0
  9
$LIMMAX
 10
420.0
 20
297.0
  9
$ORTHOMODE
 70
     0
  9
$REGENMODE
 70
     1
  9
$FILLMODE
 70
     1
  9
$QTEXTMODE
 70
     0
  9
$MIRRTEXT
 70
     1
  9
$LTSCALE
 40
1.0
  9
$ATTMODE
 70
     1
  9
$TEXTSIZE
 40
3.175
  9
$TRACEWID
 40
1.0
  9
$TEXTSTYLE
  7
Standard
  9
$CLAYER
  8
0
  9
$CELTYPE
  6
ByLayer
  9
$CECOLOR
 62
   256
  9
$CELTSCALE
 40
1.0
  9
$DISPSILH
 70
     0
  9
$DIMSCALE
 40
1.0
  9
$DIMASZ
 40
3.302
  9
$DIMEXO
 40
0.0
  9
$DIMDLI
 40
3.75
  9
$DIMRND
 40
0.0
  9
$DIMDLE
 40
0.0
  9
$DIMEXE
 40
3.175
  9
$DIMTP
 40
0.0
  9
$DIMTM
 40
0.0
  9
$DIMTXT
 40
3.175
  9
$DIMCEN
 40
2.5
  9
$DIMTSZ
 40
0.0
  9
$DIMTOL
 70
     0
  9
$DIMLIM
 70
     0
  9
$DIMTIH
 70
     1
  9
$DIMTOH
 70
     1
  9
$DIMSE1
 70
     0
  9
$DIMSE2
 70
     0
  9
$DIMTAD
 70
     0
  9
$DIMZIN
 70
     1
  9
$DIMBLK
  1

  9
$DIMASO
 70
     1
  9
$DIMSHO
 70
     1
  9
$DIMPOST
  1

  9
$DIMAPOST
  1

  9
$DIMALT
 70
     0
  9
$DIMALTD
 70
     3
  9
$DIMALTF
 40
0.0393700787
  9
$DIMLFAC
 40
1.0
  9
$DIMTOFL
 70
     1
  9
$DIMTVP
 40
0.0
  9
$DIMTIX
 70
     0
  9
$DIMSOXD
 70
     0
  9
$DIMSAH
 70
     0
  9
$DIMBLK1
  1

  9
$DIMBLK2
  1

  9
$DIMSTYLE
  2
ISO-25
  9
$DIMCLRD
 70
     0
  9
$DIMCLRE
 70
     0
  9
$DIMCLRT
 70
     0
  9
$DIMTFAC
 40
1.0
  9
$DIMGAP
 40
1.524
  9
$DIMJUST
 70
     0
  9
$DIMSD1
 70
     0
  9
$DIMSD2
 70
     0
  9
$DIMTOLJ
 70
     0
  9
$DIMTZIN
 70
     1
  9
$DIMALTZ
 70
     0
  9
$DIMALTTZ
 70
     0
  9
$DIMUPT
 70
     0
  9
$DIMDEC
 70
     2
  9
$DIMTDEC
 70
     2
  9
$DIMALTU
 70
     2
  9
$DIMALTTD
 70
     3
  9
$DIMTXSTY
  7
Standard
  9
$DIMAUNIT
 70
     0
  9
$DIMADEC
 70
     2
  9
$DIMALTRND
 40
0.0
  9
$DIMAZIN
 70
     0
  9
$DIMDSEP
 70
    44
  9
$DIMATFIT
 70
     3
  9
$DIMFRAC
 70
     0
  9
$DIMLDRBLK
  1

  9
$DIMLUNIT
 70
     2
  9
$DIMLWD
 70
    -2
  9
$DIMLWE
 70
    -2
  9
$DIMTMOVE
 70
     0
  9
$LUNITS
 70
     2
  9
$LUPREC
 70
     2
  9
$SKETCHINC
 40
1.0
  9
$FILLETRAD
 40
10.0
  9
$AUNITS
 70
     0
  9
$AUPREC
 70
     2
  9
$MENU
  1
.
  9
$ELEVATION
 40
0.0
  9
$PELEVATION
 40
0.0
  9
$THICKNESS
 40
0.0
  9
$LIMCHECK
 70
     0
  9
$CHAMFERA
 40
0.0
  9
$CHAMFERB
 40
0.0
  9
$CHAMFERC
 40
0.0
  9
$CHAMFERD
 40
0.0
  9
$SKPOLY
 70
     0
  9
$TDCREATE
 40
2459598.670743113
  9
$TDUCREATE
 40
2459598.920743113
  9
$TDUPDATE
 40
2459598.670780614
  9
$TDUUPDATE
 40
2459598.920780614
  9
$TDINDWG
 40
0.0000000116
  9
$TDUSRTIMER
 40
0.0000000116
  9
$USRTIMER
 70
     1
  9
$ANGBASE
 50
0.0
  9
$ANGDIR
 70
     0
  9
$PDMODE
 70
     0
  9
$PDSIZE
 40
-1.0
  9
$PLINEWID
 40
0.0
  9
$SPLFRAME
 70
     0
  9
$SPLINETYPE
 70
     6
  9
$SPLINESEGS
 70
     8
  9
$HANDSEED
  5
2C0
  9
$SURFTAB1
 70
     6
  9
$SURFTAB2
 70
     6
  9
$SURFTYPE
 70
     6
  9
$SURFU
 70
     6
  9
$SURFV
 70
     6
  9
$UCSBASE
  2

  9
$UCSNAME
  2

  9
$UCSORG
 10
0.0
 20
0.0
 30
0.0
  9
$UCSXDIR
 10
1.0
 20
0.0
 30
0.0
  9
$UCSYDIR
 10
0.0
 20
1.0
 30
0.0
  9
$UCSORTHOREF
  2

  9
$UCSORTHOVIEW
 70
     0
  9
$UCSORGTOP
 10
0.0
 20
0.0
 30
0.0
  9
$UCSORGBOTTOM
 10
0.0
 20
0.0
 30
0.0
  9
$UCSORGLEFT
 10
0.0
 20
0.0
 30
0.0
  9
$UCSORGRIGHT
 10
0.0
 20
0.0
 30
0.0
  9
$UCSORGFRONT
 10
0.0
 20
0.0
 30
0.0
  9
$UCSORGBACK
 10
0.0
 20
0.0
 30
0.0
  9
$PUCSBASE
  2

  9
$PUCSNAME
  2

  9
$PUCSORG
 10
0.0
 20
0.0
 30
0.0
  9
$PUCSXDIR
 10
1.0
 20
0.0
 30
0.0
  9
$PUCSYDIR
 10
0.0
 20
1.0
 30
0.0
  9
$PUCSORTHOREF
  2

  9
$PUCSORTHOVIEW
 70
     0
  9
$PUCSORGTOP
 10
0.0
 20
0.0
 30
0.0
  9
$PUCSORGBOTTOM
 10
0.0
 20
0.0
 30
0.0
  9
$PUCSORGLEFT
 10
0.0
 20
0.0
 30
0.0
  9
$PUCSORGRIGHT
 10
0.0
 20
0.0
 30
0.0
  9
$PUCSORGFRONT
 10
0.0
 20
0.0
 30
0.0
  9
$PUCSORGBACK
 10
0.0
 20
0.0
 30
0.0
  9
$USERI1
 70
     0
  9
$USERI2
 70
     0
  9
$USERI3
 70
     0
  9
$USERI4
 70
     0
  9
$USERI5
 70
     0
  9
$USERR1
 40
0.0
  9
$USERR2
 40
0.0
  9
$USERR3
 40
0.0
  9
$USERR4
 40
0.0
  9
$USERR5
 40
0.0
  9
$WORLDVIEW
 70
     1
  9
$SHADEDGE
 70
     3
  9
$SHADEDIF
 70
    70
  9
$TILEMODE
 70
     1
  9
$MAXACTVP
 70
    64
  9
$PINSBASE
 10
0.0
 20
0.0
 30
0.0
  9
$PLIMCHECK
 70
     0
  9
$PEXTMIN
 10
1.0000000000E+20
 20
1.0000000000E+20
 30
1.0000000000E+20
  9
$PEXTMAX
 10
-1.0000000000E+20
 20
-1.0000000000E+20
 30
-1.0000000000E+20
  9
$PLIMMIN
 10
0.0
 20
0.0
  9
$PLIMMAX
 10
420.0
 20
297.0
  9
$UNITMODE
 70
     0
  9
$VISRETAIN
 70
     1
  9
$PLINEGEN
 70
     0
  9
$PSLTSCALE
 70
     1
  9
$TREEDEPTH
 70
  3020
  9
$CMLSTYLE
  2
Standard
  9
$CMLJUST
 70
     0
  9
$CMLSCALE
 40
20.0
  9
$PROXYGRAPHICS
 70
     1
  9
$MEASUREMENT
 70
     1
  9
$CELWEIGHT
370
    -1
  9
$ENDCAPS
280
     0
  9
$JOINSTYLE
280
     0
  9
$LWDISPLAY
290
     1
  9
$INSUNITS
 70
     4
  9
$HYPERLINKBASE
  1

  9
$STYLESHEET
  1

  9
$XEDIT
290
     1
  9
$CEPSNTYPE
380
     0
  9
$PSTYLEMODE
290
     1
  9
$FINGERPRINTGUID
  2
{e29333ad-c826-44a2-8649-0d77dedaa6e9}
  9
$VERSIONGUID
  2
{FAEB1C32-E019-11D5-929B-00C0DF256EC4}
  9
$EXTNAMES
290
     1
  9
$PSVPSCALE
 40
0.0
  9
$OLESTARTUP
290
     0
  0
ENDSEC
  0
SECTION
  2
CLASSES
  0
CLASS
  1
ACDBDICTIONARYWDFLT
  2
AcDbDictionaryWithDefault
  3
ObjectDBX Classes
 90
        0
280
     0
281
     0
  0
CLASS
  1
VISUALSTYLE
  2
AcDbVisualStyle
  3
ObjectDBX Classes
 90
     4095
280
     0
281
     0
  0
CLASS
  1
MATERIAL
  2
AcDbMaterial
  3
ObjectDBX Classes
 90
     1153
280
     0
281
     0
  0
CLASS
  1
SCALE
  2
AcDbScale
  3
ObjectDBX Classes
 90
     1153
280
     0
281
     0
  0
CLASS
  1
TABLESTYLE
  2
AcDbTableStyle
  3
ObjectDBX Classes
 90
     4095
280
     0
281
     0
  0
CLASS
  1
MLEADERSTYLE
  2
AcDbMLeaderStyle
  3
ACDB_MLEADERSTYLE_CLASS
 90
     4095
280
     0
281
     0
  0
CLASS
  1
SUN
  2
AcDbSun
  3
SCENEOE
 90
     1153
280
     0
281
     0
  0
CLASS
  1
ACDBPLACEHOLDER
  2
AcDbPlaceHolder
  3
ObjectDBX Classes
 90
        0
280
     0
281
     0
  0
CLASS
  1
LAYOUT
  2
AcDbLayout
  3
ObjectDBX Classes
 90
        0
280
     0
281
     0
  0
ENDSEC
  0
SECTION
  2
TABLES
  0
TABLE
  2
VPORT
  5
8
330
0
100
AcDbSymbolTable
 70
     1
  0
VPORT
  5
29
330
8
100
AcDbSymbolTableRecord
100
AcDbViewportTableRecord
  2
*Active
 70
     0
 10
0.0
 20
0.0
 11
1.0
 21
1.0
 12
125.0
 22
40.0
 13
0.0
 23
0.0
 14
10.0
 24
10.0
 15
10.0
 25
10.0
 16
0.0
 26
0.0
 36
1.0
 17
0.0
 27
0.0
 37
0.0
 40
94.03584
 41
2.8439777855
 42
50.0
 43
0.0
 44
0.0
 50
0.0
 51
0.0
 71
     0
 72
   100
 73
     1
 74
     3
 75
     0
 76
     0
 77
     0
 78
     0
281
     0
 65
     1
110
0.0
120
0.0
130
0.0
111
1.0
121
0.0
131
0.0
112
0.0
122
1.0
132
0.0
 79
     0
146
0.0
  0
ENDTAB
  0
TABLE
  2
LTYPE
  5
5
330
0
100
AcDbSymbolTable
 70
     6
  0
LTYPE
  5
14
330
5
100
AcDbSymbolTableRecord
100
AcDbLinetypeTableRecord
  2
ByBlock
 70
     0
  3

 72
    65
 73
     0
 40
0.0
  0
LTYPE
  5
15
330
5
100
AcDbSymbolTableRecord
100
AcDbLinetypeTableRecord
  2
ByLayer
 70
     0
  3

 72
    65
 73
     0
 40
0.0
  0
LTYPE
  5
16
330
5
100
AcDbSymbolTableRecord
100
AcDbLinetypeTableRecord
  2
Continuous
 70
     0
  3
Solid line
 72
    65
 73
     0
 40
0.0
  0
LTYPE
  5
6E
330
5
100
AcDbSymbolTableRecord
100
AcDbLinetypeTableRecord
  2
HIDDEN
 70
     0
  3
Hidden __ __ __ __ __ __ __ __ __ __ __ __ __ __
 72
    65
 73
     2
 40
1.905
 49
1.27
 74
     0
 49
-0.635
 74
     0
  0
LTYPE
  5
6F
330
5
100
AcDbSymbolTableRecord
100
AcDbLinetypeTableRecord
  2
PHANTOM
 70
     0
  3
Phantom ______  __  __  ______  __  __  ______
 72
    65
 73
     6
 40
12.7
 49
6.35
 74
     0
 49
-1.27
 74
     0
 49
1.27
 74
     0
 49
-1.27
 74
     0
 49
1.27
 74
     0
 49
-1.27
 74
     0
  0
LTYPE
  5
70
330
5
100
AcDbSymbolTableRecord
100
AcDbLinetypeTableRecord
  2
CENTER
 70
     0
  3
Center ____ _ ____ _ ____ _ ____ _ ____ _ ____
 72
    65
 73
     4
 40
10.16
 49
6.35
 74
     0
 49
-1.27
 74
     0
 49
1.27
 74
     0
 49
-1.27
 74
     0
  0
LTYPE
  5
71
330
5
100
AcDbSymbolTableRecord
100
AcDbLinetypeTableRecord
  2
CENTERX2
 70
     0
  3
Center (2x) ________  __  ________  __  _____
 72
    65
 73
     4
 40
20.32
 49
12.7
 74
     0
 49
-2.54
 74
     0
 49
2.54
 74
     0
 49
-2.54
 74
     0
  0
LTYPE
  5
72
330
5
100
AcDbSymbolTableRecord
100
AcDbLinetypeTableRecord
  2
DOT2
 70
     0
  3
Dot (.5x) ........................................
 72
    65
 73
     2
 40
0.635
 49
0.0
 74
     0
 49
-0.635
 74
     0
  0
ENDTAB
  0
TABLE
  2
LAYER
  5
2
330
0
100
AcDbSymbolTable
 70
     1
  0
LAYER
  5
10
330
2
100
AcDbSymbolTableRecord
100
AcDbLayerTableRecord
  2
0
 70
     0
 62
     7
  6
Continuous
370
    -3
390
F
  0
ENDTAB
  0
TABLE
  2
STYLE
  5
3
330
0
100
AcDbSymbolTable
 70
     2
  0
STYLE
  5
11
330
3
100
AcDbSymbolTableRecord
100
AcDbTextStyleTableRecord
  2
Standard
 70
     0
 40
0.0
 41
1.0
 50
0.0
 71
     0
 42
3.175
  3
txt
  4

  0
STYLE
  5
2BC
330
3
100
AcDbSymbolTableRecord
100
AcDbTextStyleTableRecord
  2
SLDTEXTSTYLE0
 70
     0
 40
0.0
 41
0.7
 50
0.0
 71
     0
 42
3.175
  3
TXT
  4

  0
ENDTAB
  0
TABLE
  2
VIEW
  5
6
330
0
100
AcDbSymbolTable
 70
     0
  0
ENDTAB
  0
TABLE
  2
UCS
  5
7
330
0
100
AcDbSymbolTable
 70
     0
  0
ENDTAB
  0
TABLE
  2
APPID
  5
9
330
0
100
AcDbSymbolTable
 70
     1
  0
APPID
  5
12
330
9
100
AcDbSymbolTableRecord
100
AcDbRegAppTableRecord
  2
ACAD
 70
     0
  0
ENDTAB
  0
TABLE
  2
DIMSTYLE
  5
A
330
0
100
AcDbSymbolTable
 70
     1
100
AcDbDimStyleTable
  0
DIMSTYLE
105
27
330
A
100
AcDbSymbolTableRecord
100
AcDbDimStyleTableRecord
  2
ISO-25
 70
     0
 41
2.5
 42
0.625
 43
3.75
 44
1.25
 73
     0
 74
     0
 77
     1
 78
     8
140
2.5
141
2.5
143
0.0393700787
147
0.625
171
     3
172
     1
178
     0
271
     2
272
     2
274
     3
278
    44
283
     0
284
     8
340
11
  0
ENDTAB
  0
TABLE
  2
BLOCK_RECORD
  5
1
330
0
100
AcDbSymbolTable
 70
     1
  0
BLOCK_RECORD
  5
1F
330
1
100
AcDbSymbolTableRecord
100
AcDbBlockTableRecord
  2
*Model_Space
340
22
  0
BLOCK_RECORD
  5
1B
330
1
100
AcDbSymbolTableRecord
100
AcDbBlockTableRecord
  2
*Paper_Space
340
1E
  0
BLOCK_RECORD
  5
23
330
1
100
AcDbSymbolTableRecord
100
AcDbBlockTableRecord
  2
*Paper_Space0
340
26
  0
ENDTAB
  0
ENDSEC
  0
SECTION
  2
BLOCKS
  0
BLOCK
  5
20
330
1F
100
AcDbEntity
  8
0
100
AcDbBlockBegin
  2
*Model_Space
 70
     0
 10
0.0
 20
0.0
 30
0.0
  3
*Model_Space
  1

  0
ENDBLK
  5
21
330
1F
100
AcDbEntity
  8
0
100
AcDbBlockEnd
  0
BLOCK
  5
1C
330
1B
100
AcDbEntity
 67
     1
  8
0
100
AcDbBlockBegin
  2
*Paper_Space
 70
     0
 10
0.0
 20
0.0
 30
0.0
  3
*Paper_Space
  1

  0
ENDBLK
  5
1D
330
1B
100
AcDbEntity
 67
     1
  8
0
100
AcDbBlockEnd
  0
BLOCK
  5
24
330
23
100
AcDbEntity
  8
0
100
AcDbBlockBegin
  2
*Paper_Space0
 70
     0
 10
0.0
 20
0.0
 30
0.0
  3
*Paper_Space0
  1

  0
ENDBLK
  5
25
330
23
100
AcDbEntity
  8
0
100
AcDbBlockEnd
  0
ENDSEC
  0
SECTION
  2
ENTITIES
  0
LINE
  5
73
330
1F
100
AcDbEntity
  8
0
  6
Continuous
 62
     7
370
    25
100
AcDbLine
 10
45.0
 20
58.3385688031
 30
0.0
 11
27.7225397207
 21
53.709087274
 31
0.0
  0
LINE
  5
74
330
1F
100
AcDbEntity
  8
0
  6
Continuous
 62
     7
370
    25
100
AcDbLine
 10
45.0
 20
55.2327402619
 30
0.0
 11
45.0
 21
58.3385688031
 31
0.0
  0
LINE
  5
75
330
1F
100
AcDbEntity
  8
0
  6
Continuous
 62
     7
370
    25
100
AcDbLine
 10
45.0
 20
55.2327402619
 30
0.0
 11
28.4989968561
 21
50.8113097952
 31
0.0
  0
LINE
  5
76
330
1F
100
AcDbEntity
  8
0
  6
Continuous
 62
     7
370
    25
100
AcDbLine
 10
28.4989968561
 20
50.8113097952
 30
0.0
 11
27.7225397207
 21
53.709087274
 31
0.0
  0
LINE
  5
77
330
1F
100
AcDbEntity
  8
0
  6
Continuous
 62
     7
370
    25
100
AcDbLine
 10
45.0
 20
43.5181322047
 30
0.0
 11
27.7225397207
 21
38.8886506757
 31
0.0
  0
LINE
  5
78
330
1F
100
AcDbEntity
  8
0
  6
Continuous
 62
     7
370
    25
100
AcDbLine
 10
45.0
 20
40.4123036635
 30
0.0
 11
45.0
 21
43.5181322047
 31
0.0
  0
LINE
  5
79
330
1F
100
AcDbEntity
  8
0
  6
Continuous
 62
     7
370
    25
100
AcDbLine
 10
45.0
 20
40.4123036635
 30
0.0
 11
28.4989968561
 21
35.9908731968
 31
0.0
  0
LINE
  5
7A
330
1F
100
AcDbEntity
  8
0
  6
Continuous
 62
     7
370
    25
100
AcDbLine
 10
28.4989968561
 20
35.9908731968
 30
0.0
 11
27.7225397207
 21
38.8886506757
 31
0.0
  0
LINE
  5
7B
330
1F
100
AcDbEntity
  8
0
  6
Continuous
 62
     7
370
    25
100
AcDbLine
 10
45.0
 20
28.6976956063
 30
0.0
 11
27.7225397207
 21
24.0682140773
 31
0.0
  0
LINE
  5
7C
330
1F
100
AcDbEntity
  8
0
  6
Continuous
 62
     7
370
    25
100
AcDbLine
 10
45.0
 20
25.5918670651
 30
0.0
 11
45.0
 21
28.6976956063
 31
0.0
  0
LINE
  5
7D
330
1F
100
AcDbEntity
  8
0
  6
Continuous
 62
     7
370
    25
100
AcDbLine
 10
45.0
 20
25.5918670651
 30
0.0
 11
28.4989968561
 21
21.1704365984
 31
0.0
  0
LINE
  5
7E
330
1F
100
AcDbEntity
  8
0
  6
Continuous
 62
     7
370
    25
100
AcDbLine
 10
28.4989968561
 20
21.1704365984
 30
0.0
 11
27.7225397207
 21
24.0682140773
 31
0.0
  0
LINE
  5
7F
330
1F
100
AcDbEntity
  8
0
  6
Continuous
 62
     7
370
    25
100
AcDbLine
 10
45.0
 20
13.877259008
 30
0.0
 11
27.7225397207
 21
9.2477774789
 31
0.0
  0
LINE
  5
80
330
1F
100
AcDbEntity
  8
0
  6
Continuous
 62
     7
370
    25
100
AcDbLine
 10
45.0
 20
12.5
 30
0.0
 11
45.0
 21
13.877259008
 31
0.0
  0
LINE
  5
81
330
1F
100
AcDbEntity
  8
0
  6
Continuous
 62
     7
370
    25
100
AcDbLine
 10
51.4511093226
 20
12.5
 30
0.0
 11
45.0
 21
12.5
 31
0.0
  0
LINE
  5
82
330
1F
100
AcDbEntity
  8
0
  6
Continuous
 62
     7
370
    25
100
AcDbLine
 10
51.4511093226
 20
12.5
 30
0.0
 11
28.4989968561
 21
6.35
 31
0.0
  0
LINE
  5
83
330
1F
100
AcDbEntity
  8
0
  6
Continuous
 62
     7
370
    25
100
AcDbLine
 10
28.4989968561
 20
6.35
 30
0.0
 11
27.7225397207
 21
9.2477774789
 31
0.0
  0
LINE
  5
84
330
1F
100
AcDbEntity
  8
0
  6
Continuous
 62
     7
370
    25
100
AcDbLine
 10
202.2549205585
 20
72.1022225211
 30
0.0
 11
185.0791922819
 21
67.5
 31
0.0
  0
LINE
  5
85
330
1F
100
AcDbEntity
  8
0
  6
Continuous
 62
     7
370
    25
100
AcDbLine
 10
177.6061778562
 20
67.5
 30
0.0
 11
185.0791922819
 21
67.5
 31
0.0
  0
LINE
  5
86
330
1F
100
AcDbEntity
  8
0
  6
Continuous
 62
     7
370
    25
100
AcDbLine
 10
177.6061778562
 20
67.5
 30
0.0
 11
177.330317766
 21
68.5295238724
 31
0.0
  0
LINE
  5
87
330
1F
100
AcDbEntity
  8
0
  6
Continuous
 62
     7
370
    25
100
AcDbLine
 10
201.4784634232
 20
75.0
 30
0.0
 11
177.330317766
 21
68.5295238724
 31
0.0
  0
LINE
  5
88
330
1F
100
AcDbEntity
  8
0
  6
Continuous
 62
     7
370
    25
100
AcDbLine
 10
201.4784634232
 20
75.0
 30
0.0
 11
202.2549205585
 21
72.1022225211
 31
0.0
  0
LINE
  5
89
330
1F
100
AcDbEntity
  8
0
  6
Continuous
 62
     7
370
    25
100
AcDbLine
 10
180.8823808378
 20
72.1022225211
 30
0.0
 11
163.7066525612
 21
67.5
 31
0.0
  0
LINE
  5
8A
330
1F
100
AcDbEntity
  8
0
  6
Continuous
 62
     7
370
    25
100
AcDbLine
 10
156.2336381354
 20
67.5
 30
0.0
 11
163.7066525612
 21
67.5
 31
0.0
  0
LINE
  5
8B
330
1F
100
AcDbEntity
  8
0
  6
Continuous
 62
     7
370
    25
100
AcDbLine
 10
156.2336381354
 20
67.5
 30
0.0
 11
155.9577780452
 21
68.5295238724
 31
0.0
  0
LINE
  5
8C
330
1F
100
AcDbEntity
  8
0
  6
Continuous
 62
     7
370
    25
100
AcDbLine
 10
180.1059237025
 20
75.0
 30
0.0
 11
155.9577780452
 21
68.5295238724
 31
0.0
  0
LINE
  5
8D
330
1F
100
AcDbEntity
  8
0
  6
Continuous
 62
     7
370
    25
100
AcDbLine
 10
180.1059237025
 20
75.0
 30
0.0
 11
180.8823808378
 21
72.1022225211
 31
0.0
  0
LINE
  5
8E
330
1F
100
AcDbEntity
  8
0
  6
Continuous
 62
     7
370
    25
100
AcDbLine
 10
159.509841117
 20
72.1022225211
 30
0.0
 11
142.3341128404
 21
67.5
 31
0.0
  0
LINE
  5
8F
330
1F
100
AcDbEntity
  8
0
  6
Continuous
 62
     7
370
    25
100
AcDbLine
 10
134.8610984147
 20
67.5
 30
0.0
 11
142.3341128404
 21
67.5
 31
0.0
  0
LINE
  5
90
330
1F
100
AcDbEntity
  8
0
  6
Continuous
 62
     7
370
    25
100
AcDbLine
 10
134.8610984147
 20
67.5
 30
0.0
 11
134.5852383245
 21
68.5295238724
 31
0.0
  0
LINE
  5
91
330
1F
100
AcDbEntity
  8
0
  6
Continuous
 62
     7
370
    25
100
AcDbLine
 10
158.7333839817
 20
75.0
 30
0.0
 11
134.5852383245
 21
68.5295238724
 31
0.0
  0
LINE
  5
92
330
1F
100
AcDbEntity
  8
0
  6
Continuous
 62
     7
370
    25
100
AcDbLine
 10
158.7333839817
 20
75.0
 30
0.0
 11
159.509841117
 21
72.1022225211
 31
0.0
  0
LINE
  5
93
330
1F
100
AcDbEntity
  8
0
  6
Continuous
 62
     7
370
    25
100
AcDbLine
 10
138.1373013963
 20
72.1022225211
 30
0.0
 11
120.9615731197
 21
67.5
 31
0.0
  0
LINE
  5
94
330
1F
100
AcDbEntity
  8
0
  6
Continuous
 62
     7
370
    25
100
AcDbLine
 10
113.4885586939
 20
67.5
 30
0.0
 11
120.9615731197
 21
67.5
 31
0.0
  0
LINE
  5
95
330
1F
100
AcDbEntity
  8
0
  6
Continuous
 62
     7
370
    25
100
AcDbLine
 10
113.4885586939
 20
67.5
 30
0.0
 11
113.2126986037
 21
68.5295238724
 31
0.0
  0
LINE
  5
96
330
1F
100
AcDbEntity
  8
0
  6
Continuous
 62
     7
370
    25
100
AcDbLine
 10
137.360844261
 20
75.0
 30
0.0
 11
113.2126986037
 21
68.5295238724
 31
0.0
  0
LINE
  5
97
330
1F
100
AcDbEntity
  8
0
  6
Continuous
 62
     7
370
    25
100
AcDbLine
 10
137.360844261
 20
75.0
 30
0.0
 11
138.1373013963
 21
72.1022225211
 31
0.0
  0
LINE
  5
98
330
1F
100
AcDbEntity
  8
0
  6
Continuous
 62
     7
370
    25
100
AcDbLine
 10
116.7647616755
 20
72.1022225211
 30
0.0
 11
99.5890333989
 21
67.5
 31
0.0
  0
LINE
  5
99
330
1F
100
AcDbEntity
  8
0
  6
Continuous
 62
     7
370
    25
100
AcDbLine
 10
92.1160189732
 20
67.5
 30
0.0
 11
99.5890333989
 21
67.5
 31
0.0
  0
LINE
  5
9A
330
1F
100
AcDbEntity
  8
0
  6
Continuous
 62
     7
370
    25
100
AcDbLine
 10
92.1160189732
 20
67.5
 30
0.0
 11
91.840158883
 21
68.5295238724
 31
0.0
  0
LINE
  5
9B
330
1F
100
AcDbEntity
  8
0
  6
Continuous
 62
     7
370
    25
100
AcDbLine
 10
115.9883045402
 20
75.0
 30
0.0
 11
91.840158883
 21
68.5295238724
 31
0.0
  0
LINE
  5
9C
330
1F
100
AcDbEntity
  8
0
  6
Continuous
 62
     7
370
    25
100
AcDbLine
 10
115.9883045402
 20
75.0
 30
0.0
 11
116.7647616755
 21
72.1022225211
 31
0.0
  0
LINE
  5
9D
330
1F
100
AcDbEntity
  8
0
  6
Continuous
 62
     7
370
    25
100
AcDbLine
 10
95.3922219548
 20
72.1022225211
 30
0.0
 11
78.2164936782
 21
67.5
 31
0.0
  0
LINE
  5
9E
330
1F
100
AcDbEntity
  8
0
  6
Continuous
 62
     7
370
    25
100
AcDbLine
 10
70.7434792524
 20
67.5
 30
0.0
 11
78.2164936782
 21
67.5
 31
0.0
  0
LINE
  5
9F
330
1F
100
AcDbEntity
  8
0
  6
Continuous
 62
     7
370
    25
100
AcDbLine
 10
70.7434792524
 20
67.5
 30
0.0
 11
70.4676191622
 21
68.5295238724
 31
0.0
  0
LINE
  5
A0
330
1F
100
AcDbEntity
  8
0
  6
Continuous
 62
     7
370
    25
100
AcDbLine
 10
94.6157648195
 20
75.0
 30
0.0
 11
70.4676191622
 21
68.5295238724
 31
0.0
  0
LINE
  5
A1
330
1F
100
AcDbEntity
  8
0
  6
Continuous
 62
     7
370
    25
100
AcDbLine
 10
94.6157648195
 20
75.0
 30
0.0
 11
95.3922219548
 21
72.1022225211
 31
0.0
  0
LINE
  5
A2
330
1F
100
AcDbEntity
  8
0
  6
Continuous
 62
     7
370
    25
100
AcDbLine
 10
74.019682234
 20
72.1022225211
 30
0.0
 11
56.8439539574
 21
67.5
 31
0.0
  0
LINE
  5
A3
330
1F
100
AcDbEntity
  8
0
  6
Continuous
 62
     7
370
    25
100
AcDbLine
 10
49.3709395317
 20
67.5
 30
0.0
 11
56.8439539574
 21
67.5
 31
0.0
  0
LINE
  5
A4
330
1F
100
AcDbEntity
  8
0
  6
Continuous
 62
     7
370
    25
100
AcDbLine
 10
49.3709395317
 20
67.5
 30
0.0
 11
49.0950794415
 21
68.5295238724
 31
0.0
  0
LINE
  5
A5
330
1F
100
AcDbEntity
  8
0
  6
Continuous
 62
     7
370
    25
100
AcDbLine
 10
73.2432250987
 20
75.0
 30
0.0
 11
49.0950794415
 21
68.5295238724
 31
0.0
  0
LINE
  5
A6
330
1F
100
AcDbEntity
  8
0
  6
Continuous
 62
     7
370
    25
100
AcDbLine
 10
73.2432250987
 20
75.0
 30
0.0
 11
74.019682234
 21
72.1022225211
 31
0.0
  0
LINE
  5
A7
330
1F
100
AcDbEntity
  8
0
  6
Continuous
 62
     7
370
    25
100
AcDbLine
 10
223.6274602793
 20
27.640912726
 30
0.0
 11
205.0
 21
22.6496997871
 31
0.0
  0
LINE
  5
A8
330
1F
100
AcDbEntity
  8
0
  6
Continuous
 62
     7
370
    25
100
AcDbLine
 10
205.0
 20
25.7555283283
 30
0.0
 11
205.0
 21
22.6496997871
 31
0.0
  0
LINE
  5
A9
330
1F
100
AcDbEntity
  8
0
  6
Continuous
 62
     7
370
    25
100
AcDbLine
 10
222.8510031439
 20
30.5386902048
 30
0.0
 11
205.0
 21
25.7555283283
 31
0.0
  0
LINE
  5
AA
330
1F
100
AcDbEntity
  8
0
  6
Continuous
 62
     7
370
    25
100
AcDbLine
 10
222.8510031439
 20
30.5386902048
 30
0.0
 11
223.6274602793
 21
27.640912726
 31
0.0
  0
LINE
  5
AB
330
1F
100
AcDbEntity
  8
0
  6
Continuous
 62
     7
370
    25
100
AcDbLine
 10
223.6274602793
 20
42.4613493243
 30
0.0
 11
205.0
 21
37.4701363855
 31
0.0
  0
LINE
  5
AC
330
1F
100
AcDbEntity
  8
0
  6
Continuous
 62
     7
370
    25
100
AcDbLine
 10
205.0
 20
40.5759649267
 30
0.0
 11
205.0
 21
37.4701363855
 31
0.0
  0
LINE
  5
AD
330
1F
100
AcDbEntity
  8
0
  6
Continuous
 62
     7
370
    25
100
AcDbLine
 10
222.8510031439
 20
45.3591268032
 30
0.0
 11
205.0
 21
40.5759649267
 31
0.0
  0
LINE
  5
AE
330
1F
100
AcDbEntity
  8
0
  6
Continuous
 62
     7
370
    25
100
AcDbLine
 10
222.8510031439
 20
45.3591268032
 30
0.0
 11
223.6274602793
 21
42.4613493243
 31
0.0
  0
LINE
  5
AF
330
1F
100
AcDbEntity
  8
0
  6
Continuous
 62
     7
370
    25
100
AcDbLine
 10
223.6274602793
 20
57.2817859227
 30
0.0
 11
205.0
 21
52.2905729839
 31
0.0
  0
LINE
  5
B0
330
1F
100
AcDbEntity
  8
0
  6
Continuous
 62
     7
370
    25
100
AcDbLine
 10
205.0
 20
55.3964015251
 30
0.0
 11
205.0
 21
52.2905729839
 31
0.0
  0
LINE
  5
B1
330
1F
100
AcDbEntity
  8
0
  6
Continuous
 62
     7
370
    25
100
AcDbLine
 10
222.8510031439
 20
60.1795634016
 30
0.0
 11
205.0
 21
55.3964015251
 31
0.0
  0
LINE
  5
B2
330
1F
100
AcDbEntity
  8
0
  6
Continuous
 62
     7
370
    25
100
AcDbLine
 10
222.8510031439
 20
60.1795634016
 30
0.0
 11
223.6274602793
 21
57.2817859227
 31
0.0
  0
LINE
  5
B3
330
1F
100
AcDbEntity
  8
0
  6
Continuous
 62
     7
370
    25
100
AcDbLine
 10
223.6274602793
 20
72.1022225211
 30
0.0
 11
205.0
 21
67.1110095823
 31
0.0
  0
LINE
  5
B4
330
1F
100
AcDbEntity
  8
0
  6
Continuous
 62
     7
370
    25
100
AcDbLine
 10
205.0
 20
67.5
 30
0.0
 11
205.0
 21
67.1110095823
 31
0.0
  0
LINE
  5
B5
330
1F
100
AcDbEntity
  8
0
  6
Continuous
 62
     7
370
    25
100
AcDbLine
 10
198.9787175769
 20
67.5
 30
0.0
 11
205.0
 21
67.5
 31
0.0
  0
LINE
  5
B6
330
1F
100
AcDbEntity
  8
0
  6
Continuous
 62
     7
370
    25
100
AcDbLine
 10
198.9787175769
 20
67.5
 30
0.0
 11
198.7028574867
 21
68.5295238724
 31
0.0
  0
LINE
  5
B7
330
1F
100
AcDbEntity
  8
0
  6
Continuous
 62
     7
370
    25
100
AcDbLine
 10
222.8510031439
 20
75.0
 30
0.0
 11
198.7028574867
 21
68.5295238724
 31
0.0
  0
LINE
  5
B8
330
1F
100
AcDbEntity
  8
0
  6
Continuous
 62
     7
370
    25
100
AcDbLine
 10
222.8510031439
 20
75.0
 30
0.0
 11
223.6274602793
 21
72.1022225211
 31
0.0
  0
LINE
  5
B9
330
1F
100
AcDbEntity
  8
0
  6
Continuous
 62
     7
370
    25
100
AcDbLine
 10
61.2325391279
 20
12.5
 30
0.0
 11
49.0950794415
 21
9.2477774789
 31
0.0
  0
LINE
  5
BA
330
1F
100
AcDbEntity
  8
0
  6
Continuous
 62
     7
370
    25
100
AcDbLine
 10
72.8236490433
 20
12.5
 30
0.0
 11
61.2325391279
 21
12.5
 31
0.0
  0
LINE
  5
BB
330
1F
100
AcDbEntity
  8
0
  6
Continuous
 62
     7
370
    25
100
AcDbLine
 10
72.8236490433
 20
12.5
 30
0.0
 11
49.8715365768
 21
6.35
 31
0.0
  0
LINE
  5
BC
330
1F
100
AcDbEntity
  8
0
  6
Continuous
 62
     7
370
    25
100
AcDbLine
 10
49.8715365768
 20
6.35
 30
0.0
 11
49.0950794415
 21
9.2477774789
 31
0.0
  0
LINE
  5
BD
330
1F
100
AcDbEntity
  8
0
  6
Continuous
 62
     7
370
    25
100
AcDbLine
 10
82.6050788486
 20
12.5
 30
0.0
 11
70.4676191622
 21
9.2477774789
 31
0.0
  0
LINE
  5
BE
330
1F
100
AcDbEntity
  8
0
  6
Continuous
 62
     7
370
    25
100
AcDbLine
 10
94.1961887641
 20
12.5
 30
0.0
 11
82.6050788486
 21
12.5
 31
0.0
  0
LINE
  5
BF
330
1F
100
AcDbEntity
  8
0
  6
Continuous
 62
     7
370
    25
100
AcDbLine
 10
94.1961887641
 20
12.5
 30
0.0
 11
71.2440762975
 21
6.35
 31
0.0
  0
LINE
  5
C0
330
1F
100
AcDbEntity
  8
0
  6
Continuous
 62
     7
370
    25
100
AcDbLine
 10
71.2440762975
 20
6.35
 30
0.0
 11
70.4676191622
 21
9.2477774789
 31
0.0
  0
LINE
  5
C1
330
1F
100
AcDbEntity
  8
0
  6
Continuous
 62
     7
370
    25
100
AcDbLine
 10
103.9776185694
 20
12.5
 30
0.0
 11
91.840158883
 21
9.2477774789
 31
0.0
  0
LINE
  5
C2
330
1F
100
AcDbEntity
  8
0
  6
Continuous
 62
     7
370
    25
100
AcDbLine
 10
115.5687284848
 20
12.5
 30
0.0
 11
103.9776185694
 21
12.5
 31
0.0
  0
LINE
  5
C3
330
1F
100
AcDbEntity
  8
0
  6
Continuous
 62
     7
370
    25
100
AcDbLine
 10
115.5687284848
 20
12.5
 30
0.0
 11
92.6166160183
 21
6.35
 31
0.0
  0
LINE
  5
C4
330
1F
100
AcDbEntity
  8
0
  6
Continuous
 62
     7
370
    25
100
AcDbLine
 10
92.6166160183
 20
6.35
 30
0.0
 11
91.840158883
 21
9.2477774789
 31
0.0
  0
LINE
  5
C5
330
1F
100
AcDbEntity
  8
0
  6
Continuous
 62
     7
370
    25
100
AcDbLine
 10
125.3501582901
 20
12.5
 30
0.0
 11
113.2126986037
 21
9.2477774789
 31
0.0
  0
LINE
  5
C6
330
1F
100
AcDbEntity
  8
0
  6
Continuous
 62
     7
370
    25
100
AcDbLine
 10
136.9412682056
 20
12.5
 30
0.0
 11
125.3501582901
 21
12.5
 31
0.0
  0
LINE
  5
C7
330
1F
100
AcDbEntity
  8
0
  6
Continuous
 62
     7
370
    25
100
AcDbLine
 10
136.9412682056
 20
12.5
 30
0.0
 11
113.989155739
 21
6.35
 31
0.0
  0
LINE
  5
C8
330
1F
100
AcDbEntity
  8
0
  6
Continuous
 62
     7
370
    25
100
AcDbLine
 10
113.989155739
 20
6.35
 30
0.0
 11
113.2126986037
 21
9.2477774789
 31
0.0
  0
LINE
  5
C9
330
1F
100
AcDbEntity
  8
0
  6
Continuous
 62
     7
370
    25
100
AcDbLine
 10
146.7226980109
 20
12.5
 30
0.0
 11
134.5852383245
 21
9.2477774789
 31
0.0
  0
LINE
  5
CA
330
1F
100
AcDbEntity
  8
0
  6
Continuous
 62
     7
370
    25
100
AcDbLine
 10
158.3138079263
 20
12.5
 30
0.0
 11
146.7226980109
 21
12.5
 31
0.0
  0
LINE
  5
CB
330
1F
100
AcDbEntity
  8
0
  6
Continuous
 62
     7
370
    25
100
AcDbLine
 10
158.3138079263
 20
12.5
 30
0.0
 11
135.3616954598
 21
6.35
 31
0.0
  0
LINE
  5
CC
330
1F
100
AcDbEntity
  8
0
  6
Continuous
 62
     7
370
    25
100
AcDbLine
 10
135.3616954598
 20
6.35
 30
0.0
 11
134.5852383245
 21
9.2477774789
 31
0.0
  0
LINE
  5
CD
330
1F
100
AcDbEntity
  8
0
  6
Continuous
 62
     7
370
    25
100
AcDbLine
 10
168.0952377316
 20
12.5
 30
0.0
 11
155.9577780452
 21
9.2477774789
 31
0.0
  0
LINE
  5
CE
330
1F
100
AcDbEntity
  8
0
  6
Continuous
 62
     7
370
    25
100
AcDbLine
 10
179.6863476471
 20
12.5
 30
0.0
 11
168.0952377316
 21
12.5
 31
0.0
  0
LINE
  5
CF
330
1F
100
AcDbEntity
  8
0
  6
Continuous
 62
     7
370
    25
100
AcDbLine
 10
179.6863476471
 20
12.5
 30
0.0
 11
156.7342351805
 21
6.35
 31
0.0
  0
LINE
  5
D0
330
1F
100
AcDbEntity
  8
0
  6
Continuous
 62
     7
370
    25
100
AcDbLine
 10
156.7342351805
 20
6.35
 30
0.0
 11
155.9577780452
 21
9.2477774789
 31
0.0
  0
LINE
  5
D1
330
1F
100
AcDbEntity
  8
0
  6
Continuous
 62
     7
370
    25
100
AcDbLine
 10
189.4677774524
 20
12.5
 30
0.0
 11
177.330317766
 21
9.2477774789
 31
0.0
  0
LINE
  5
D2
330
1F
100
AcDbEntity
  8
0
  6
Continuous
 62
     7
370
    25
100
AcDbLine
 10
201.0588873678
 20
12.5
 30
0.0
 11
189.4677774524
 21
12.5
 31
0.0
  0
LINE
  5
D3
330
1F
100
AcDbEntity
  8
0
  6
Continuous
 62
     7
370
    25
100
AcDbLine
 10
201.0588873678
 20
12.5
 30
0.0
 11
178.1067749013
 21
6.35
 31
0.0
  0
LINE
  5
D4
330
1F
100
AcDbEntity
  8
0
  6
Continuous
 62
     7
370
    25
100
AcDbLine
 10
178.1067749013
 20
6.35
 30
0.0
 11
177.330317766
 21
9.2477774789
 31
0.0
  0
LINE
  5
D5
330
1F
100
AcDbEntity
  8
0
  6
Continuous
 62
     7
370
    25
100
AcDbLine
 10
0.0
 20
0.0
 30
0.0
 11
19.2307692308
 21
0.0
 31
0.0
  0
LINE
  5
D6
330
1F
100
AcDbEntity
  8
0
  6
Continuous
 62
     7
370
    25
100
AcDbLine
 10
19.2307692308
 20
0.0
 30
0.0
 11
19.2307692308
 21
-6.096
 31
0.0
  0
LINE
  5
D7
330
1F
100
AcDbEntity
  8
0
  6
Continuous
 62
     7
370
    25
100
AcDbLine
 10
19.2307692308
 20
-6.096
 30
0.0
 11
38.4615384615
 21
-6.096
 31
0.0
  0
LINE
  5
D8
330
1F
100
AcDbEntity
  8
0
  6
Continuous
 62
     7
370
    25
100
AcDbLine
 10
38.4615384615
 20
0.0
 30
0.0
 11
38.4615384615
 21
-6.096
 31
0.0
  0
LINE
  5
D9
330
1F
100
AcDbEntity
  8
0
  6
Continuous
 62
     7
370
    25
100
AcDbLine
 10
38.4615384615
 20
0.0
 30
0.0
 11
57.6923076923
 21
0.0
 31
0.0
  0
LINE
  5
DA
330
1F
100
AcDbEntity
  8
0
  6
Continuous
 62
     7
370
    25
100
AcDbLine
 10
57.6923076923
 20
0.0
 30
0.0
 11
57.6923076923
 21
-6.096
 31
0.0
  0
LINE
  5
DB
330
1F
100
AcDbEntity
  8
0
  6
Continuous
 62
     7
370
    25
100
AcDbLine
 10
57.6923076923
 20
-6.096
 30
0.0
 11
76.9230769231
 21
-6.096
 31
0.0
  0
LINE
  5
DC
330
1F
100
AcDbEntity
  8
0
  6
Continuous
 62
     7
370
    25
100
AcDbLine
 10
76.9230769231
 20
0.0
 30
0.0
 11
76.9230769231
 21
-6.096
 31
0.0
  0
LINE
  5
DD
330
1F
100
AcDbEntity
  8
0
  6
Continuous
 62
     7
370
    25
100
AcDbLine
 10
76.9230769231
 20
0.0
 30
0.0
 11
96.1538461538
 21
0.0
 31
0.0
  0
LINE
  5
DE
330
1F
100
AcDbEntity
  8
0
  6
Continuous
 62
     7
370
    25
100
AcDbLine
 10
96.1538461538
 20
0.0
 30
0.0
 11
96.1538461538
 21
-6.096
 31
0.0
  0
LINE
  5
DF
330
1F
100
AcDbEntity
  8
0
  6
Continuous
 62
     7
370
    25
100
AcDbLine
 10
96.1538461538
 20
-6.096
 30
0.0
 11
115.3846153846
 21
-6.096
 31
0.0
  0
LINE
  5
E0
330
1F
100
AcDbEntity
  8
0
  6
Continuous
 62
     7
370
    25
100
AcDbLine
 10
115.3846153846
 20
0.0
 30
0.0
 11
115.3846153846
 21
-6.096
 31
0.0
  0
LINE
  5
E1
330
1F
100
AcDbEntity
  8
0
  6
Continuous
 62
     7
370
    25
100
AcDbLine
 10
115.3846153846
 20
0.0
 30
0.0
 11
134.6153846154
 21
0.0
 31
0.0
  0
LINE
  5
E2
330
1F
100
AcDbEntity
  8
0
  6
Continuous
 62
     7
370
    25
100
AcDbLine
 10
134.6153846154
 20
0.0
 30
0.0
 11
134.6153846154
 21
-6.096
 31
0.0
  0
LINE
  5
E3
330
1F
100
AcDbEntity
  8
0
  6
Continuous
 62
     7
370
    25
100
AcDbLine
 10
134.6153846154
 20
-6.096
 30
0.0
 11
153.8461538462
 21
-6.096
 31
0.0
  0
LINE
  5
E4
330
1F
100
AcDbEntity
  8
0
  6
Continuous
 62
     7
370
    25
100
AcDbLine
 10
153.8461538462
 20
0.0
 30
0.0
 11
153.8461538462
 21
-6.096
 31
0.0
  0
LINE
  5
E5
330
1F
100
AcDbEntity
  8
0
  6
Continuous
 62
     7
370
    25
100
AcDbLine
 10
153.8461538462
 20
0.0
 30
0.0
 11
173.0769230769
 21
0.0
 31
0.0
  0
LINE
  5
E6
330
1F
100
AcDbEntity
  8
0
  6
Continuous
 62
     7
370
    25
100
AcDbLine
 10
173.0769230769
 20
0.0
 30
0.0
 11
173.0769230769
 21
-6.096
 31
0.0
  0
LINE
  5
E7
330
1F
100
AcDbEntity
  8
0
  6
Continuous
 62
     7
370
    25
100
AcDbLine
 10
173.0769230769
 20
-6.096
 30
0.0
 11
192.3076923077
 21
-6.096
 31
0.0
  0
LINE
  5
E8
330
1F
100
AcDbEntity
  8
0
  6
Continuous
 62
     7
370
    25
100
AcDbLine
 10
192.3076923077
 20
0.0
 30
0.0
 11
192.3076923077
 21
-6.096
 31
0.0
  0
LINE
  5
E9
330
1F
100
AcDbEntity
  8
0
  6
Continuous
 62
     7
370
    25
100
AcDbLine
 10
192.3076923077
 20
0.0
 30
0.0
 11
211.5384615385
 21
0.0
 31
0.0
  0
LINE
  5
EA
330
1F
100
AcDbEntity
  8
0
  6
Continuous
 62
     7
370
    25
100
AcDbLine
 10
211.5384615385
 20
0.0
 30
0.0
 11
211.5384615385
 21
-6.096
 31
0.0
  0
LINE
  5
EB
330
1F
100
AcDbEntity
  8
0
  6
Continuous
 62
     7
370
    25
100
AcDbLine
 10
211.5384615385
 20
-6.096
 30
0.0
 11
230.7692307692
 21
-6.096
 31
0.0
  0
LINE
  5
EC
330
1F
100
AcDbEntity
  8
0
  6
Continuous
 62
     7
370
    25
100
AcDbLine
 10
230.7692307692
 20
0.0
 30
0.0
 11
230.7692307692
 21
-6.096
 31
0.0
  0
LINE
  5
ED
330
1F
100
AcDbEntity
  8
0
  6
Continuous
 62
     7
370
    25
100
AcDbLine
 10
230.7692307692
 20
0.0
 30
0.0
 11
250.0
 21
0.0
 31
0.0
  0
LINE
  5
EE
330
1F
100
AcDbEntity
  8
0
  6
Continuous
 62
     7
370
    25
100
AcDbLine
 10
250.0
 20
0.0
 30
0.0
 11
250.0
 21
-6.096
 31
0.0
  0
LINE
  5
EF
330
1F
100
AcDbEntity
  8
0
  6
Continuous
 62
     7
370
    25
100
AcDbLine
 10
256.096
 20
-6.096
 30
0.0
 11
250.0
 21
-6.096
 31
0.0
  0
LINE
  5
F0
330
1F
100
AcDbEntity
  8
0
  6
Continuous
 62
     7
370
    25
100
AcDbLine
 10
256.096
 20
-6.096
 30
0.0
 11
256.096
 21
13.3333333333
 31
0.0
  0
LINE
  5
F1
330
1F
100
AcDbEntity
  8
0
  6
Continuous
 62
     7
370
    25
100
AcDbLine
 10
250.0
 20
13.3333333333
 30
0.0
 11
256.096
 21
13.3333333333
 31
0.0
  0
LINE
  5
F2
330
1F
100
AcDbEntity
  8
0
  6
Continuous
 62
     7
370
    25
100
AcDbLine
 10
250.0
 20
13.3333333333
 30
0.0
 11
250.0
 21
26.6666666667
 31
0.0
  0
LINE
  5
F3
330
1F
100
AcDbEntity
  8
0
  6
Continuous
 62
     7
370
    25
100
AcDbLine
 10
250.0
 20
26.6666666667
 30
0.0
 11
256.096
 21
26.6666666667
 31
0.0
  0
LINE
  5
F4
330
1F
100
AcDbEntity
  8
0
  6
Continuous
 62
     7
370
    25
100
AcDbLine
 10
256.096
 20
26.6666666667
 30
0.0
 11
256.096
 21
40.0
 31
0.0
  0
LINE
  5
F5
330
1F
100
AcDbEntity
  8
0
  6
Continuous
 62
     7
370
    25
100
AcDbLine
 10
250.0
 20
40.0
 30
0.0
 11
256.096
 21
40.0
 31
0.0
  0
LINE
  5
F6
330
1F
100
AcDbEntity
  8
0
  6
Continuous
 62
     7
370
    25
100
AcDbLine
 10
250.0
 20
40.0
 30
0.0
 11
250.0
 21
53.3333333333
 31
0.0
  0
LINE
  5
F7
330
1F
100
AcDbEntity
  8
0
  6
Continuous
 62
     7
370
    25
100
AcDbLine
 10
250.0
 20
53.3333333333
 30
0.0
 11
256.096
 21
53.3333333333
 31
0.0
  0
LINE
  5
F8
330
1F
100
AcDbEntity
  8
0
  6
Continuous
 62
     7
370
    25
100
AcDbLine
 10
256.096
 20
53.3333333333
 30
0.0
 11
256.096
 21
66.6666666667
 31
0.0
  0
LINE
  5
F9
330
1F
100
AcDbEntity
  8
0
  6
Continuous
 62
     7
370
    25
100
AcDbLine
 10
250.0
 20
66.6666666667
 30
0.0
 11
256.096
 21
66.6666666667
 31
0.0
  0
LINE
  5
FA
330
1F
100
AcDbEntity
  8
0
  6
Continuous
 62
     7
370
    25
100
AcDbLine
 10
250.0
 20
66.6666666667
 30
0.0
 11
250.0
 21
80.0
 31
0.0
  0
LINE
  5
FB
330
1F
100
AcDbEntity
  8
0
  6
Continuous
 62
     7
370
    25
100
AcDbLine
 10
230.7692307692
 20
80.0
 30
0.0
 11
250.0
 21
80.0
 31
0.0
  0
LINE
  5
FC
330
1F
100
AcDbEntity
  8
0
  6
Continuous
 62
     7
370
    25
100
AcDbLine
 10
230.7692307692
 20
80.0
 30
0.0
 11
230.7692307692
 21
86.096
 31
0.0
  0
LINE
  5
FD
330
1F
100
AcDbEntity
  8
0
  6
Continuous
 62
     7
370
    25
100
AcDbLine
 10
211.5384615385
 20
86.096
 30
0.0
 11
230.7692307692
 21
86.096
 31
0.0
  0
LINE
  5
FE
330
1F
100
AcDbEntity
  8
0
  6
Continuous
 62
     7
370
    25
100
AcDbLine
 10
211.5384615385
 20
80.0
 30
0.0
 11
211.5384615385
 21
86.096
 31
0.0
  0
LINE
  5
FF
330
1F
100
AcDbEntity
  8
0
  6
Continuous
 62
     7
370
    25
100
AcDbLine
 10
192.3076923077
 20
80.0
 30
0.0
 11
211.5384615385
 21
80.0
 31
0.0
  0
LINE
  5
100
330
1F
100
AcDbEntity
  8
0
  6
Continuous
 62
     7
370
    25
100
AcDbLine
 10
192.3076923077
 20
80.0
 30
0.0
 11
192.3076923077
 21
86.096
 31
0.0
  0
LINE
  5
101
330
1F
100
AcDbEntity
  8
0
  6
Continuous
 62
     7
370
    25
100
AcDbLine
 10
173.0769230769
 20
86.096
 30
0.0
 11
192.3076923077
 21
86.096
 31
0.0
  0
LINE
  5
102
330
1F
100
AcDbEntity
  8
0
  6
Continuous
 62
     7
370
    25
100
AcDbLine
 10
173.0769230769
 20
80.0
 30
0.0
 11
173.0769230769
 21
86.096
 31
0.0
  0
LINE
  5
103
330
1F
100
AcDbEntity
  8
0
  6
Continuous
 62
     7
370
    25
100
AcDbLine
 10
153.8461538462
 20
80.0
 30
0.0
 11
173.0769230769
 21
80.0
 31
0.0
  0
LINE
  5
104
330
1F
100
AcDbEntity
  8
0
  6
Continuous
 62
     7
370
    25
100
AcDbLine
 10
153.8461538462
 20
80.0
 30
0.0
 11
153.8461538462
 21
86.096
 31
0.0
  0
LINE
  5
105
330
1F
100
AcDbEntity
  8
0
  6
Continuous
 62
     7
370
    25
100
AcDbLine
 10
134.6153846154
 20
86.096
 30
0.0
 11
153.8461538462
 21
86.096
 31
0.0
  0
LINE
  5
106
330
1F
100
AcDbEntity
  8
0
  6
Continuous
 62
     7
370
    25
100
AcDbLine
 10
134.6153846154
 20
80.0
 30
0.0
 11
134.6153846154
 21
86.096
 31
0.0
  0
LINE
  5
107
330
1F
100
AcDbEntity
  8
0
  6
Continuous
 62
     7
370
    25
100
AcDbLine
 10
115.3846153846
 20
80.0
 30
0.0
 11
134.6153846154
 21
80.0
 31
0.0
  0
LINE
  5
108
330
1F
100
AcDbEntity
  8
0
  6
Continuous
 62
     7
370
    25
100
AcDbLine
 10
115.3846153846
 20
80.0
 30
0.0
 11
115.3846153846
 21
86.096
 31
0.0
  0
LINE
  5
109
330
1F
100
AcDbEntity
  8
0
  6
Continuous
 62
     7
370
    25
100
AcDbLine
 10
96.1538461538
 20
86.096
 30
0.0
 11
115.3846153846
 21
86.096
 31
0.0
  0
LINE
  5
10A
330
1F
100
AcDbEntity
  8
0
  6
Continuous
 62
     7
370
    25
100
AcDbLine
 10
96.1538461538
 20
80.0
 30
0.0
 11
96.1538461538
 21
86.096
 31
0.0
  0
LINE
  5
10B
330
1F
100
AcDbEntity
  8
0
  6
Continuous
 62
     7
370
    25
100
AcDbLine
 10
76.9230769231
 20
80.0
 30
0.0
 11
96.1538461538
 21
80.0
 31
0.0
  0
LINE
  5
10C
330
1F
100
AcDbEntity
  8
0
  6
Continuous
 62
     7
370
    25
100
AcDbLine
 10
76.9230769231
 20
80.0
 30
0.0
 11
76.9230769231
 21
86.096
 31
0.0
  0
LINE
  5
10D
330
1F
100
AcDbEntity
  8
0
  6
Continuous
 62
     7
370
    25
100
AcDbLine
 10
57.6923076923
 20
86.096
 30
0.0
 11
76.9230769231
 21
86.096
 31
0.0
  0
LINE
  5
10E
330
1F
100
AcDbEntity
  8
0
  6
Continuous
 62
     7
370
    25
100
AcDbLine
 10
57.6923076923
 20
80.0
 30
0.0
 11
57.6923076923
 21
86.096
 31
0.0
  0
LINE
  5
10F
330
1F
100
AcDbEntity
  8
0
  6
Continuous
 62
     7
370
    25
100
AcDbLine
 10
38.4615384615
 20
80.0
 30
0.0
 11
57.6923076923
 21
80.0
 31
0.0
  0
LINE
  5
110
330
1F
100
AcDbEntity
  8
0
  6
Continuous
 62
     7
370
    25
100
AcDbLine
 10
38.4615384615
 20
80.0
 30
0.0
 11
38.4615384615
 21
86.096
 31
0.0
  0
LINE
  5
111
330
1F
100
AcDbEntity
  8
0
  6
Continuous
 62
     7
370
    25
100
AcDbLine
 10
19.2307692308
 20
86.096
 30
0.0
 11
38.4615384615
 21
86.096
 31
0.0
  0
LINE
  5
112
330
1F
100
AcDbEntity
  8
0
  6
Continuous
 62
     7
370
    25
100
AcDbLine
 10
19.2307692308
 20
80.0
 30
0.0
 11
19.2307692308
 21
86.096
 31
0.0
  0
LINE
  5
113
330
1F
100
AcDbEntity
  8
0
  6
Continuous
 62
     7
370
    25
100
AcDbLine
 10
0.0
 20
80.0
 30
0.0
 11
19.2307692308
 21
80.0
 31
0.0
  0
LINE
  5
114
330
1F
100
AcDbEntity
  8
0
  6
Continuous
 62
     7
370
    25
100
AcDbLine
 10
0.0
 20
80.0
 30
0.0
 11
0.0
 21
86.096
 31
0.0
  0
LINE
  5
115
330
1F
100
AcDbEntity
  8
0
  6
Continuous
 62
     7
370
    25
100
AcDbLine
 10
-6.096
 20
86.096
 30
0.0
 11
0.0
 21
86.096
 31
0.0
  0
LINE
  5
116
330
1F
100
AcDbEntity
  8
0
  6
Continuous
 62
     7
370
    25
100
AcDbLine
 10
-6.096
 20
86.096
 30
0.0
 11
-6.096
 21
66.6666666667
 31
0.0
  0
LINE
  5
117
330
1F
100
AcDbEntity
  8
0
  6
Continuous
 62
     7
370
    25
100
AcDbLine
 10
0.0
 20
66.6666666667
 30
0.0
 11
-6.096
 21
66.6666666667
 31
0.0
  0
LINE
  5
118
330
1F
100
AcDbEntity
  8
0
  6
Continuous
 62
     7
370
    25
100
AcDbLine
 10
0.0
 20
53.3333333333
 30
0.0
 11
0.0
 21
66.6666666667
 31
0.0
  0
LINE
  5
119
330
1F
100
AcDbEntity
  8
0
  6
Continuous
 62
     7
370
    25
100
AcDbLine
 10
0.0
 20
53.3333333333
 30
0.0
 11
-6.096
 21
53.3333333333
 31
0.0
  0
LINE
  5
11A
330
1F
100
AcDbEntity
  8
0
  6
Continuous
 62
     7
370
    25
100
AcDbLine
 10
-6.096
 20
53.3333333333
 30
0.0
 11
-6.096
 21
40.0
 31
0.0
  0
LINE
  5
11B
330
1F
100
AcDbEntity
  8
0
  6
Continuous
 62
     7
370
    25
100
AcDbLine
 10
0.0
 20
40.0
 30
0.0
 11
-6.096
 21
40.0
 31
0.0
  0
LINE
  5
11C
330
1F
100
AcDbEntity
  8
0
  6
Continuous
 62
     7
370
    25
100
AcDbLine
 10
0.0
 20
26.6666666667
 30
0.0
 11
0.0
 21
40.0
 31
0.0
  0
LINE
  5
11D
330
1F
100
AcDbEntity
  8
0
  6
Continuous
 62
     7
370
    25
100
AcDbLine
 10
0.0
 20
26.6666666667
 30
0.0
 11
-6.096
 21
26.6666666667
 31
0.0
  0
LINE
  5
11E
330
1F
100
AcDbEntity
  8
0
  6
Continuous
 62
     7
370
    25
100
AcDbLine
 10
-6.096
 20
26.6666666667
 30
0.0
 11
-6.096
 21
13.3333333333
 31
0.0
  0
LINE
  5
11F
330
1F
100
AcDbEntity
  8
0
  6
Continuous
 62
     7
370
    25
100
AcDbLine
 10
0.0
 20
13.3333333333
 30
0.0
 11
-6.096
 21
13.3333333333
 31
0.0
  0
LINE
  5
120
330
1F
100
AcDbEntity
  8
0
  6
Continuous
 62
     7
370
    25
100
AcDbLine
 10
0.0
 20
0.0
 30
0.0
 11
0.0
 21
13.3333333333
 31
0.0
  0
LINE
  5
121
330
1F
100
AcDbEntity
  8
0
  6
Continuous
 62
     7
370
    25
100
AcDbLine
 10
30.4981456572
 20
15.7182536064
 30
0.0
 11
31.2746027925
 21
12.8204761276
 31
0.0
  0
LINE
  5
122
330
1F
100
AcDbEntity
  8
0
  6
Continuous
 62
     7
370
    25
100
AcDbLine
 10
31.2746027925
 20
12.8204761276
 30
0.0
 11
7.1264571353
 21
6.35
 31
0.0
  0
LINE
  5
123
330
1F
100
AcDbEntity
  8
0
  6
Continuous
 62
     7
370
    25
100
AcDbLine
 10
7.1264571353
 20
6.35
 30
0.0
 11
6.35
 21
9.2477774789
 31
0.0
  0
LINE
  5
124
330
1F
100
AcDbEntity
  8
0
  6
Continuous
 62
     7
370
    25
100
AcDbLine
 10
30.4981456572
 20
15.7182536064
 30
0.0
 11
6.35
 21
9.2477774789
 31
0.0
  0
LINE
  5
125
330
1F
100
AcDbEntity
  8
0
  6
Continuous
 62
     7
370
    25
100
AcDbLine
 10
244.2235428647
 20
60.1795634016
 30
0.0
 11
245.0
 21
57.2817859227
 31
0.0
  0
LINE
  5
126
330
1F
100
AcDbEntity
  8
0
  6
Continuous
 62
     7
370
    25
100
AcDbLine
 10
245.0
 20
57.2817859227
 30
0.0
 11
220.8518543428
 21
50.8113097952
 31
0.0
  0
LINE
  5
127
330
1F
100
AcDbEntity
  8
0
  6
Continuous
 62
     7
370
    25
100
AcDbLine
 10
220.8518543428
 20
50.8113097952
 30
0.0
 11
220.0753972075
 21
53.709087274
 31
0.0
  0
LINE
  5
128
330
1F
100
AcDbEntity
  8
0
  6
Continuous
 62
     7
370
    25
100
AcDbLine
 10
244.2235428647
 20
60.1795634016
 30
0.0
 11
220.0753972075
 21
53.709087274
 31
0.0
  0
LINE
  5
129
330
1F
100
AcDbEntity
  8
0
  6
Continuous
 62
     7
370
    25
100
AcDbLine
 10
51.870685378
 20
75.0
 30
0.0
 11
52.6471425133
 21
72.1022225211
 31
0.0
  0
LINE
  5
12A
330
1F
100
AcDbEntity
  8
0
  6
Continuous
 62
     7
370
    25
100
AcDbLine
 10
52.6471425133
 20
72.1022225211
 30
0.0
 11
28.4989968561
 21
65.6317463936
 31
0.0
  0
LINE
  5
12B
330
1F
100
AcDbEntity
  8
0
  6
Continuous
 62
     7
370
    25
100
AcDbLine
 10
28.4989968561
 20
65.6317463936
 30
0.0
 11
27.7225397207
 21
68.5295238724
 31
0.0
  0
LINE
  5
12C
330
1F
100
AcDbEntity
  8
0
  6
Continuous
 62
     7
370
    25
100
AcDbLine
 10
51.870685378
 20
75.0
 30
0.0
 11
27.7225397207
 21
68.5295238724
 31
0.0
  0
LINE
  5
12D
330
1F
100
AcDbEntity
  8
0
  6
Continuous
 62
     7
370
    25
100
AcDbLine
 10
30.4981456572
 20
75.0
 30
0.0
 11
31.2746027925
 21
72.1022225211
 31
0.0
  0
LINE
  5
12E
330
1F
100
AcDbEntity
  8
0
  6
Continuous
 62
     7
370
    25
100
AcDbLine
 10
31.2746027925
 20
72.1022225211
 30
0.0
 11
7.1264571353
 21
65.6317463936
 31
0.0
  0
LINE
  5
12F
330
1F
100
AcDbEntity
  8
0
  6
Continuous
 62
     7
370
    25
100
AcDbLine
 10
7.1264571353
 20
65.6317463936
 30
0.0
 11
6.35
 21
68.5295238724
 31
0.0
  0
LINE
  5
130
330
1F
100
AcDbEntity
  8
0
  6
Continuous
 62
     7
370
    25
100
AcDbLine
 10
30.4981456572
 20
75.0
 30
0.0
 11
6.35
 21
68.5295238724
 31
0.0
  0
LINE
  5
131
330
1F
100
AcDbEntity
  8
0
  6
Continuous
 62
     7
370
    25
100
AcDbLine
 10
244.2235428647
 20
75.0
 30
0.0
 11
245.0
 21
72.1022225211
 31
0.0
  0
LINE
  5
132
330
1F
100
AcDbEntity
  8
0
  6
Continuous
 62
     7
370
    25
100
AcDbLine
 10
245.0
 20
72.1022225211
 30
0.0
 11
220.8518543428
 21
65.6317463936
 31
0.0
  0
LINE
  5
133
330
1F
100
AcDbEntity
  8
0
  6
Continuous
 62
     7
370
    25
100
AcDbLine
 10
220.8518543428
 20
65.6317463936
 30
0.0
 11
220.0753972075
 21
68.5295238724
 31
0.0
  0
LINE
  5
134
330
1F
100
AcDbEntity
  8
0
  6
Continuous
 62
     7
370
    25
100
AcDbLine
 10
244.2235428647
 20
75.0
 30
0.0
 11
220.0753972075
 21
68.5295238724
 31
0.0
  0
LINE
  5
135
330
1F
100
AcDbEntity
  8
0
  6
Continuous
 62
     7
370
    25
100
AcDbLine
 10
30.4981456572
 20
30.5386902048
 30
0.0
 11
31.2746027925
 21
27.640912726
 31
0.0
  0
LINE
  5
136
330
1F
100
AcDbEntity
  8
0
  6
Continuous
 62
     7
370
    25
100
AcDbLine
 10
31.2746027925
 20
27.640912726
 30
0.0
 11
7.1264571353
 21
21.1704365984
 31
0.0
  0
LINE
  5
137
330
1F
100
AcDbEntity
  8
0
  6
Continuous
 62
     7
370
    25
100
AcDbLine
 10
7.1264571353
 20
21.1704365984
 30
0.0
 11
6.35
 21
24.0682140773
 31
0.0
  0
LINE
  5
138
330
1F
100
AcDbEntity
  8
0
  6
Continuous
 62
     7
370
    25
100
AcDbLine
 10
30.4981456572
 20
30.5386902048
 30
0.0
 11
6.35
 21
24.0682140773
 31
0.0
  0
LINE
  5
139
330
1F
100
AcDbEntity
  8
0
  6
Continuous
 62
     7
370
    25
100
AcDbLine
 10
244.2235428647
 20
15.7182536064
 30
0.0
 11
245.0
 21
12.8204761276
 31
0.0
  0
LINE
  5
13A
330
1F
100
AcDbEntity
  8
0
  6
Continuous
 62
     7
370
    25
100
AcDbLine
 10
245.0
 20
12.8204761276
 30
0.0
 11
220.8518543428
 21
6.35
 31
0.0
  0
LINE
  5
13B
330
1F
100
AcDbEntity
  8
0
  6
Continuous
 62
     7
370
    25
100
AcDbLine
 10
220.8518543428
 20
6.35
 30
0.0
 11
220.0753972075
 21
9.2477774789
 31
0.0
  0
LINE
  5
13C
330
1F
100
AcDbEntity
  8
0
  6
Continuous
 62
     7
370
    25
100
AcDbLine
 10
244.2235428647
 20
15.7182536064
 30
0.0
 11
220.0753972075
 21
9.2477774789
 31
0.0
  0
LINE
  5
13D
330
1F
100
AcDbEntity
  8
0
  6
Continuous
 62
     7
370
    25
100
AcDbLine
 10
222.8510031439
 20
15.7182536064
 30
0.0
 11
223.6274602793
 21
12.8204761276
 31
0.0
  0
LINE
  5
13E
330
1F
100
AcDbEntity
  8
0
  6
Continuous
 62
     7
370
    25
100
AcDbLine
 10
223.6274602793
 20
12.8204761276
 30
0.0
 11
199.479314622
 21
6.35
 31
0.0
  0
LINE
  5
13F
330
1F
100
AcDbEntity
  8
0
  6
Continuous
 62
     7
370
    25
100
AcDbLine
 10
199.479314622
 20
6.35
 30
0.0
 11
198.7028574867
 21
9.2477774789
 31
0.0
  0
LINE
  5
140
330
1F
100
AcDbEntity
  8
0
  6
Continuous
 62
     7
370
    25
100
AcDbLine
 10
222.8510031439
 20
15.7182536064
 30
0.0
 11
198.7028574867
 21
9.2477774789
 31
0.0
  0
LINE
  5
141
330
1F
100
AcDbEntity
  8
0
  6
Continuous
 62
     7
370
    25
100
AcDbLine
 10
30.4981456572
 20
60.1795634016
 30
0.0
 11
31.2746027925
 21
57.2817859227
 31
0.0
  0
LINE
  5
142
330
1F
100
AcDbEntity
  8
0
  6
Continuous
 62
     7
370
    25
100
AcDbLine
 10
31.2746027925
 20
57.2817859227
 30
0.0
 11
7.1264571353
 21
50.8113097952
 31
0.0
  0
LINE
  5
143
330
1F
100
AcDbEntity
  8
0
  6
Continuous
 62
     7
370
    25
100
AcDbLine
 10
7.1264571353
 20
50.8113097952
 30
0.0
 11
6.35
 21
53.709087274
 31
0.0
  0
LINE
  5
144
330
1F
100
AcDbEntity
  8
0
  6
Continuous
 62
     7
370
    25
100
AcDbLine
 10
30.4981456572
 20
60.1795634016
 30
0.0
 11
6.35
 21
53.709087274
 31
0.0
  0
LINE
  5
145
330
1F
100
AcDbEntity
  8
0
  6
Continuous
 62
     7
370
    25
100
AcDbLine
 10
244.2235428647
 20
45.3591268032
 30
0.0
 11
245.0
 21
42.4613493243
 31
0.0
  0
LINE
  5
146
330
1F
100
AcDbEntity
  8
0
  6
Continuous
 62
     7
370
    25
100
AcDbLine
 10
245.0
 20
42.4613493243
 30
0.0
 11
220.8518543428
 21
35.9908731968
 31
0.0
  0
LINE
  5
147
330
1F
100
AcDbEntity
  8
0
  6
Continuous
 62
     7
370
    25
100
AcDbLine
 10
220.8518543428
 20
35.9908731968
 30
0.0
 11
220.0753972075
 21
38.8886506757
 31
0.0
  0
LINE
  5
148
330
1F
100
AcDbEntity
  8
0
  6
Continuous
 62
     7
370
    25
100
AcDbLine
 10
244.2235428647
 20
45.3591268032
 30
0.0
 11
220.0753972075
 21
38.8886506757
 31
0.0
  0
LINE
  5
149
330
1F
100
AcDbEntity
  8
0
  6
Continuous
 62
     7
370
    25
100
AcDbLine
 10
30.4981456572
 20
45.3591268032
 30
0.0
 11
31.2746027925
 21
42.4613493243
 31
0.0
  0
LINE
  5
14A
330
1F
100
AcDbEntity
  8
0
  6
Continuous
 62
     7
370
    25
100
AcDbLine
 10
31.2746027925
 20
42.4613493243
 30
0.0
 11
7.1264571353
 21
35.9908731968
 31
0.0
  0
LINE
  5
14B
330
1F
100
AcDbEntity
  8
0
  6
Continuous
 62
     7
370
    25
100
AcDbLine
 10
7.1264571353
 20
35.9908731968
 30
0.0
 11
6.35
 21
38.8886506757
 31
0.0
  0
LINE
  5
14C
330
1F
100
AcDbEntity
  8
0
  6
Continuous
 62
     7
370
    25
100
AcDbLine
 10
30.4981456572
 20
45.3591268032
 30
0.0
 11
6.35
 21
38.8886506757
 31
0.0
  0
LINE
  5
14D
330
1F
100
AcDbEntity
  8
0
  6
Continuous
 62
     7
370
    25
100
AcDbLine
 10
244.2235428647
 20
30.5386902048
 30
0.0
 11
245.0
 21
27.640912726
 31
0.0
  0
LINE
  5
14E
330
1F
100
AcDbEntity
  8
0
  6
Continuous
 62
     7
370
    25
100
AcDbLine
 10
245.0
 20
27.640912726
 30
0.0
 11
220.8518543428
 21
21.1704365984
 31
0.0
  0
LINE
  5
14F
330
1F
100
AcDbEntity
  8
0
  6
Continuous
 62
     7
370
    25
100
AcDbLine
 10
220.8518543428
 20
21.1704365984
 30
0.0
 11
220.0753972075
 21
24.0682140773
 31
0.0
  0
LINE
  5
150
330
1F
100
AcDbEntity
  8
0
  6
Continuous
 62
     7
370
    25
100
AcDbLine
 10
244.2235428647
 20
30.5386902048
 30
0.0
 11
220.0753972075
 21
24.0682140773
 31
0.0
  0
LINE
  5
151
330
1F
100
AcDbEntity
  8
0
  6
Continuous
 62
     7
370
    25
100
AcDbLine
 10
182.4828767123
 20
37.9587633867
 30
0.0
 11
182.4828767123
 21
39.9443736773
 31
0.0
  0
LINE
  5
152
330
1F
100
AcDbEntity
  8
0
  6
Continuous
 62
     7
370
    25
100
AcDbLine
 10
181.6230822355
 20
38.4551659593
 30
0.0
 11
182.4828767123
 21
37.9587633867
 31
0.0
  0
LINE
  5
153
330
1F
100
AcDbEntity
  8
0
  6
Continuous
 62
     7
370
    25
100
AcDbLine
 10
182.4828767123
 20
39.9443736773
 30
0.0
 11
181.6230822355
 21
38.4551659593
 31
0.0
  0
LINE
  5
154
330
1F
100
AcDbEntity
  8
0
  6
Continuous
 62
     7
370
    25
100
AcDbLine
 10
85.4006849315
 20
55.7916332255
 30
0.0
 11
84.9218955186
 21
54.9623456363
 31
0.0
  0
LINE
  5
155
330
1F
100
AcDbEntity
  8
0
  6
Continuous
 62
     7
370
    25
100
AcDbLine
 10
85.4006849315
 20
54.6859164399
 30
0.0
 11
85.4006849315
 21
55.7916332255
 31
0.0
  0
LINE
  5
156
330
1F
100
AcDbEntity
  8
0
  6
Continuous
 62
     7
370
    25
100
AcDbLine
 10
84.9218955186
 20
54.9623456363
 30
0.0
 11
85.4006849315
 21
54.6859164399
 31
0.0
  0
LINE
  5
157
330
1F
100
AcDbEntity
  8
0
  6
Continuous
 62
     7
370
    25
100
AcDbLine
 10
80.5115369022
 20
26.544513835
 30
0.0
 11
85.4006849315
 21
23.7217629042
 31
0.0
  0
LINE
  5
158
330
1F
100
AcDbEntity
  8
0
  6
Continuous
 62
     7
370
    25
100
AcDbLine
 10
81.1616242905
 20
30.0631686499
 30
0.0
 11
80.5115369022
 21
26.544513835
 31
0.0
  0
LINE
  5
159
330
1F
100
AcDbEntity
  8
0
  6
Continuous
 62
     7
370
    25
100
AcDbLine
 10
85.4006849315
 20
27.6157458477
 30
0.0
 11
81.1616242905
 21
30.0631686499
 31
0.0
  0
LINE
  5
15A
330
1F
100
AcDbEntity
  8
0
  6
Continuous
 62
     7
370
    25
100
AcDbLine
 10
85.4006849315
 20
23.7217629042
 30
0.0
 11
85.4006849315
 21
27.6157458477
 31
0.0
  0
SPLINE
  5
15B
330
1F
100
AcDbEntity
  8
0
  6
Continuous
 62
     7
370
    25
100
AcDbSpline
210
0.0
220
0.0
230
1.0
 70
     8
 71
     3
 72
    12
 73
     8
 74
     0
 42
0.00000001
 43
0.00000001
 40
0.0263937970617507
 40
0.0263937970617507
 40
0.0263937970617507
 40
0.0263937970617507
 40
0.0667600732871372
 40
0.1309108860454864
 40
0.1932259840237728
 40
0.2541151756040204
 40
0.3062981039718839
 40
0.3062981039718839
 40
0.3062981039718839
 40
0.3062981039718839
 10
148.1581897613159
 20
20.34939782329792
 30
0.0
 10
147.7459551891909
 20
20.36279644180088
 30
0.0
 10
146.6796443839332
 20
20.41252822579898
 30
0.0
 10
144.9886007856102
 20
20.64913522064323
 30
0.0
 10
143.1200824612975
 20
21.07391551295325
 30
0.0
 10
141.422273114106
 20
21.65708468711931
 30
0.0
 10
140.371462218021
 20
22.14071043836153
 30
0.0
 10
139.897947512059
 20
22.3859216724628
 30
0.0
  0
SPLINE
  5
15C
330
1F
100
AcDbEntity
  8
0
  6
Continuous
 62
     7
370
    25
100
AcDbSpline
210
0.0
220
0.0
230
1.0
 70
     8
 71
     3
 72
     9
 73
     5
 74
     0
 42
0.00000001
 43
0.00000001
 40
0.0263937970617507
 40
0.0263937970617507
 40
0.0263937970617507
 40
0.0263937970617507
 40
0.0467030953205394
 40
0.0546622924150137
 40
0.0546622924150137
 40
0.0546622924150137
 40
0.0546622924150137
 10
139.138764168272
 20
22.80359710763238
 30
0.0
 10
139.3180410788403
 20
22.69905255784776
 30
0.0
 10
139.5701575968206
 20
22.5579773327196
 30
0.0
 10
139.8257247183263
 20
22.42332249689014
 30
0.0
 10
139.897947512059
 20
22.38592167246279
 30
0.0
  0
LINE
  5
15D
330
1F
100
AcDbEntity
  8
0
  6
Continuous
 62
     7
370
    25
100
AcDbLine
 10
139.5325421888
 20
23.4856406461
 30
0.0
 11
139.1387641683
 21
22.8035971076
 31
0.0
  0
LINE
  5
15E
330
1F
100
AcDbEntity
  8
0
  6
Continuous
 62
     7
370
    25
100
AcDbLine
 10
135.0426467976
 20
26.0778829588
 30
0.0
 11
139.5325421888
 21
23.4856406461
 31
0.0
  0
SPLINE
  5
15F
330
1F
100
AcDbEntity
  8
0
  6
Continuous
 62
     7
370
    25
100
AcDbSpline
210
0.0
220
0.0
230
1.0
 70
     8
 71
     3
 72
     8
 73
     4
 74
     0
 42
0.00000001
 43
0.00000001
 40
0.5062206516021389
 40
0.5062206516021389
 40
0.5062206516021389
 40
0.5062206516021389
 40
0.5322091168152456
 40
0.5322091168152456
 40
0.5322091168152456
 40
0.5322091168152456
 10
135.0426468111495
 20
26.07788297158749
 30
0.0
 10
134.8604329296499
 20
26.2711240001206
 30
0.0
 10
134.6820418993647
 20
26.46795212346249
 30
0.0
 10
134.5078653335532
 20
26.66840826397078
 30
0.0
  0
SPLINE
  5
160
330
1F
100
AcDbEntity
  8
0
  6
Continuous
 62
     7
370
    25
100
AcDbSpline
210
0.0
220
0.0
230
1.0
 70
     8
 71
     3
 72
    10
 73
     6
 74
     0
 42
0.00000001
 43
0.00000001
 40
0.6976527877253816
 40
0.6976527877253816
 40
0.6976527877253816
 40
0.6976527877253816
 40
0.7138343247344971
 40
0.7749238578450541
 40
0.8026253761314094
 40
0.8026253761314094
 40
0.8026253761314094
 40
0.8026253761314094
 10
132.6175657043977
 20
29.26773254611594
 30
0.0
 10
132.7032290504483
 20
29.12629455534819
 30
0.0
 10
133.1210039178259
 20
28.45613135556611
 30
0.0
 10
133.7424718152493
 20
27.58015969021561
 30
0.0
 10
134.3222077626534
 20
26.88207765138435
 30
0.0
 10
134.5078653335532
 20
26.6684082639708
 30
0.0
  0
SPLINE
  5
161
330
1F
100
AcDbEntity
  8
0
  6
Continuous
 62
     7
370
    25
100
AcDbSpline
210
0.0
220
0.0
230
1.0
 70
     8
 71
     3
 72
    11
 73
     7
 74
     0
 42
0.00000001
 43
0.00000001
 40
0.6371817052212749
 40
0.6371817052212749
 40
0.6371817052212749
 40
0.6371817052212749
 40
0.6816900346806446
 40
0.7426928339096327
 40
0.804322789741666
 40
0.828613843373978
 40
0.828613843373978
 40
0.828613843373978
 40
0.828613843373978
 10
132.6175657043977
 20
29.26773254611595
 30
0.0
 10
132.3819433141103
 20
29.65676658457696
 30
0.0
 10
131.8560915733632
 20
30.59868901771709
 30
0.0
 10
131.1613706552626
 20
32.16201579537771
 30
0.0
 10
130.7027090792322
 20
33.59341580695271
 30
0.0
 10
130.4858316676838
 20
34.44431591112721
 30
0.0
 10
130.4288016289279
 20
34.6858764818818
 30
0.0
  0
LINE
  5
162
330
1F
100
AcDbEntity
  8
0
  6
Continuous
 62
     7
370
    25
100
AcDbLine
 10
132.8443755758
 20
33.2912442022
 30
0.0
 11
130.4288016289
 21
34.6858764819
 31
0.0
  0
LINE
  5
163
330
1F
100
AcDbEntity
  8
0
  6
Continuous
 62
     7
370
    25
100
AcDbLine
 10
131.956610415
 20
31.7535898385
 30
0.0
 11
132.8443755758
 21
33.2912442022
 31
0.0
  0
LINE
  5
164
330
1F
100
AcDbEntity
  8
0
  6
Continuous
 62
     7
370
    25
100
AcDbLine
 10
143.5889518776
 20
25.0376543637
 30
0.0
 11
131.956610415
 21
31.7535898385
 31
0.0
  0
LINE
  5
165
330
1F
100
AcDbEntity
  8
0
  6
Continuous
 62
     7
370
    25
100
AcDbLine
 10
142.7011867168
 20
23.5
 30
0.0
 11
143.5889518776
 21
25.0376543637
 31
0.0
  0
LINE
  5
166
330
1F
100
AcDbEntity
  8
0
  6
Continuous
 62
     7
370
    25
100
AcDbLine
 10
148.1581897613
 20
20.3493978233
 30
0.0
 11
142.7011867168
 21
23.5
 31
0.0
  0
LINE
  5
167
330
1F
100
AcDbEntity
  8
0
  6
Continuous
 62
     7
370
    25
100
AcDbLine
 10
194.745890411
 20
30.8825770548
 30
0.0
 11
194.4266081847
 21
29.0128409877
 31
0.0
  0
SPLINE
  5
168
330
1F
100
AcDbEntity
  8
0
  6
Continuous
 62
     7
370
    25
100
AcDbSpline
210
0.0
220
0.0
230
1.0
 70
     8
 71
     3
 72
    11
 73
     7
 74
     0
 42
0.00000001
 43
0.00000001
 40
0.0
 40
0.0
 40
0.0
 40
0.0
 40
0.2855892243915907
 40
0.521138588319269
 40
0.7402428537434076
 40
1.0
 40
1.0
 40
1.0
 40
1.0
 10
195.5203125
 20
31.56917808219177
 30
0.0
 10
195.4072963923742
 20
31.56402022877612
 30
0.0
 10
195.2010664307539
 20
31.55460826145307
 30
0.0
 10
194.925779917353
 20
31.42561845347595
 30
0.0
 10
194.7645136688097
 20
31.17682766963893
 30
0.0
 10
194.7524398325261
 20
30.98605902011323
 30
0.0
 10
194.7458904109589
 20
30.88257705479451
 30
0.0
  0
LINE
  5
169
330
1F
100
AcDbEntity
  8
0
  6
Continuous
 62
     7
370
    25
100
AcDbLine
 10
197.5481806507
 20
31.5691780822
 30
0.0
 11
195.5203125
 21
31.5691780822
 31
0.0
  0
SPLINE
  5
16A
330
1F
100
AcDbEntity
  8
0
  6
Continuous
 62
     7
370
    25
100
AcDbSpline
210
0.0
220
0.0
230
1.0
 70
     8
 71
     3
 72
    11
 73
     7
 74
     0
 42
0.00000001
 43
0.00000001
 40
0.0
 40
0.0
 40
0.0
 40
0.0
 40
0.2086101314063512
 40
0.412456351913996
 40
0.6680160770120791
 40
1.0
 40
1.0
 40
1.0
 40
1.0
 10
198.8335616438357
 20
30.78677226027397
 30
0.0
 10
198.8199861645238
 20
30.9067909174782
 30
0.0
 10
198.7931452213982
 20
31.1440874340872
 30
0.0
 10
198.5020500330965
 20
31.4223297604426
 30
0.0
 10
198.0664402059692
 20
31.5487836317589
 30
0.0
 10
197.7352917778568
 20
31.56181492106983
 30
0.0
 10
197.548180650685
 20
31.56917808219177
 30
0.0
  0
LINE
  5
16B
330
1F
100
AcDbEntity
  8
0
  6
Continuous
 62
     7
370
    25
100
AcDbLine
 10
198.8335616438
 20
26.4684852217
 30
0.0
 11
198.8335616438
 21
30.7867722603
 31
0.0
  0
LINE
  5
16C
330
1F
100
AcDbEntity
  8
0
  6
Continuous
 62
     7
370
    25
100
AcDbLine
 10
194.4266081847
 20
29.0128409877
 30
0.0
 11
198.8335616438
 21
26.4684852217
 31
0.0
  0
LINE
  5
16D
330
1F
100
AcDbEntity
  8
0
  6
Continuous
 62
     7
370
    25
100
AcDbLine
 10
182.4828767123
 20
43.9029521484
 30
0.0
 11
176.351369863
 21
47.4429792784
 31
0.0
  0
LINE
  5
16E
330
1F
100
AcDbEntity
  8
0
  6
Continuous
 62
     7
370
    25
100
AcDbLine
 10
182.4828767123
 20
40.0089692049
 30
0.0
 11
182.4828767123
 21
43.9029521484
 31
0.0
  0
LINE
  5
16F
330
1F
100
AcDbEntity
  8
0
  6
Continuous
 62
     7
370
    25
100
AcDbLine
 10
176.351369863
 20
43.5489963349
 30
0.0
 11
182.4828767123
 21
40.0089692049
 31
0.0
  0
LINE
  5
170
330
1F
100
AcDbEntity
  8
0
  6
Continuous
 62
     7
370
    25
100
AcDbLine
 10
176.351369863
 20
47.4429792784
 30
0.0
 11
176.351369863
 21
43.5489963349
 31
0.0
  0
LINE
  5
171
330
1F
100
AcDbEntity
  8
0
  6
Continuous
 62
     7
370
    25
100
AcDbLine
 10
182.4828767123
 20
46.2123532251
 30
0.0
 11
182.4828767123
 21
48.1979635158
 31
0.0
  0
LINE
  5
172
330
1F
100
AcDbEntity
  8
0
  6
Continuous
 62
     7
370
    25
100
AcDbLine
 10
181.6230822355
 20
46.7087557978
 30
0.0
 11
182.4828767123
 21
46.2123532251
 31
0.0
  0
LINE
  5
173
330
1F
100
AcDbEntity
  8
0
  6
Continuous
 62
     7
370
    25
100
AcDbLine
 10
182.4828767123
 20
48.1979635158
 30
0.0
 11
181.6230822355
 21
46.7087557978
 31
0.0
  0
LINE
  5
174
330
1F
100
AcDbEntity
  8
0
  6
Continuous
 62
     7
370
    25
100
AcDbLine
 10
182.4828767123
 20
31.7553793664
 30
0.0
 11
182.4828767123
 21
35.6493623099
 31
0.0
  0
LINE
  5
175
330
1F
100
AcDbEntity
  8
0
  6
Continuous
 62
     7
370
    25
100
AcDbLine
 10
176.351369863
 20
35.2954064964
 30
0.0
 11
182.4828767123
 21
31.7553793664
 31
0.0
  0
LINE
  5
176
330
1F
100
AcDbEntity
  8
0
  6
Continuous
 62
     7
370
    25
100
AcDbLine
 10
176.351369863
 20
39.1893894399
 30
0.0
 11
176.351369863
 21
35.2954064964
 31
0.0
  0
LINE
  5
177
330
1F
100
AcDbEntity
  8
0
  6
Continuous
 62
     7
370
    25
100
AcDbLine
 10
182.4828767123
 20
35.6493623099
 30
0.0
 11
176.351369863
 21
39.1893894399
 31
0.0
  0
LINE
  5
178
330
1F
100
AcDbEntity
  8
0
  6
Continuous
 62
     7
370
    25
100
AcDbLine
 10
182.4828767123
 20
31.6907838389
 30
0.0
 11
181.6230822355
 21
30.2015761208
 31
0.0
  0
LINE
  5
179
330
1F
100
AcDbEntity
  8
0
  6
Continuous
 62
     7
370
    25
100
AcDbLine
 10
182.4828767123
 20
29.7051735482
 30
0.0
 11
182.4828767123
 21
31.6907838389
 31
0.0
  0
LINE
  5
17A
330
1F
100
AcDbEntity
  8
0
  6
Continuous
 62
     7
370
    25
100
AcDbLine
 10
181.6230822355
 20
30.2015761208
 30
0.0
 11
182.4828767123
 21
29.7051735482
 31
0.0
  0
SPLINE
  5
17B
330
1F
100
AcDbEntity
  8
0
  6
Continuous
 62
     7
370
    25
100
AcDbSpline
210
0.0
220
0.0
230
1.0
 70
     8
 71
     3
 72
    11
 73
     7
 74
     0
 42
0.00000001
 43
0.00000001
 40
0.0
 40
0.0
 40
0.0
 40
0.0
 40
0.3325683776611018
 40
0.5901921311365632
 40
0.7910226123570334
 40
0.9999999999999999
 40
0.9999999999999999
 40
0.9999999999999999
 40
0.9999999999999999
 10
197.548180650685
 20
21.34999999999999
 30
0.0
 10
197.7359293113231
 20
21.35600673348572
 30
0.0
 10
198.0691172798225
 20
21.36666657692015
 30
0.0
 10
198.497174443281
 20
21.50708797170216
 30
0.0
 10
198.7952106677614
 20
21.77505220272592
 30
0.0
 10
198.8206096759126
 20
22.01171964683808
 30
0.0
 10
198.8335616438357
 20
22.1324058219178
 30
0.0
  0
LINE
  5
17C
330
1F
100
AcDbEntity
  8
0
  6
Continuous
 62
     7
370
    25
100
AcDbLine
 10
193.4034011606
 20
21.35
 30
0.0
 11
197.5481806507
 21
21.35
 31
0.0
  0
LINE
  5
17D
330
1F
100
AcDbEntity
  8
0
  6
Continuous
 62
     7
370
    25
100
AcDbLine
 10
192.3676585373
 20
21.9479862824
 30
0.0
 11
193.4034011606
 21
21.35
 31
0.0
  0
LINE
  5
17E
330
1F
100
AcDbEntity
  8
0
  6
Continuous
 62
     7
370
    25
100
AcDbLine
 10
193.2554236981
 20
23.4856406461
 30
0.0
 11
192.3676585373
 21
21.9479862824
 31
0.0
  0
LINE
  5
17F
330
1F
100
AcDbEntity
  8
0
  6
Continuous
 62
     7
370
    25
100
AcDbLine
 10
190.7594143263
 20
24.9267123288
 30
0.0
 11
193.2554236981
 21
23.4856406461
 31
0.0
  0
LINE
  5
180
330
1F
100
AcDbEntity
  8
0
  6
Continuous
 62
     7
370
    25
100
AcDbLine
 10
193.7288475341
 20
24.9267123288
 30
0.0
 11
190.7594143263
 21
24.9267123288
 31
0.0
  0
LINE
  5
181
330
1F
100
AcDbEntity
  8
0
  6
Continuous
 62
     7
370
    25
100
AcDbLine
 10
194.0676382508
 20
26.9106912989
 30
0.0
 11
193.7288475341
 21
24.9267123288
 31
0.0
  0
LINE
  5
182
330
1F
100
AcDbEntity
  8
0
  6
Continuous
 62
     7
370
    25
100
AcDbLine
 10
198.8335616438
 20
24.159084145
 30
0.0
 11
194.0676382508
 21
26.9106912989
 31
0.0
  0
LINE
  5
183
330
1F
100
AcDbEntity
  8
0
  6
Continuous
 62
     7
370
    25
100
AcDbLine
 10
198.8335616438
 20
22.1324058219
 30
0.0
 11
198.8335616438
 21
24.159084145
 31
0.0
  0
LINE
  5
184
330
1F
100
AcDbEntity
  8
0
  6
Continuous
 62
     7
370
    25
100
AcDbLine
 10
176.351369863
 20
27.0418166579
 30
0.0
 11
182.5108473963
 21
23.4856406461
 31
0.0
  0
LINE
  5
185
330
1F
100
AcDbEntity
  8
0
  6
Continuous
 62
     7
370
    25
100
AcDbLine
 10
176.351369863
 20
30.9357996014
 30
0.0
 11
176.351369863
 21
27.0418166579
 31
0.0
  0
LINE
  5
186
330
1F
100
AcDbEntity
  8
0
  6
Continuous
 62
     7
370
    25
100
AcDbLine
 10
182.4828767123
 20
27.3957724714
 30
0.0
 11
176.351369863
 21
30.9357996014
 31
0.0
  0
LINE
  5
187
330
1F
100
AcDbEntity
  8
0
  6
Continuous
 62
     7
370
    25
100
AcDbLine
 10
182.4828767123
 20
24.9267123288
 30
0.0
 11
182.4828767123
 21
27.3957724714
 31
0.0
  0
LINE
  5
188
330
1F
100
AcDbEntity
  8
0
  6
Continuous
 62
     7
370
    25
100
AcDbLine
 10
186.5032046714
 20
24.9267123288
 30
0.0
 11
182.4828767123
 21
24.9267123288
 31
0.0
  0
LINE
  5
189
330
1F
100
AcDbEntity
  8
0
  6
Continuous
 62
     7
370
    25
100
AcDbLine
 10
185.6794919243
 20
23.5
 30
0.0
 11
186.5032046714
 21
24.9267123288
 31
0.0
  0
LINE
  5
18A
330
1F
100
AcDbEntity
  8
0
  6
Continuous
 62
     7
370
    25
100
AcDbLine
 10
189.4034011606
 20
21.35
 30
0.0
 11
185.6794919243
 21
23.5
 31
0.0
  0
LINE
  5
18B
330
1F
100
AcDbEntity
  8
0
  6
Continuous
 62
     7
370
    25
100
AcDbLine
 10
182.6588248587
 20
21.35
 30
0.0
 11
189.4034011606
 21
21.35
 31
0.0
  0
LINE
  5
18C
330
1F
100
AcDbEntity
  8
0
  6
Continuous
 62
     7
370
    25
100
AcDbLine
 10
181.6230822355
 20
21.9479862824
 30
0.0
 11
182.6588248587
 21
21.35
 31
0.0
  0
LINE
  5
18D
330
1F
100
AcDbEntity
  8
0
  6
Continuous
 62
     7
370
    25
100
AcDbLine
 10
182.5108473963
 20
23.4856406461
 30
0.0
 11
181.6230822355
 21
21.9479862824
 31
0.0
  0
LINE
  5
18E
330
1F
100
AcDbEntity
  8
0
  6
Continuous
 62
     7
370
    25
100
AcDbLine
 10
110.4674578112
 20
23.5
 30
0.0
 11
110.8410773167
 21
24.1471279662
 31
0.0
  0
LINE
  5
18F
330
1F
100
AcDbEntity
  8
0
  6
Continuous
 62
     7
370
    25
100
AcDbLine
 10
114.239414568
 20
21.3222597511
 30
0.0
 11
110.4674578112
 21
23.5
 31
0.0
  0
SPLINE
  5
190
330
1F
100
AcDbEntity
  8
0
  6
Continuous
 62
     7
370
    25
100
AcDbSpline
210
0.0
220
0.0
230
1.0
 70
     8
 71
     3
 72
     8
 73
     4
 74
     0
 42
0.00000001
 43
0.00000001
 40
0.8823716887390374
 40
0.8823716887390374
 40
0.8823716887390374
 40
0.8823716887390374
 40
0.9004229139839637
 40
0.9004229139839637
 40
0.9004229139839637
 40
0.9004229139839637
 10
113.9714426793461
 20
21.23654263712897
 30
0.0
 10
114.0609905911084
 20
21.2643974270931
 30
0.0
 10
114.1503193770785
 20
21.29296918289486
 30
0.0
 10
114.2394145670871
 20
21.32225975162884
 30
0.0
  0
SPLINE
  5
191
330
1F
100
AcDbEntity
  8
0
  6
Continuous
 62
     7
370
    25
100
AcDbSpline
210
0.0
220
0.0
230
1.0
 70
     8
 71
     3
 72
    11
 73
     7
 74
     0
 42
0.00000001
 43
0.00000001
 40
0.5841579007916228
 40
0.5841579007916228
 40
0.5841579007916228
 40
0.5841579007916228
 40
0.6069540454555158
 40
0.7327498141087452
 40
0.863568408985821
 40
0.9004229139839636
 40
0.9004229139839636
 40
0.9004229139839636
 40
0.9004229139839636
 10
113.9714426793461
 20
21.23654263712897
 30
0.0
 10
113.8583563307363
 20
21.20136597665364
 30
0.0
 10
113.1189486483458
 20
20.97952743486087
 30
0.0
 10
111.7029832351634
 20
20.65344064322515
 30
0.0
 10
110.1901468900523
 20
20.44442418495591
 30
0.0
 10
109.3215300838943
 20
20.38809150046227
 30
0.0
 10
109.130458133498
 20
20.37793418038492
 30
0.0
  0
LINE
  5
192
330
1F
100
AcDbEntity
  8
0
  6
Continuous
 62
     7
370
    25
100
AcDbLine
 10
106.4110481224
 20
21.9479862824
 30
0.0
 11
109.1304581335
 21
20.3779341804
 31
0.0
  0
LINE
  5
193
330
1F
100
AcDbEntity
  8
0
  6
Continuous
 62
     7
370
    25
100
AcDbLine
 10
107.2988132832
 20
23.4856406461
 30
0.0
 11
106.4110481224
 21
21.9479862824
 31
0.0
  0
LINE
  5
194
330
1F
100
AcDbEntity
  8
0
  6
Continuous
 62
     7
370
    25
100
AcDbLine
 10
106.2527431211
 20
24.0895895357
 30
0.0
 11
107.2988132832
 21
23.4856406461
 31
0.0
  0
SPLINE
  5
195
330
1F
100
AcDbEntity
  8
0
  6
Continuous
 62
     7
370
    25
100
AcDbSpline
210
0.0
220
0.0
230
1.0
 70
     8
 71
     3
 72
    10
 73
     6
 74
     0
 42
0.00000001
 43
0.00000001
 40
0.8693520807573439
 40
0.8693520807573439
 40
0.8693520807573439
 40
0.8693520807573439
 40
0.8817474823148944
 40
0.9403033800007519
 40
1.0
 40
1.0
 40
1.0
 40
1.0
 10
106.2527431211142
 20
24.08958953570875
 30
0.0
 10
106.3170031501644
 20
24.07804365314795
 30
0.0
 10
106.6853877469418
 20
24.01491839026839
 30
0.0
 10
107.368903620206
 20
23.9287340049549
 30
0.0
 10
107.9916418296032
 20
23.91282550244657
 30
0.0
 10
108.3060145547945
 20
23.90479452054794
 30
0.0
  0
SPLINE
  5
196
330
1F
100
AcDbEntity
  8
0
  6
Continuous
 62
     7
370
    25
100
AcDbSpline
210
0.0
220
0.0
230
1.0
 70
     8
 71
     3
 72
     9
 73
     5
 74
     0
 42
0.00000001
 43
0.00000001
 40
0.0
 40
0.0
 40
0.0
 40
0.0
 40
0.1342397534876753
 40
0.2392116547612541
 40
0.2392116547612541
 40
0.2392116547612541
 40
0.2392116547612541
 10
108.3060145547945
 20
23.90479452054794
 30
0.0
 10
108.7833202574263
 20
23.91719335753165
 30
0.0
 10
109.6338662692231
 20
23.93928775382581
 30
0.0
 10
110.4754292375806
 20
24.07143325560043
 30
0.0
 10
110.8410773166935
 20
24.14712796617777
 30
0.0
  0
SPLINE
  5
197
330
1F
100
AcDbEntity
  8
0
  6
Continuous
 62
     7
370
    25
100
AcDbSpline
210
0.0
220
0.0
230
1.0
 70
     8
 71
     3
 72
     8
 73
     4
 74
     0
 42
0.00000001
 43
0.00000001
 40
0.167524493639892
 40
0.167524493639892
 40
0.167524493639892
 40
0.167524493639892
 40
0.3033421254296587
 40
0.3033421254296587
 40
0.3033421254296587
 40
0.3033421254296587
 10
120.090630751699
 20
40.73158704029625
 30
0.0
 10
120.1232873489894
 20
40.16101002931226
 30
0.0
 10
120.1345888799742
 20
39.58950544273832
 30
0.0
 10
120.1458904109589
 20
39.01800085616438
 30
0.0
  0
SPLINE
  5
198
330
1F
100
AcDbEntity
  8
0
  6
Continuous
 62
     7
370
    25
100
AcDbSpline
210
0.0
220
0.0
230
1.0
 70
     8
 71
     3
 72
    10
 73
     6
 74
     0
 42
0.00000001
 43
0.00000001
 40
0.1358176317897261
 40
0.1358176317897261
 40
0.1358176317897261
 40
0.1358176317897261
 40
0.1366825126848752
 40
0.2688403810050882
 40
0.3033421253671783
 40
0.3033421253671783
 40
0.3033421253671783
 40
0.3033421253671783
 10
120.0906307516991
 20
40.73158704029574
 30
0.0
 10
120.0904227958783
 20
40.73522045040242
 30
0.0
 10
120.0583050228613
 20
41.29405022755505
 30
0.0
 10
119.9918942636744
 20
41.99669443443663
 30
0.0
 10
119.8894861613653
 20
42.69064171431911
 30
0.0
 10
119.8667860399499
 20
42.83406483286417
 30
0.0
  0
LINE
  5
199
330
1F
100
AcDbEntity
  8
0
  6
Continuous
 62
     7
370
    25
100
AcDbLine
 10
122.0997992739
 20
41.5448340407
 30
0.0
 11
119.8667860393
 21
42.8340648328
 31
0.0
  0
LINE
  5
19A
330
1F
100
AcDbEntity
  8
0
  6
Continuous
 62
     7
370
    25
100
AcDbLine
 10
121.2120341131
 20
40.007179677
 30
0.0
 11
122.0997992739
 21
41.5448340407
 31
0.0
  0
LINE
  5
19B
330
1F
100
AcDbEntity
  8
0
  6
Continuous
 62
     7
370
    25
100
AcDbLine
 10
126.5837481527
 20
36.9058191302
 30
0.0
 11
121.2120341131
 21
40.007179677
 31
0.0
  0
SPLINE
  5
19C
330
1F
100
AcDbEntity
  8
0
  6
Continuous
 62
     7
370
    25
100
AcDbSpline
210
0.0
220
0.0
230
1.0
 70
     8
 71
     3
 72
    10
 73
     6
 74
     0
 42
0.00000001
 43
0.00000001
 40
0.2091509028713364
 40
0.2091509028713364
 40
0.2091509028713364
 40
0.2091509028713364
 40
0.261519288897499
 40
0.3867561920562518
 40
0.4401353643377686
 40
0.4401353643377686
 40
0.4401353643377686
 40
0.4401353643377686
 10
126.5837481527377
 20
36.90581913017255
 30
0.0
 10
126.547542498813
 20
36.64053104214115
 30
0.0
 10
126.4080514969148
 20
35.74287205188436
 30
0.0
 10
126.1629229895579
 20
34.58672177892292
 30
0.0
 10
125.9066252405649
 20
33.71037596483105
 30
0.0
 10
125.8245534900925
 20
33.4501574295616
 30
0.0
  0
LINE
  5
19D
330
1F
100
AcDbEntity
  8
0
  6
Continuous
 62
     7
370
    25
100
AcDbLine
 10
120.0544302475
 20
36.781539637
 30
0.0
 11
125.8245534901
 21
33.4501574296
 31
0.0
  0
SPLINE
  5
19E
330
1F
100
AcDbEntity
  8
0
  6
Continuous
 62
     7
370
    25
100
AcDbSpline
210
0.0
220
0.0
230
1.0
 70
     8
 71
     3
 72
     9
 73
     5
 74
     0
 42
0.00000001
 43
0.00000001
 40
0.7953786861016734
 40
0.7953786861016734
 40
0.7953786861016734
 40
0.7953786861016734
 40
0.859129456431368
 40
0.8733027218302409
 40
0.8733027218302409
 40
0.8733027218302409
 40
0.8733027218302409
 10
120.0544302484852
 20
36.78153963685845
 30
0.0
 10
120.0756899528013
 20
37.01313366768513
 30
0.0
 10
120.0970216040892
 20
37.29658208530871
 30
0.0
 10
120.1114481469078
 20
37.58035967480139
 30
0.0
 10
120.1138666743221
 20
37.63198454577034
 30
0.0
  0
SPLINE
  5
19F
330
1F
100
AcDbEntity
  8
0
  6
Continuous
 62
     7
370
    25
100
AcDbSpline
210
0.0
220
0.0
230
1.0
 70
     8
 71
     3
 72
     8
 73
     4
 74
     0
 42
0.00000001
 43
0.00000001
 40
0.7953786850810846
 40
0.7953786850810846
 40
0.7953786850810846
 40
0.7953786850810846
 40
0.9220759632510761
 40
0.9220759632510761
 40
0.9220759632510761
 40
0.9220759632510761
 10
120.1458904109589
 20
39.01800085616437
 30
0.0
 10
120.1406883607009
 20
38.55573453968739
 30
0.0
 10
120.1354863104428
 20
38.0934682232104
 30
0.0
 10
120.113866674322
 20
37.6319845457678
 30
0.0
  0
SPLINE
  5
1A0
330
1F
100
AcDbEntity
  8
0
  6
Continuous
 62
     7
370
    25
100
AcDbSpline
210
0.0
220
0.0
230
1.0
 70
     8
 71
     3
 72
     9
 73
     5
 74
     0
 42
0.00000001
 43
0.00000001
 40
0.9133820621646211
 40
0.9133820621646211
 40
0.9133820621646211
 40
0.9133820621646211
 40
0.932459015560493
 40
1.0
 40
1.0
 40
1.0
 40
1.0
 10
129.9943604236151
 20
37.24610229423851
 30
0.0
 10
129.9741299709032
 20
37.4399801487261
 30
0.0
 10
129.8948145608617
 20
38.3214714069419
 30
0.0
 10
129.871943482972
 20
39.20627739222941
 30
0.0
 10
129.8541095890411
 20
39.89621147260274
 30
0.0
  0
SPLINE
  5
1A1
330
1F
100
AcDbEntity
  8
0
  6
Continuous
 62
     7
370
    25
100
AcDbSpline
210
0.0
220
0.0
230
1.0
 70
     8
 71
     3
 72
     8
 73
     4
 74
     0
 42
0.00000001
 43
0.00000001
 40
0.0
 40
0.0
 40
0.0
 40
0.0
 40
0.0225001300002275
 40
0.0225001300002275
 40
0.0225001300002275
 40
0.0225001300002275
 10
129.8541095890411
 20
39.89621147260274
 30
0.0
 10
129.8564687907988
 20
40.012083708028
 30
0.0
 10
129.8588279925565
 20
40.12795594345327
 30
0.0
 10
129.861360089889
 20
40.24381753469641
 30
0.0
  0
SPLINE
  5
1A2
330
1F
100
AcDbEntity
  8
0
  6
Continuous
 62
     7
370
    25
100
AcDbSpline
210
0.0
220
0.0
230
1.0
 70
     8
 71
     3
 72
     9
 73
     5
 74
     0
 42
0.00000001
 43
0.00000001
 40
0.0
 40
0.0
 40
0.0
 40
0.0
 40
0.0764630289062169
 40
0.188986615416924
 40
0.188986615416924
 40
0.188986615416924
 40
0.188986615416924
 10
130.0562390616398
 20
43.15456540688373
 30
0.0
 10
130.0042825033454
 20
42.76416862052589
 30
0.0
 10
129.9025536845108
 20
41.79595930812799
 30
0.0
 10
129.8740231577575
 20
40.82324359958513
 30
0.0
 10
129.861360089889
 20
40.24381753469641
 30
0.0
  0
LINE
  5
1A3
330
1F
100
AcDbEntity
  8
0
  6
Continuous
 62
     7
370
    25
100
AcDbLine
 10
132.8443755758
 20
41.5448340407
 30
0.0
 11
130.0562390616
 21
43.1545654076
 31
0.0
  0
LINE
  5
1A4
330
1F
100
AcDbEntity
  8
0
  6
Continuous
 62
     7
370
    25
100
AcDbLine
 10
131.956610415
 20
40.007179677
 30
0.0
 11
132.8443755758
 21
41.5448340407
 31
0.0
  0
LINE
  5
1A5
330
1F
100
AcDbEntity
  8
0
  6
Continuous
 62
     7
370
    25
100
AcDbLine
 10
136.8064925797
 20
37.2070989001
 30
0.0
 11
131.956610415
 21
40.007179677
 31
0.0
  0
SPLINE
  5
1A6
330
1F
100
AcDbEntity
  8
0
  6
Continuous
 62
     7
370
    25
100
AcDbSpline
210
0.0
220
0.0
230
1.0
 70
     8
 71
     3
 72
     9
 73
     5
 74
     0
 42
0.00000001
 43
0.00000001
 40
0.9042500124436158
 40
0.9042500124436158
 40
0.9042500124436158
 40
0.9042500124436158
 40
0.9593013506003369
 40
1.0
 40
1.0
 40
1.0
 40
1.0
 10
136.9494276912826
 20
36.41630476601109
 30
0.0
 10
136.9192895366745
 20
36.56734848956226
 30
0.0
 10
136.869743658906
 20
36.83065402805043
 30
0.0
 10
136.8247663128454
 20
37.0947274268372
 30
0.0
 10
136.8064925797494
 20
37.20709890012667
 30
0.0
  0
SPLINE
  5
1A7
330
1F
100
AcDbEntity
  8
0
  6
Continuous
 62
     7
370
    25
100
AcDbSpline
210
0.0
220
0.0
230
1.0
 70
     8
 71
     3
 72
     9
 73
     5
 74
     0
 42
0.00000001
 43
0.00000001
 40
0.5724960723909532
 40
0.5724960723909532
 40
0.5724960723909532
 40
0.5724960723909532
 40
0.7627325287533749
 40
1.0
 40
1.0
 40
1.0
 40
1.0
 10
136.9494276912827
 20
36.41630476601109
 30
0.0
 10
137.0535736743945
 20
35.89435518792161
 30
0.0
 10
137.3319390652193
 20
34.73063461508956
 30
0.0
 10
137.7394248953465
 20
33.60630762323742
 30
0.0
 10
137.9655821917808
 20
32.98229880136985
 30
0.0
  0
SPLINE
  5
1A8
330
1F
100
AcDbEntity
  8
0
  6
Continuous
 62
     7
370
    25
100
AcDbSpline
210
0.0
220
0.0
230
1.0
 70
     8
 71
     3
 72
     8
 73
     4
 74
     0
 42
0.00000001
 43
0.00000001
 40
0.0
 40
0.0
 40
0.0
 40
0.0
 40
0.0310493592606361
 40
0.0310493592606361
 40
0.0310493592606361
 40
0.0310493592606361
 10
137.9655821917808
 20
32.98229880136985
 30
0.0
 10
138.0300354649893
 20
32.83204921196682
 30
0.0
 10
138.0944887381978
 20
32.68179962256378
 30
0.0
 10
138.159655189696
 20
32.5318671644738
 30
0.0
  0
LINE
  5
1A9
330
1F
100
AcDbEntity
  8
0
  6
Continuous
 62
     7
370
    25
100
AcDbLine
 10
129.9943604236
 20
37.2461022942
 30
0.0
 11
138.1596551897
 21
32.5318671645
 31
0.0
  0
LINE
  5
1AA
330
1F
100
AcDbEntity
  8
0
  6
Continuous
 62
     7
370
    25
100
AcDbLine
 10
100.6106466702
 20
58.0520137176
 30
0.0
 11
100.1218135861
 21
58.3342416303
 31
0.0
  0
LINE
  5
1AB
330
1F
100
AcDbEntity
  8
0
  6
Continuous
 62
     7
370
    25
100
AcDbLine
 10
99.7228815094
 20
56.5143593539
 30
0.0
 11
100.6106466702
 21
58.0520137176
 31
0.0
  0
LINE
  5
1AC
330
1F
100
AcDbEntity
  8
0
  6
Continuous
 62
     7
370
    25
100
AcDbLine
 10
102.2314154826
 20
55.0660565892
 30
0.0
 11
99.7228815094
 21
56.5143593539
 31
0.0
  0
SPLINE
  5
1AD
330
1F
100
AcDbEntity
  8
0
  6
Continuous
 62
     7
370
    25
100
AcDbSpline
210
0.0
220
0.0
230
1.0
 70
     8
 71
     3
 72
    11
 73
     7
 74
     0
 42
0.00000001
 43
0.00000001
 40
0.4684569609149151
 40
0.4684569609149151
 40
0.4684569609149151
 40
0.4684569609149151
 40
0.5556040163620456
 40
0.6782587323238404
 40
0.7992315404364141
 40
0.8251059593410229
 40
0.8251059593410229
 40
0.8251059593410229
 40
0.8251059593410229
 10
99.24854893747852
 20
52.89423244886085
 30
0.0
 10
99.45926072164309
 20
53.1105116391539
 30
0.0
 10
99.98936519948795
 20
53.60968334204737
 30
0.0
 10
100.8934740965635
 20
54.31679997709387
 30
0.0
 10
101.6956002526257
 20
54.7989663245986
 30
0.0
 10
102.1506981087093
 20
55.02697619224436
 30
0.0
 10
102.2314154864008
 20
55.06605659579597
 30
0.0
  0
LINE
  5
1AE
330
1F
100
AcDbEntity
  8
0
  6
Continuous
 62
     7
370
    25
100
AcDbLine
 10
95.6664718205
 20
54.9623456363
 30
0.0
 11
99.2485489375
 21
52.8942324489
 31
0.0
  0
LINE
  5
1AF
330
1F
100
AcDbEntity
  8
0
  6
Continuous
 62
     7
370
    25
100
AcDbLine
 10
96.4695756803
 20
56.3533623252
 30
0.0
 11
95.6664718205
 21
54.9623456363
 31
0.0
  0
SPLINE
  5
1B0
330
1F
100
AcDbEntity
  8
0
  6
Continuous
 62
     7
370
    25
100
AcDbSpline
210
0.0
220
0.0
230
1.0
 70
     8
 71
     3
 72
    11
 73
     7
 74
     0
 42
0.00000001
 43
0.00000001
 40
0.2338598755936613
 40
0.2338598755936613
 40
0.2338598755936613
 40
0.2338598755936613
 40
0.2481091018100071
 40
0.3692887928228032
 40
0.4900395869827778
 40
0.5045276335233561
 40
0.5045276335233561
 40
0.5045276335233561
 40
0.5045276335233561
 10
96.46957568025401
 20
56.35336232515505
 30
0.0
 10
96.5293911789098
 20
56.39541053918727
 30
0.0
 10
97.1002984118542
 20
56.79159800404078
 30
0.0
 10
98.22069140943086
 20
57.48019633244055
 30
0.0
 10
99.40955361683137
 20
58.04730862300558
 30
0.0
 10
100.0527325421683
 20
58.30688309450345
 30
0.0
 10
100.1218135860886
 20
58.3342416303248
 30
0.0
  0
SPLINE
  5
1B1
330
1F
100
AcDbEntity
  8
0
  6
Continuous
 62
     7
370
    25
100
AcDbSpline
210
0.0
220
0.0
230
1.0
 70
     8
 71
     3
 72
     9
 73
     5
 74
     0
 42
0.00000001
 43
0.00000001
 40
0.4471802174977105
 40
0.4471802174977105
 40
0.4471802174977105
 40
0.4471802174977105
 40
0.469675393428483
 40
0.4952076318495306
 40
0.4952076318495306
 40
0.4952076318495306
 40
0.4952076318495306
 10
95.92097043864037
 20
47.14956034872051
 30
0.0
 10
95.89723196765146
 20
47.07117386183565
 30
0.0
 10
95.8477325180947
 20
46.90345718411227
 30
0.0
 10
95.8006425717851
 20
46.73505563650522
 30
0.0
 10
95.77630205381233
 20
46.6453452830303
 30
0.0
  0
LINE
  5
1B2
330
1F
100
AcDbEntity
  8
0
  6
Continuous
 62
     7
370
    25
100
AcDbLine
 10
95.6664718205
 20
46.7087557978
 30
0.0
 11
95.7763020536
 21
46.6453452831
 31
0.0
  0
LINE
  5
1B3
330
1F
100
AcDbEntity
  8
0
  6
Continuous
 62
     7
370
    25
100
AcDbLine
 10
95.9209704454
 20
47.1495603467
 30
0.0
 11
95.6664718205
 21
46.7087557978
 31
0.0
  0
LINE
  5
1B4
330
1F
100
AcDbEntity
  8
0
  6
Continuous
 62
     7
370
    25
100
AcDbLine
 10
99.7228815094
 20
23.5
 30
0.0
 11
100.6106466702
 21
25.0376543637
 31
0.0
  0
LINE
  5
1B5
330
1F
100
AcDbEntity
  8
0
  6
Continuous
 62
     7
370
    25
100
AcDbLine
 10
104.9675216745
 20
20.4720055888
 30
0.0
 11
99.7228815094
 21
23.5
 31
0.0
  0
SPLINE
  5
1B6
330
1F
100
AcDbEntity
  8
0
  6
Continuous
 62
     7
370
    25
100
AcDbSpline
210
0.0
220
0.0
230
1.0
 70
     8
 71
     3
 72
    12
 73
     8
 74
     0
 42
0.00000001
 43
0.00000001
 40
0.0853928204995762
 40
0.0853928204995762
 40
0.0853928204995762
 40
0.0853928204995762
 40
0.1309108860454864
 40
0.1932259840237733
 40
0.25411517560402
 40
0.3142573010663586
 40
0.3230302211642299
 40
0.3230302211642299
 40
0.3230302211642299
 40
0.3230302211642299
 10
104.9675216745282
 20
20.47200558883191
 30
0.0
 10
104.5055300071132
 20
20.52495894863518
 30
0.0
 10
103.415102590093
 20
20.69138026072787
 30
0.0
 10
101.7324112284207
 20
21.07391551295324
 30
0.0
 10
99.95755408160683
 20
21.6835493203548
 30
0.0
 10
98.75478356384681
 20
22.24744012031712
 30
0.0
 10
98.13672212421
 20
22.5849761957416
 30
0.0
 10
98.05838083825833
 20
22.62855308730201
 30
0.0
  0
SPLINE
  5
1B7
330
1F
100
AcDbEntity
  8
0
  6
Continuous
 62
     7
370
    25
100
AcDbSpline
210
0.0
220
0.0
230
1.0
 70
     8
 71
     3
 72
    10
 73
     6
 74
     0
 42
0.00000001
 43
0.00000001
 40
0.3358279594889164
 40
0.3358279594889164
 40
0.3358279594889164
 40
0.3358279594889164
 40
0.3507722336571747
 40
0.4115833363956
 40
0.4631322988169797
 40
0.4631322988169797
 40
0.4631322988169797
 40
0.4631322988169797
 10
94.88250435244605
 20
24.8834080888979
 30
0.0
 10
94.9966092220336
 20
24.78194243459512
 30
0.0
 10
95.58149016201766
 20
24.27489151887264
 30
0.0
 10
96.62014514883235
 20
23.48850721523547
 30
0.0
 10
97.59805383647178
 20
22.88460734522619
 30
0.0
 10
98.0583808382583
 20
22.62855308730203
 30
0.0
  0
SPLINE
  5
1B8
330
1F
100
AcDbEntity
  8
0
  6
Continuous
 62
     7
370
    25
100
AcDbSpline
210
0.0
220
0.0
230
1.0
 70
     8
 71
     3
 72
     9
 73
     5
 74
     0
 42
0.00000001
 43
0.00000001
 40
0.4503345604922948
 40
0.4503345604922948
 40
0.4503345604922948
 40
0.4503345604922948
 40
0.4975089955159832
 40
0.5448965325631122
 40
0.5448965325631122
 40
0.5448965325631122
 40
0.5448965325631122
 10
94.88250435244605
 20
24.88340808889791
 30
0.0
 10
94.52231069595669
 20
25.20370366579577
 30
0.0
 10
93.82575719349957
 20
25.87449776641281
 30
0.0
 10
93.17807835423957
 20
26.59260161450452
 30
0.0
 10
92.86815708751752
 20
26.96459158313021
 30
0.0
  0
SPLINE
  5
1B9
330
1F
100
AcDbEntity
  8
0
  6
Continuous
 62
     7
370
    25
100
AcDbSpline
210
0.0
220
0.0
230
1.0
 70
     8
 71
     3
 72
    10
 73
     6
 74
     0
 42
0.00000001
 43
0.00000001
 40
0.1370788469445107
 40
0.1370788469445107
 40
0.1370788469445107
 40
0.1370788469445107
 40
0.1651623517690518
 40
0.2262518848796087
 40
0.2412659874180988
 40
0.2412659874180988
 40
0.2412659874180988
 40
0.2412659874180988
 10
91.0438646847529
 20
29.58160244828146
 30
0.0
 10
91.1878008095152
 20
29.33334490611404
 30
0.0
 10
91.66286961429647
 20
28.55545048950896
 30
0.0
 10
92.27968743418508
 20
27.68603320320038
 30
0.0
 10
92.76996271052771
 20
27.08245159190596
 30
0.0
 10
92.86815708751752
 20
26.96459158313021
 30
0.0
  0
SPLINE
  5
1BA
330
1F
100
AcDbEntity
  8
0
  6
Continuous
 62
     7
370
    25
100
AcDbSpline
210
0.0
220
0.0
230
1.0
 70
     8
 71
     3
 72
     9
 73
     5
 74
     0
 42
0.00000001
 43
0.00000001
 40
0.6490836730366998
 40
0.6490836730366998
 40
0.6490836730366998
 40
0.6490836730366998
 40
0.6816900346806446
 40
0.7007696994816345
 40
0.7007696994816345
 40
0.7007696994816345
 40
0.7007696994816345
 10
91.04386468475292
 20
29.58160244828144
 30
0.0
 10
90.87674760421226
 20
29.86984194158265
 30
0.0
 10
90.62397592104811
 20
30.33373946985009
 30
0.0
 10
90.39215215951924
 20
30.80842554408551
 30
0.0
 10
90.30949788056786
 20
30.98502539033591
 30
0.0
  0
LINE
  5
1BB
330
1F
100
AcDbEntity
  8
0
  6
Continuous
 62
     7
370
    25
100
AcDbLine
 10
100.6106466702
 20
25.0376543637
 30
0.0
 11
90.3094978806
 21
30.9850253903
 31
0.0
  0
LINE
  5
1BC
330
1F
100
AcDbEntity
  8
0
  6
Continuous
 62
     7
370
    25
100
AcDbLine
 10
89.5810144404
 20
32.797512852
 30
0.0
 11
89.8660703683
 21
33.2912442022
 31
0.0
  0
SPLINE
  5
1BD
330
1F
100
AcDbEntity
  8
0
  6
Continuous
 62
     7
370
    25
100
AcDbSpline
210
0.0
220
0.0
230
1.0
 70
     8
 71
     3
 72
     8
 73
     4
 74
     0
 42
0.00000001
 43
0.00000001
 40
0.7645232198858404
 40
0.7645232198858404
 40
0.7645232198858404
 40
0.7645232198858404
 40
0.7920543502136724
 40
0.7920543502136724
 40
0.7920543502136724
 40
0.7920543502136724
 10
89.58101444035005
 20
32.79751285200955
 30
0.0
 10
89.49057898443085
 20
33.06388707801351
 30
0.0
 10
89.40614098750613
 20
33.33231700281797
 30
0.0
 10
89.32719857998967
 20
33.60236197422255
 30
0.0
  0
LINE
  5
1BE
330
1F
100
AcDbEntity
  8
0
  6
Continuous
 62
     7
370
    25
100
AcDbLine
 10
89.8660703683
 20
33.2912442022
 30
0.0
 11
89.32719858
 21
33.6023619742
 31
0.0
  0
LINE
  5
1BF
330
1F
100
AcDbEntity
  8
0
  6
Continuous
 62
     7
370
    25
100
AcDbLine
 10
63.7211848605
 20
52.4864125246
 30
0.0
 11
59.6245838466
 21
54.8515862227
 31
0.0
  0
SPLINE
  5
1C0
330
1F
100
AcDbEntity
  8
0
  6
Continuous
 62
     7
370
    25
100
AcDbSpline
210
0.0
220
0.0
230
1.0
 70
     8
 71
     3
 72
    11
 73
     7
 74
     0
 42
0.00000001
 43
0.00000001
 40
0.4758100877903647
 40
0.4758100877903647
 40
0.4758100877903647
 40
0.4758100877903647
 40
0.498384141213134
 40
0.5554633361133978
 40
0.6130580722356211
 40
0.6192343881912978
 40
0.6192343881912978
 40
0.6192343881912978
 40
0.6192343881912978
 10
63.72118486050639
 20
52.48641252458592
 30
0.0
 10
63.58924245178908
 20
52.36427734005394
 30
0.0
 10
63.13325767751696
 20
51.92299077491199
 30
0.0
 10
62.4089351723742
 20
51.10191665022248
 30
0.0
 10
61.85549810277188
 20
50.31260200443931
 30
0.0
 10
61.58928793138003
 20
49.88006540083531
 30
0.0
 10
61.5637458486904
 20
49.83802758467461
 30
0.0
  0
LINE
  5
1C1
330
1F
100
AcDbEntity
  8
0
  6
Continuous
 62
     7
370
    25
100
AcDbLine
 10
57.098823152
 20
52.4158518962
 30
0.0
 11
61.5637458487
 21
49.8380275847
 31
0.0
  0
SPLINE
  5
1C2
330
1F
100
AcDbEntity
  8
0
  6
Continuous
 62
     7
370
    25
100
AcDbSpline
210
0.0
220
0.0
230
1.0
 70
     8
 71
     3
 72
     9
 73
     5
 74
     0
 42
0.00000001
 43
0.00000001
 40
0.4114865942065916
 40
0.4114865942065916
 40
0.4114865942065916
 40
0.4114865942065916
 40
0.4233054935755372
 40
0.4290268198645141
 40
0.4290268198645141
 40
0.4290268198645141
 40
0.4290268198645141
 10
57.09882315201504
 20
52.41585189619916
 30
0.0
 10
57.18255416549345
 20
52.51504396319618
 30
0.0
 10
57.30864215574608
 20
52.66068447709202
 30
0.0
 10
57.43771838737565
 20
52.80365713523287
 30
0.0
 10
57.48011816602741
 20
52.85002308755703
 30
0.0
  0
SPLINE
  5
1C3
330
1F
100
AcDbEntity
  8
0
  6
Continuous
 62
     7
370
    25
100
AcDbSpline
210
0.0
220
0.0
230
1.0
 70
     8
 71
     3
 72
    10
 73
     6
 74
     0
 42
0.00000001
 43
0.00000001
 40
0.4114865942067608
 40
0.4114865942067608
 40
0.4114865942067608
 40
0.4114865942067608
 40
0.4276117696749659
 40
0.4668975327411132
 40
0.5005940404326443
 40
0.5005940404326443
 40
0.5005940404326443
 40
0.5005940404326443
 10
59.62458385481642
 20
54.8515862179832
 30
0.0
 10
59.48611287743447
 20
54.74116822406967
 30
0.0
 10
59.01556050328968
 20
54.35523767386677
 30
0.0
 10
58.2930312945297
 20
53.69432003398349
 30
0.0
 10
57.72983726878353
 20
53.12310149459113
 30
0.0
 10
57.48011816602741
 20
52.85002308755703
 30
0.0
  0
SPLINE
  5
1C4
330
1F
100
AcDbEntity
  8
0
  6
Continuous
 62
     7
370
    25
100
AcDbSpline
210
0.0
220
0.0
230
1.0
 70
     8
 71
     3
 72
    10
 73
     6
 74
     0
 42
0.00000001
 43
0.00000001
 40
0.0194373243124416
 40
0.0194373243124416
 40
0.0194373243124416
 40
0.0194373243124416
 40
0.1149912351548613
 40
0.2308325787387938
 40
0.3290674776225577
 40
0.3290674776225577
 40
0.3290674776225577
 40
0.3290674776225577
 10
97.95835218066509
 20
51.32972681664123
 30
0.0
 10
97.76119000538421
 20
51.04304657224314
 30
0.0
 10
97.32986885701868
 20
50.40574675813757
 30
0.0
 10
96.7913470764617
 20
49.4133837645233
 30
0.0
 10
96.47631972577206
 20
48.69993567185181
 30
0.0
 10
96.34432652631891
 20
48.36760201920213
 30
0.0
  0
LINE
  5
1C5
330
1F
100
AcDbEntity
  8
0
  6
Continuous
 62
     7
370
    25
100
AcDbLine
 10
91.5235809842
 20
51.1508607556
 30
0.0
 11
96.3443265263
 21
48.3676020192
 31
0.0
  0
SPLINE
  5
1C6
330
1F
100
AcDbEntity
  8
0
  6
Continuous
 62
     7
370
    25
100
AcDbSpline
210
0.0
220
0.0
230
1.0
 70
     8
 71
     3
 72
     8
 73
     4
 74
     0
 42
0.00000001
 43
0.00000001
 40
0.7654609578477997
 40
0.7654609578477997
 40
0.7654609578477997
 40
0.7654609578477997
 40
0.8477582495635232
 40
0.8477582495635232
 40
0.8477582495635232
 40
0.8477582495635232
 10
91.52358098423011
 20
51.15086075562193
 30
0.0
 10
91.75153704940664
 20
51.50839750329739
 30
0.0
 10
91.99170872755002
 20
51.85822446550794
 30
0.0
 10
92.24508818975069
 20
52.19787052772627
 30
0.0
  0
SPLINE
  5
1C7
330
1F
100
AcDbEntity
  8
0
  6
Continuous
 62
     7
370
    25
100
AcDbSpline
210
0.0
220
0.0
230
1.0
 70
     8
 71
     3
 72
     9
 73
     5
 74
     0
 42
0.00000001
 43
0.00000001
 40
0.7654609578477997
 40
0.7654609578477997
 40
0.7654609578477997
 40
0.7654609578477997
 40
0.8744207427679773
 40
0.9038657634678582
 40
0.9038657634678582
 40
0.9038657634678582
 40
0.9038657634678582
 10
93.61685270983801
 20
53.83629270480986
 30
0.0
 10
93.2422492598744
 20
53.41825482857016
 30
0.0
 10
92.76981679930913
 20
52.88447122696882
 30
0.0
 10
92.33574443558673
 20
52.31939196693958
 30
0.0
 10
92.24508818975067
 20
52.19787052772627
 30
0.0
  0
LINE
  5
1C8
330
1F
100
AcDbEntity
  8
0
  6
Continuous
 62
     7
370
    25
100
AcDbLine
 10
97.9583521807
 20
51.3297268166
 30
0.0
 11
93.6168527098
 21
53.8362927048
 31
0.0
  0
SPLINE
  5
1C9
330
1F
100
AcDbEntity
  8
0
  6
Continuous
 62
     7
370
    25
100
AcDbSpline
210
0.0
220
0.0
230
1.0
 70
     8
 71
     3
 72
    10
 73
     6
 74
     0
 42
0.00000001
 43
0.00000001
 40
0.7569633880405076
 40
0.7569633880405076
 40
0.7569633880405076
 40
0.7569633880405076
 40
0.7755319759145117
 40
0.8975692297882447
 40
1.0
 40
1.0
 40
1.0
 40
1.0
 10
81.87471602936905
 20
58.77184135295833
 30
0.0
 10
81.93496536253772
 20
58.7604323194458
 30
0.0
 10
82.39126222752095
 20
58.67445495700693
 30
0.0
 10
83.18167362354136
 20
58.5354872202593
 30
0.0
 10
83.91047299523545
 20
58.40031645679142
 30
0.0
 10
84.24304366438356
 20
58.33863441780821
 30
0.0
  0
SPLINE
  5
1CA
330
1F
100
AcDbEntity
  8
0
  6
Continuous
 62
     7
370
    25
100
AcDbSpline
210
0.0
220
0.0
230
1.0
 70
     8
 71
     3
 72
    11
 73
     7
 74
     0
 42
0.00000001
 43
0.00000001
 40
0.0
 40
0.0
 40
0.0
 40
0.0
 40
0.1777697632536465
 40
0.381969659470049
 40
0.6523917208669152
 40
1.0
 40
1.0
 40
1.0
 40
1.0
 10
85.40068493150685
 20
57.57219606164382
 30
0.0
 10
85.38534966198935
 20
57.6616780799139
 30
0.0
 10
85.35239913334904
 20
57.85394596294274
 30
0.0
 10
85.09230159908896
 20
58.0800869070453
 30
0.0
 10
84.71364752418704
 20
58.23504882792364
 30
0.0
 10
84.41245051548566
 20
58.30134592508479
 30
0.0
 10
84.24304366438356
 20
58.33863441780821
 30
0.0
  0
LINE
  5
1CB
330
1F
100
AcDbEntity
  8
0
  6
Continuous
 62
     7
370
    25
100
AcDbLine
 10
85.4006849315
 20
56.7361222582
 30
0.0
 11
85.4006849315
 21
57.5721960616
 31
0.0
  0
LINE
  5
1CC
330
1F
100
AcDbEntity
  8
0
  6
Continuous
 62
     7
370
    25
100
AcDbLine
 10
81.8747160294
 20
58.771841353
 30
0.0
 11
85.4006849315
 21
56.7361222582
 31
0.0
  0
LINE
  5
1CD
330
1F
100
AcDbEntity
  8
0
  6
Continuous
 62
     7
370
    25
100
AcDbLine
 10
118.0357756705
 20
29.6934205619
 30
0.0
 11
122.45425579
 21
27.1424098755
 31
0.0
  0
SPLINE
  5
1CE
330
1F
100
AcDbEntity
  8
0
  6
Continuous
 62
     7
370
    25
100
AcDbSpline
210
0.0
220
0.0
230
1.0
 70
     8
 71
     3
 72
    12
 73
     8
 74
     0
 42
0.00000001
 43
0.00000001
 40
0.1171776966493891
 40
0.1171776966493891
 40
0.1171776966493891
 40
0.1171776966493891
 40
0.230143813470948
 40
0.3480230850790836
 40
0.4694223122736298
 40
0.5951009096398251
 40
0.5979716112502493
 40
0.5979716112502493
 40
0.5979716112502493
 40
0.5979716112502493
 10
118.0357756705772
 20
29.69342056183336
 30
0.0
 10
118.2355150981443
 20
30.05357921597061
 30
0.0
 10
118.6007094179984
 20
30.81394678502542
 30
0.0
 10
119.0823969923654
 20
32.00589099177063
 30
0.0
 10
119.4716106875184
 20
33.28056838917172
 30
0.0
 10
119.6722102080195
 20
34.17070183298587
 30
0.0
 10
119.7585521873317
 20
34.63156220927982
 30
0.0
 10
119.7604719994197
 20
34.64185543383483
 30
0.0
  0
LINE
  5
1CF
330
1F
100
AcDbEntity
  8
0
  6
Continuous
 62
     7
370
    25
100
AcDbLine
 10
122.0997992739
 20
33.2912442022
 30
0.0
 11
119.7604719994
 21
34.6418554338
 31
0.0
  0
LINE
  5
1D0
330
1F
100
AcDbEntity
  8
0
  6
Continuous
 62
     7
370
    25
100
AcDbLine
 10
121.2120341131
 20
31.7535898385
 30
0.0
 11
122.0997992739
 21
33.2912442022
 31
0.0
  0
LINE
  5
1D1
330
1F
100
AcDbEntity
  8
0
  6
Continuous
 62
     7
370
    25
100
AcDbLine
 10
124.3373326269
 20
29.9491979002
 30
0.0
 11
121.2120341131
 21
31.7535898385
 31
0.0
  0
SPLINE
  5
1D2
330
1F
100
AcDbEntity
  8
0
  6
Continuous
 62
     7
370
    25
100
AcDbSpline
210
0.0
220
0.0
230
1.0
 70
     8
 71
     3
 72
    10
 73
     6
 74
     0
 42
0.00000001
 43
0.00000001
 40
0.6885791036792105
 40
0.6885791036792105
 40
0.6885791036792105
 40
0.6885791036792105
 40
0.7525397572617479
 40
0.8750384503308644
 40
0.909281999201058
 40
0.909281999201058
 40
0.909281999201058
 40
0.909281999201058
 10
124.3373326269122
 20
29.94919790023343
 30
0.0
 10
124.1793648637245
 20
29.66295353353032
 30
0.0
 10
123.6972583862526
 20
28.84008960075909
 30
0.0
 10
123.0636943328135
 20
27.90413691465455
 30
0.0
 10
122.5649158912388
 20
27.27789286940414
 30
0.0
 10
122.4542557899268
 20
27.14240987552622
 30
0.0
  0
SPLINE
  5
1D3
330
1F
100
AcDbEntity
  8
0
  6
Continuous
 62
     7
370
    25
100
AcDbSpline
210
0.0
220
0.0
230
1.0
 70
     8
 71
     3
 72
     8
 73
     4
 74
     0
 42
0.00000001
 43
0.00000001
 40
0.0
 40
0.0
 40
0.0
 40
0.0
 40
0.0438459049547272
 40
0.0438459049547272
 40
0.0438459049547272
 40
0.0438459049547272
 10
95.10890410958903
 20
41.18957619863014
 30
0.0
 10
95.11199037638582
 20
41.06699126712081
 30
0.0
 10
95.11507664318259
 20
40.94440633561147
 30
0.0
 10
95.11834355588746
 20
40.82183377871657
 30
0.0
  0
LINE
  5
1D4
330
1F
100
AcDbEntity
  8
0
  6
Continuous
 62
     7
370
    25
100
AcDbLine
 10
88.8756396708
 20
44.4260605472
 30
0.0
 11
95.1183435559
 21
40.8218337787
 31
0.0
  0
SPLINE
  5
1D5
330
1F
100
AcDbEntity
  8
0
  6
Continuous
 62
     7
370
    25
100
AcDbSpline
210
0.0
220
0.0
230
1.0
 70
     8
 71
     3
 72
    10
 73
     6
 74
     0
 42
0.00000001
 43
0.00000001
 40
0.294860997262062
 40
0.294860997262062
 40
0.294860997262062
 40
0.294860997262062
 40
0.3911889551749905
 40
0.5139639201596016
 40
0.5202541095133854
 40
0.5202541095133854
 40
0.5202541095133854
 40
0.5202541095133854
 10
88.87563967084245
 20
44.4260605472184
 30
0.0
 10
88.96942829086365
 20
44.91326705389532
 30
0.0
 10
89.22035465185976
 20
46.01390635849413
 30
0.0
 10
89.5788553167054
 20
47.11939827504177
 30
0.0
 10
89.8146490959452
 20
47.74096420464336
 30
0.0
 10
89.82621366894216
 20
47.77122933698549
 30
0.0
  0
LINE
  5
1D6
330
1F
100
AcDbEntity
  8
0
  6
Continuous
 62
     7
370
    25
100
AcDbLine
 10
95.3468222248
 20
44.5839045012
 30
0.0
 11
89.8262136689
 21
47.771229337
 31
0.0
  0
SPLINE
  5
1D7
330
1F
100
AcDbEntity
  8
0
  6
Continuous
 62
     7
370
    25
100
AcDbSpline
210
0.0
220
0.0
230
1.0
 70
     8
 71
     3
 72
     9
 73
     5
 74
     0
 42
0.00000001
 43
0.00000001
 40
0.6881423029879381
 40
0.6881423029879381
 40
0.6881423029879381
 40
0.6881423029879381
 40
0.7244167878643415
 40
0.8143796552407446
 40
0.8143796552407446
 40
0.8143796552407446
 40
0.8143796552407446
 10
95.34682222498006
 20
44.5839045025791
 30
0.0
 10
95.32743178474706
 20
44.45327680386464
 30
0.0
 10
95.26453297734793
 20
43.99798552817841
 30
0.0
 10
95.2167279554235
 20
43.54075849964372
 30
0.0
 10
95.19045666989595
 20
43.21434761871635
 30
0.0
  0
SPLINE
  5
1D8
330
1F
100
AcDbEntity
  8
0
  6
Continuous
 62
     7
370
    25
100
AcDbSpline
210
0.0
220
0.0
230
1.0
 70
     8
 71
     3
 72
     9
 73
     5
 74
     0
 42
0.00000001
 43
0.00000001
 40
0.7984822001783624
 40
0.7984822001783624
 40
0.7984822001783624
 40
0.7984822001783624
 40
0.8286065721153512
 40
0.8737626477476732
 40
0.8737626477476732
 40
0.8737626477476732
 40
0.8737626477476732
 10
95.1407673017271
 20
42.39397225311619
 30
0.0
 10
95.14535812693893
 20
42.50350046618848
 30
0.0
 10
95.1585612214337
 20
42.77713077827132
 30
0.0
 10
95.17727002755336
 20
43.0505085275919
 30
0.0
 10
95.19045666989634
 20
43.21434761872157
 30
0.0
  0
SPLINE
  5
1D9
330
1F
100
AcDbEntity
  8
0
  6
Continuous
 62
     7
370
    25
100
AcDbSpline
210
0.0
220
0.0
230
1.0
 70
     8
 71
     3
 72
     8
 73
     4
 74
     0
 42
0.00000001
 43
0.00000001
 40
0.889660102810816
 40
0.889660102810816
 40
0.889660102810816
 40
0.889660102810816
 40
1.0
 40
1.0
 40
1.0
 40
1.0
 10
95.14076730172653
 20
42.39397225310267
 30
0.0
 10
95.12395197415914
 20
41.9927910502218
 30
0.0
 10
95.11642804187409
 20
41.59118362442597
 30
0.0
 10
95.10890410958902
 20
41.18957619863014
 30
0.0
  0
SPLINE
  5
1DA
330
1F
100
AcDbEntity
  8
0
  6
Continuous
 62
     7
370
    25
100
AcDbSpline
210
0.0
220
0.0
230
1.0
 70
     8
 71
     3
 72
     9
 73
     5
 74
     0
 42
0.00000001
 43
0.00000001
 40
0.880739923719098
 40
0.880739923719098
 40
0.880739923719098
 40
0.880739923719098
 40
0.932459015560493
 40
1.0
 40
1.0
 40
1.0
 40
1.0
 10
88.73491458872415
 20
36.25371837277491
 30
0.0
 10
88.65425514798976
 20
36.77606750524998
 30
0.0
 10
88.5157623381985
 20
37.98803054941336
 30
0.0
 10
88.48427225009523
 20
39.20627739222941
 30
0.0
 10
88.46643835616437
 20
39.89621147260274
 30
0.0
  0
SPLINE
  5
1DB
330
1F
100
AcDbEntity
  8
0
  6
Continuous
 62
     7
370
    25
100
AcDbSpline
210
0.0
220
0.0
230
1.0
 70
     8
 71
     3
 72
     8
 73
     4
 74
     0
 42
0.00000001
 43
0.00000001
 40
0.0
 40
0.0
 40
0.0
 40
0.0
 40
0.0461998752291015
 40
0.0461998752291015
 40
0.0461998752291015
 40
0.0461998752291015
 10
88.46643835616437
 20
39.89621147260274
 30
0.0
 10
88.47128254270217
 20
40.13413377878987
 30
0.0
 10
88.47612672924
 20
40.372056084977
 30
0.0
 10
88.48246767245291
 20
40.60988624449896
 30
0.0
  0
SPLINE
  5
1DC
330
1F
100
AcDbEntity
  8
0
  6
Continuous
 62
     7
370
    25
100
AcDbSpline
210
0.0
220
0.0
230
1.0
 70
     8
 71
     3
 72
     9
 73
     5
 74
     0
 42
0.00000001
 43
0.00000001
 40
0.0
 40
0.0
 40
0.0
 40
0.0
 40
0.0202730939225313
 40
0.1090969352041376
 40
0.1090969352041376
 40
0.1090969352041376
 40
0.1090969352041376
 10
88.57198788172094
 20
42.29197291264912
 30
0.0
 10
88.56258954712243
 20
42.18802981520081
 30
0.0
 10
88.51642769126505
 20
41.62833492813709
 30
0.0
 10
88.49465876454425
 20
41.06713830928839
 30
0.0
 10
88.48246767245301
 20
40.60988624450247
 30
0.0
  0
LINE
  5
1DD
330
1F
100
AcDbEntity
  8
0
  6
Continuous
 62
     7
370
    25
100
AcDbLine
 10
89.8660703683
 20
41.5448340407
 30
0.0
 11
88.5719878817
 21
42.2919729126
 31
0.0
  0
LINE
  5
1DE
330
1F
100
AcDbEntity
  8
0
  6
Continuous
 62
     7
370
    25
100
AcDbLine
 10
88.9783052075
 20
40.007179677
 30
0.0
 11
89.8660703683
 21
41.5448340407
 31
0.0
  0
LINE
  5
1DF
330
1F
100
AcDbEntity
  8
0
  6
Continuous
 62
     7
370
    25
100
AcDbLine
 10
95.6107772547
 20
36.1779201551
 30
0.0
 11
88.9783052075
 21
40.007179677
 31
0.0
  0
SPLINE
  5
1E0
330
1F
100
AcDbEntity
  8
0
  6
Continuous
 62
     7
370
    25
100
AcDbSpline
210
0.0
220
0.0
230
1.0
 70
     8
 71
     3
 72
     9
 73
     5
 74
     0
 42
0.00000001
 43
0.00000001
 40
0.6014939719565556
 40
0.6014939719565556
 40
0.6014939719565556
 40
0.6014939719565556
 40
0.7627325287533755
 40
1.0
 40
1.0
 40
1.0
 40
1.0
 10
95.61077725469616
 20
36.17792015511973
 30
0.0
 10
95.70425997574776
 20
35.73666442746102
 30
0.0
 10
95.97190788992646
 20
34.65437070478827
 30
0.0
 10
96.3517536624698
 20
33.60630762323742
 30
0.0
 10
96.5779109589041
 20
32.98229880136985
 30
0.0
  0
SPLINE
  5
1E1
330
1F
100
AcDbEntity
  8
0
  6
Continuous
 62
     7
370
    25
100
AcDbSpline
210
0.0
220
0.0
230
1.0
 70
     8
 71
     3
 72
    13
 73
     9
 74
     0
 42
0.00000001
 43
0.00000001
 40
0.0
 40
0.0
 40
0.0
 40
0.0
 40
0.0728760053696777
 40
0.1434021311990745
 40
0.2118024227385283
 40
0.2781108367246567
 40
0.3426126741865229
 40
0.3778988468695627
 40
0.3778988468695627
 40
0.3778988468695627
 40
0.3778988468695627
 10
96.5779109589041
 20
32.98229880136985
 30
0.0
 10
96.72918934906369
 20
32.62964772756786
 30
0.0
 10
97.02686817274781
 20
31.93571677874157
 30
0.0
 10
97.51927105035294
 20
30.93424349586082
 30
0.0
 10
98.06373621698408
 20
29.99986708629948
 30
0.0
 10
98.64709379788047
 20
29.1275579090341
 30
0.0
 10
99.17934522986582
 20
28.43241255628507
 30
0.0
 10
99.52647046469686
 20
28.03789927773718
 30
0.0
 10
99.65176534253793
 20
27.90066583073166
 30
0.0
  0
LINE
  5
1E2
330
1F
100
AcDbEntity
  8
0
  6
Continuous
 62
     7
370
    25
100
AcDbLine
 10
95.6664718205
 20
30.2015761208
 30
0.0
 11
99.6517653425
 21
27.9006658307
 31
0.0
  0
LINE
  5
1E3
330
1F
100
AcDbEntity
  8
0
  6
Continuous
 62
     7
370
    25
100
AcDbLine
 10
96.5542369813
 20
31.7392304845
 30
0.0
 11
95.6664718205
 21
30.2015761208
 31
0.0
  0
LINE
  5
1E4
330
1F
100
AcDbEntity
  8
0
  6
Continuous
 62
     7
370
    25
100
AcDbLine
 10
88.7349145887
 20
36.2537183728
 30
0.0
 11
96.5542369813
 21
31.7392304845
 31
0.0
  0
LINE
  5
1E5
330
1F
100
AcDbEntity
  8
0
  6
Continuous
 62
     7
370
    25
100
AcDbLine
 10
78.2337289056
 20
56.5143593539
 30
0.0
 11
79.1214940664
 21
58.0520137176
 31
0.0
  0
LINE
  5
1E6
330
1F
100
AcDbEntity
  8
0
  6
Continuous
 62
     7
370
    25
100
AcDbLine
 10
85.4006849315
 20
52.3765153631
 30
0.0
 11
78.2337289056
 21
56.5143593539
 31
0.0
  0
LINE
  5
1E7
330
1F
100
AcDbEntity
  8
0
  6
Continuous
 62
     7
370
    25
100
AcDbLine
 10
85.4006849315
 20
49.2132277397
 30
0.0
 11
85.4006849315
 21
52.3765153631
 31
0.0
  0
SPLINE
  5
1E8
330
1F
100
AcDbEntity
  8
0
  6
Continuous
 62
     7
370
    25
100
AcDbSpline
210
0.0
220
0.0
230
1.0
 70
     8
 71
     3
 72
     9
 73
     5
 74
     0
 42
0.00000001
 43
0.00000001
 40
0.0
 40
0.0
 40
0.0
 40
0.0
 40
0.2073000859083815
 40
0.3868520756302221
 40
0.3868520756302221
 40
0.3868520756302221
 40
0.3868520756302221
 10
85.40068493150686
 20
49.21322773972602
 30
0.0
 10
85.38806930037317
 20
49.09215088950243
 30
0.0
 10
85.36452669995381
 20
48.86620389765957
 30
0.0
 10
85.19475248463078
 20
48.70966322337718
 30
0.0
 10
85.10734039942452
 20
48.65189496423986
 30
0.0
  0
LINE
  5
1E9
330
1F
100
AcDbEntity
  8
0
  6
Continuous
 62
     7
370
    25
100
AcDbLine
 10
80.9508337512
 20
51.0516551965
 30
0.0
 11
85.1073403994
 21
48.6518949642
 31
0.0
  0
LINE
  5
1EA
330
1F
100
AcDbEntity
  8
0
  6
Continuous
 62
     7
370
    25
100
AcDbLine
 10
80.2001069615
 20
55.0940302177
 30
0.0
 11
80.9508337512
 21
51.0516551965
 31
0.0
  0
SPLINE
  5
1EB
330
1F
100
AcDbEntity
  8
0
  6
Continuous
 62
     7
370
    25
100
AcDbSpline
210
0.0
220
0.0
230
1.0
 70
     8
 71
     3
 72
    11
 73
     7
 74
     0
 42
0.00000001
 43
0.00000001
 40
0.4936165845621452
 40
0.4936165845621452
 40
0.4936165845621452
 40
0.4936165845621452
 40
0.5836285040780148
 40
0.7125130167464414
 40
0.8291859509441654
 40
0.9015781426639824
 40
0.9015781426639824
 40
0.9015781426639824
 40
0.9015781426639824
 10
77.74505723973809
 20
55.659070929878
 30
0.0
 10
77.92610583815406
 20
55.6196581330848
 30
0.0
 10
78.36548015215314
 20
55.51979565330026
 30
0.0
 10
79.03654838277158
 20
55.35595813109752
 30
0.0
 10
79.675351593068
 20
55.21351857633559
 30
0.0
 10
80.05482003180703
 20
55.12714474984346
 30
0.0
 10
80.20010696153588
 20
55.09403021765375
 30
0.0
  0
SPLINE
  5
1EC
330
1F
100
AcDbEntity
  8
0
  6
Continuous
 62
     7
370
    25
100
AcDbSpline
210
0.0
220
0.0
230
1.0
 70
     8
 71
     3
 72
    12
 73
     8
 74
     0
 42
0.00000001
 43
0.00000001
 40
0.4230740670305822
 40
0.4230740670305822
 40
0.4230740670305822
 40
0.4230740670305822
 40
0.4641774513102138
 40
0.5970466509970503
 40
0.7354550655212074
 40
0.8719481841989194
 40
0.9015781426641014
 40
0.9015781426641014
 40
0.9015781426641014
 40
0.9015781426641014
 10
77.74505723973645
 20
55.65907092987835
 30
0.0
 10
77.6623825211658
 20
55.67706853887101
 30
0.0
 10
77.31212623652232
 20
55.75178698150233
 30
0.0
 10
76.68039871410734
 20
55.87344535734008
 30
0.0
 10
75.84844432083814
 20
55.98456512062518
 30
0.0
 10
75.22546339379184
 20
56.0603243374216
 30
0.0
 10
74.88416084576505
 20
56.07846217458169
 30
0.0
 10
74.82324981729654
 20
56.08113025460091
 30
0.0
  0
LINE
  5
1ED
330
1F
100
AcDbEntity
  8
0
  6
Continuous
 62
     7
370
    25
100
AcDbLine
 10
75.0650843776
 20
56.5
 30
0.0
 11
74.8232498173
 21
56.0811302546
 31
0.0
  0
LINE
  5
1EE
330
1F
100
AcDbEntity
  8
0
  6
Continuous
 62
     7
370
    25
100
AcDbLine
 10
70.1606142479
 20
59.3315971496
 30
0.0
 11
75.0650843776
 21
56.5
 31
0.0
  0
SPLINE
  5
1EF
330
1F
100
AcDbEntity
  8
0
  6
Continuous
 62
     7
370
    25
100
AcDbSpline
210
0.0
220
0.0
230
1.0
 70
     8
 71
     3
 72
    11
 73
     7
 74
     0
 42
0.00000001
 43
0.00000001
 40
0.9015667227517883
 40
0.9015667227517883
 40
0.9015667227517883
 40
0.9015667227517883
 40
0.9129911621021596
 40
0.9559998050313343
 40
0.9990452990647771
 40
1.0
 40
1.0
 40
1.0
 40
1.0
 10
73.3860462200542
 20
59.64654772039374
 30
0.0
 10
73.26065452413205
 20
59.64238343483876
 30
0.0
 10
72.66329675177728
 20
59.61962480814981
 30
0.0
 10
71.59454282768509
 20
59.54508087718776
 30
0.0
 10
70.64812386331225
 20
59.41014114102655
 30
0.0
 10
70.1709667423715
 20
59.33326921096071
 30
0.0
 10
70.16061424789338
 20
59.33159714959481
 30
0.0
  0
SPLINE
  5
1F0
330
1F
100
AcDbEntity
  8
0
  6
Continuous
 62
     7
370
    25
100
AcDbSpline
210
0.0
220
0.0
230
1.0
 70
     8
 71
     3
 72
     8
 73
     4
 74
     0
 42
0.00000001
 43
0.00000001
 40
0.9680297439709039
 40
0.9680297439709039
 40
0.9680297439709039
 40
0.9680297439709039
 40
1.0
 40
1.0
 40
1.0
 40
1.0
 10
73.3860462200536
 20
59.64654772039373
 30
0.0
 10
73.73694349383736
 20
59.65820109534617
 30
0.0
 10
74.08798159280909
 20
59.66505945178266
 30
0.0
 10
74.43901969178083
 20
59.67191780821916
 30
0.0
  0
SPLINE
  5
1F1
330
1F
100
AcDbEntity
  8
0
  6
Continuous
 62
     7
370
    25
100
AcDbSpline
210
0.0
220
0.0
230
1.0
 70
     8
 71
     3
 72
     9
 73
     5
 74
     0
 42
0.00000001
 43
0.00000001
 40
0.0
 40
0.0
 40
0.0
 40
0.0
 40
0.1120688583236935
 40
0.2096479578536738
 40
0.2096479578536738
 40
0.2096479578536738
 40
0.2096479578536738
 10
74.43901969178083
 20
59.67191780821916
 30
0.0
 10
74.80922458182361
 20
59.66644668121819
 30
0.0
 10
75.50176932927468
 20
59.6562118075872
 30
0.0
 10
76.19124917573306
 20
59.59165859513996
 30
0.0
 10
76.51191025140989
 20
59.55865763571628
 30
0.0
  0
LINE
  5
1F2
330
1F
100
AcDbEntity
  8
0
  6
Continuous
 62
     7
370
    25
100
AcDbLine
 10
79.1214940664
 20
58.0520137176
 30
0.0
 11
76.5119102514
 21
59.5586576357
 31
0.0
  0
SPLINE
  5
1F3
330
1F
100
AcDbEntity
  8
0
  6
Continuous
 62
     7
370
    25
100
AcDbSpline
210
0.0
220
0.0
230
1.0
 70
     8
 71
     3
 72
    10
 73
     6
 74
     0
 42
0.00000001
 43
0.00000001
 40
0.7786960578530504
 40
0.7786960578530504
 40
0.7786960578530504
 40
0.7786960578530504
 40
0.7974565160830093
 40
0.8623658103985442
 40
0.928935912125728
 40
0.928935912125728
 40
0.928935912125728
 40
0.928935912125728
 10
60.04398259235806
 20
46.3558564061084
 30
0.0
 10
60.00200915351833
 20
46.2124770313907
 30
0.0
 10
59.82442571700489
 20
45.57027655488287
 30
0.0
 10
59.58483467207154
 20
44.39717677513399
 30
0.0
 10
59.44803397820601
 20
43.35774379830199
 30
0.0
 10
59.40713147711975
 20
42.8295596244155
 30
0.0
  0
LINE
  5
1F4
330
1F
100
AcDbEntity
  8
0
  6
Continuous
 62
     7
370
    25
100
AcDbLine
 10
53.625920071
 20
46.1673435864
 30
0.0
 11
59.407131478
 21
42.8295596243
 31
0.0
  0
SPLINE
  5
1F5
330
1F
100
AcDbEntity
  8
0
  6
Continuous
 62
     7
370
    25
100
AcDbSpline
210
0.0
220
0.0
230
1.0
 70
     8
 71
     3
 72
    12
 73
     8
 74
     0
 42
0.00000001
 43
0.00000001
 40
0.1931616765928962
 40
0.1931616765928962
 40
0.1931616765928962
 40
0.1931616765928962
 40
0.2210147706233845
 40
0.2622863116189545
 40
0.3028198783897808
 40
0.3433831350454731
 40
0.3503042988129192
 40
0.3503042988129192
 40
0.3503042988129192
 40
0.3503042988129192
 10
53.625920070971
 20
46.16734358642454
 30
0.0
 10
53.71959921298829
 20
46.45859580136075
 30
0.0
 10
53.97044302064312
 20
47.17550667448107
 30
0.0
 10
54.43736492144974
 20
48.28669944528698
 30
0.0
 10
55.04790628099583
 20
49.48518003952213
 30
0.0
 10
55.55110765094898
 20
50.3116135553452
 30
0.0
 10
55.84127513192256
 20
50.7449551711064
 30
0.0
 10
55.88395251306675
 20
50.80785671085511
 30
0.0
  0
LINE
  5
1F6
330
1F
100
AcDbEntity
  8
0
  6
Continuous
 62
     7
370
    25
100
AcDbLine
 10
57.6323414627
 20
49.7984238792
 30
0.0
 11
55.8839525131
 21
50.8078567109
 31
0.0
  0
LINE
  5
1F7
330
1F
100
AcDbEntity
  8
0
  6
Continuous
 62
     7
370
    25
100
AcDbLine
 10
56.7445763019
 20
48.2607695155
 30
0.0
 11
57.6323414627
 21
49.7984238792
 31
0.0
  0
LINE
  5
1F8
330
1F
100
AcDbEntity
  8
0
  6
Continuous
 62
     7
370
    25
100
AcDbLine
 10
60.0439825924
 20
46.3558564061
 30
0.0
 11
56.7445763019
 21
48.2607695155
 31
0.0
  0
LINE
  5
1F9
330
1F
100
AcDbEntity
  8
0
  6
Continuous
 62
     7
370
    25
100
AcDbLine
 10
75.0650843776
 20
23.4856406461
 30
0.0
 11
74.1773192168
 21
21.9479862824
 31
0.0
  0
LINE
  5
1FA
330
1F
100
AcDbEntity
  8
0
  6
Continuous
 62
     7
370
    25
100
AcDbLine
 10
74.3338373565
 20
23.9078263105
 30
0.0
 11
75.0650843776
 21
23.4856406461
 31
0.0
  0
SPLINE
  5
1FB
330
1F
100
AcDbEntity
  8
0
  6
Continuous
 62
     7
370
    25
100
AcDbSpline
210
0.0
220
0.0
230
1.0
 70
     8
 71
     3
 72
    13
 73
     9
 74
     0
 42
0.00000001
 43
0.00000001
 40
0.0541787012047244
 40
0.0541787012047244
 40
0.0541787012047244
 40
0.0541787012047244
 40
0.1633472580943884
 40
0.3000302329984374
 40
0.4373614825338671
 40
0.57572018393849
 40
0.7023254400435059
 40
0.7531527567126178
 40
0.7531527567126178
 40
0.7531527567126178
 40
0.7531527567126178
 10
78.71871015645638
 20
24.34001216612114
 30
0.0
 10
78.49290259281412
 20
24.29729326920014
 30
0.0
 10
77.98308648818761
 20
24.21258465985548
 30
0.0
 10
77.1848600464379
 20
24.09699236481693
 30
0.0
 10
76.32106802201515
 20
24.01614183117675
 30
0.0
 10
75.47815301467458
 20
23.9385815160943
 30
0.0
 10
74.81398357052143
 20
23.91440431876044
 30
0.0
 10
74.44075474283129
 20
23.90902114154303
 30
0.0
 10
74.33383735647811
 20
23.90782630819652
 30
0.0
  0
LINE
  5
1FC
330
1F
100
AcDbEntity
  8
0
  6
Continuous
 62
     7
370
    25
100
AcDbLine
 10
78.2337289056
 20
23.5
 30
0.0
 11
78.7187101565
 21
24.3400121661
 31
0.0
  0
LINE
  5
1FD
330
1F
100
AcDbEntity
  8
0
  6
Continuous
 62
     7
370
    25
100
AcDbLine
 10
82.1113185911
 20
21.2612725513
 30
0.0
 11
78.2337289056
 21
23.5
 31
0.0
  0
SPLINE
  5
1FE
330
1F
100
AcDbEntity
  8
0
  6
Continuous
 62
     7
370
    25
100
AcDbSpline
210
0.0
220
0.0
230
1.0
 70
     8
 71
     3
 72
    12
 73
     8
 74
     0
 42
0.00000001
 43
0.00000001
 40
0.2092545852985998
 40
0.2092545852985998
 40
0.2092545852985998
 40
0.2092545852985998
 40
0.30655038674517
 40
0.4216583698240813
 40
0.5456607463293085
 40
0.6829347340968757
 40
0.6974544171068641
 40
0.6974544171068641
 40
0.6974544171068641
 40
0.6974544171068641
 10
82.1113185911481
 20
21.26127255124438
 30
0.0
 10
81.75817136625619
 20
21.18850448102936
 30
0.0
 10
80.98536700196956
 20
21.03869250157639
 30
0.0
 10
79.75668665439346
 20
20.82667663894951
 30
0.0
 10
78.37484852062073
 20
20.63537354923034
 30
0.0
 10
77.35916138115532
 20
20.52009166187413
 30
0.0
 10
76.79880458125545
 20
20.47008309084859
 30
0.0
 10
76.74519267263526
 20
20.46542385114478
 30
0.0
  0
LINE
  5
1FF
330
1F
100
AcDbEntity
  8
0
  6
Continuous
 62
     7
370
    25
100
AcDbLine
 10
74.1773192168
 20
21.9479862824
 30
0.0
 11
76.7451926726
 21
20.4654238511
 31
0.0
  0
SPLINE
  5
200
330
1F
100
AcDbEntity
  8
0
  6
Continuous
 62
     7
370
    25
100
AcDbSpline
210
0.0
220
0.0
230
1.0
 70
     8
 71
     3
 72
    10
 73
     6
 74
     0
 42
0.00000001
 43
0.00000001
 40
0.0
 40
0.0
 40
0.0
 40
0.0
 40
0.1568246644508323
 40
0.3596074084754558
 40
0.5067002352000022
 40
0.5067002352000022
 40
0.5067002352000022
 40
0.5067002352000022
 10
85.40068493150685
 20
22.54755993150684
 30
0.0
 10
85.38544185204965
 20
22.47763633447821
 30
0.0
 10
85.3504886492484
 20
22.31729775759171
 30
0.0
 10
85.1668370555616
 20
22.16677810676499
 30
0.0
 10
85.0357184612154
 20
22.08106943369853
 30
0.0
 10
84.97951766820735
 20
22.04779078956135
 30
0.0
  0
LINE
  5
201
330
1F
100
AcDbEntity
  8
0
  6
Continuous
 62
     7
370
    25
100
AcDbLine
 10
85.4006849315
 20
22.7772738716
 30
0.0
 11
84.9795176682
 21
22.0477907896
 31
0.0
  0
LINE
  5
202
330
1F
100
AcDbEntity
  8
0
  6
Continuous
 62
     7
370
    25
100
AcDbLine
 10
85.4006849315
 20
22.5475599315
 30
0.0
 11
85.4006849315
 21
22.7772738716
 31
0.0
  0
LINE
  5
203
330
1F
100
AcDbEntity
  8
0
  6
Continuous
 62
     7
370
    25
100
AcDbLine
 10
84.9218955186
 20
30.2015761208
 30
0.0
 11
85.4006849315
 21
29.9251469244
 31
0.0
  0
LINE
  5
204
330
1F
100
AcDbEntity
  8
0
  6
Continuous
 62
     7
370
    25
100
AcDbLine
 10
85.372386525
 20
30.9818494322
 30
0.0
 11
84.9218955186
 21
30.2015761208
 31
0.0
  0
SPLINE
  5
205
330
1F
100
AcDbEntity
  8
0
  6
Continuous
 62
     7
370
    25
100
AcDbSpline
210
0.0
220
0.0
230
1.0
 70
     8
 71
     3
 72
     8
 73
     4
 74
     0
 42
0.00000001
 43
0.00000001
 40
0.8905519786721131
 40
0.8905519786721131
 40
0.8905519786721131
 40
0.8905519786721131
 40
1.0
 40
1.0
 40
1.0
 40
1.0
 10
85.37238652576332
 20
30.98184943236361
 30
0.0
 10
85.38581242730253
 20
30.92127652313162
 30
0.0
 10
85.39324867940469
 20
30.85801625814115
 30
0.0
 10
85.40068493150685
 20
30.79475599315067
 30
0.0
  0
LINE
  5
206
330
1F
100
AcDbEntity
  8
0
  6
Continuous
 62
     7
370
    25
100
AcDbLine
 10
85.4006849315
 20
29.9251469244
 30
0.0
 11
85.4006849315
 21
30.7947559932
 31
0.0
  0
LINE
  5
207
330
1F
100
AcDbEntity
  8
0
  6
Continuous
 62
     7
370
    25
100
AcDbLine
 10
130.4374715789
 20
45.2438617767
 30
0.0
 11
136.5077549106
 21
41.7391820723
 31
0.0
  0
SPLINE
  5
208
330
1F
100
AcDbEntity
  8
0
  6
Continuous
 62
     7
370
    25
100
AcDbSpline
210
0.0
220
0.0
230
1.0
 70
     8
 71
     3
 72
    11
 73
     7
 74
     0
 42
0.00000001
 43
0.00000001
 40
0.3489849890075569
 40
0.3489849890075569
 40
0.3489849890075569
 40
0.3489849890075569
 40
0.3911889551749906
 40
0.5139639201596011
 40
0.6350611829230891
 40
0.6874837155182334
 40
0.6874837155182334
 40
0.6874837155182334
 40
0.6874837155182334
 10
130.4374715788795
 20
45.24386177668269
 30
0.0
 10
130.4870237402922
 20
45.45545232588788
 30
0.0
 10
130.6941131960614
 20
46.27936981817261
 30
0.0
 10
131.1491337807226
 20
47.68249574660691
 30
0.0
 10
131.7527459102814
 20
49.08601451120391
 30
0.0
 10
132.1662888015799
 20
49.87825847575419
 30
0.0
 10
132.2964582630617
 20
50.11476408714724
 30
0.0
  0
LINE
  5
209
330
1F
100
AcDbEntity
  8
0
  6
Continuous
 62
     7
370
    25
100
AcDbLine
 10
132.8443755758
 20
49.7984238792
 30
0.0
 11
132.2964582631
 21
50.1147640871
 31
0.0
  0
LINE
  5
20A
330
1F
100
AcDbEntity
  8
0
  6
Continuous
 62
     7
370
    25
100
AcDbLine
 10
131.956610415
 20
48.2607695155
 30
0.0
 11
132.8443755758
 21
49.7984238792
 31
0.0
  0
LINE
  5
20B
330
1F
100
AcDbEntity
  8
0
  6
Continuous
 62
     7
370
    25
100
AcDbLine
 10
136.8777830558
 20
45.4195291665
 30
0.0
 11
131.956610415
 21
48.2607695155
 31
0.0
  0
SPLINE
  5
20C
330
1F
100
AcDbEntity
  8
0
  6
Continuous
 62
     7
370
    25
100
AcDbSpline
210
0.0
220
0.0
230
1.0
 70
     8
 71
     3
 72
     8
 73
     4
 74
     0
 42
0.00000001
 43
0.00000001
 40
0.6105002076880515
 40
0.6105002076880515
 40
0.6105002076880515
 40
0.6105002076880515
 40
0.6291420682621987
 40
0.6291420682621987
 40
0.6291420682621987
 40
0.6291420682621987
 10
136.877783055824
 20
45.41952916771362
 30
0.0
 10
136.8647571466146
 20
45.35293681464969
 30
0.0
 10
136.8521185090874
 20
45.28626818638973
 30
0.0
 10
136.8398576328061
 20
45.21952885693383
 30
0.0
  0
SPLINE
  5
20D
330
1F
100
AcDbEntity
  8
0
  6
Continuous
 62
     7
370
    25
100
AcDbSpline
210
0.0
220
0.0
230
1.0
 70
     8
 71
     3
 72
    10
 73
     6
 74
     0
 42
0.00000001
 43
0.00000001
 40
0.6368462666208645
 40
0.6368462666208645
 40
0.6368462666208645
 40
0.6368462666208645
 40
0.7006268285500213
 40
0.8357457715582668
 40
0.9310204911604152
 40
0.9310204911604152
 40
0.9310204911604152
 40
0.9310204911604152
 10
136.5153810613106
 20
42.02675708040265
 30
0.0
 10
136.5223242203168
 20
42.25878210399068
 30
0.0
 10
136.5507047889617
 20
42.9820428460216
 30
0.0
 10
136.6495242767207
 20
44.04914462146638
 30
0.0
 10
136.7771948130122
 20
44.87843785504296
 30
0.0
 10
136.8398576328061
 20
45.21952885693388
 30
0.0
  0
SPLINE
  5
20E
330
1F
100
AcDbEntity
  8
0
  6
Continuous
 62
     7
370
    25
100
AcDbSpline
210
0.0
220
0.0
230
1.0
 70
     8
 71
     3
 72
     8
 73
     4
 74
     0
 42
0.00000001
 43
0.00000001
 40
0.9233162928020329
 40
0.9233162928020329
 40
0.9233162928020329
 40
0.9233162928020329
 40
0.9496623517347403
 40
0.9496623517347403
 40
0.9496623517347403
 40
0.9496623517347403
 10
136.5153810613105
 20
42.02675708039951
 30
0.0
 10
136.5125130264292
 20
41.93091369551207
 30
0.0
 10
136.5100131354659
 20
41.83505342280864
 30
0.0
 10
136.5077549059939
 20
41.73918206440042
 30
0.0
  0
SPLINE
  5
20F
330
1F
100
AcDbEntity
  8
0
  6
Continuous
 62
     7
370
    25
100
AcDbSpline
210
0.0
220
0.0
230
1.0
 70
     8
 71
     3
 72
     9
 73
     5
 74
     0
 42
0.00000001
 43
0.00000001
 40
0.8170337839074054
 40
0.8170337839074054
 40
0.8170337839074054
 40
0.8170337839074054
 40
0.8772032702634041
 40
0.9522419937884992
 40
0.9522419937884992
 40
0.9522419937884992
 40
0.9522419937884992
 10
133.3544441389157
 20
51.81333673368396
 30
0.0
 10
133.5325866945388
 20
52.06696598249929
 30
0.0
 10
133.9483148500958
 20
52.62578104281565
 30
0.0
 10
134.4006516360396
 20
53.15472935913519
 30
0.0
 10
134.6560778040017
 20
53.44471073728568
 30
0.0
  0
SPLINE
  5
210
330
1F
100
AcDbEntity
  8
0
  6
Continuous
 62
     7
370
    25
100
AcDbSpline
210
0.0
220
0.0
230
1.0
 70
     8
 71
     3
 72
     8
 73
     4
 74
     0
 42
0.00000001
 43
0.00000001
 40
0.8325692834342571
 40
0.8325692834342571
 40
0.8325692834342571
 40
0.8325692834342571
 40
0.8647917901189071
 40
0.8647917901189071
 40
0.8647917901189071
 40
0.8647917901189071
 10
134.9870070959763
 20
53.81674089191129
 30
0.0
 10
134.8762524201165
 20
53.69309381676948
 30
0.0
 10
134.7657607919038
 20
53.56923213713002
 30
0.0
 10
134.6560778040017
 20
53.44471073728567
 30
0.0
  0
SPLINE
  5
211
330
1F
100
AcDbEntity
  8
0
  6
Continuous
 62
     7
370
    25
100
AcDbSpline
210
0.0
220
0.0
230
1.0
 70
     8
 71
     3
 72
     8
 73
     4
 74
     0
 42
0.00000001
 43
0.00000001
 40
0.9844645004731442
 40
0.9844645004731442
 40
0.9844645004731442
 40
0.9844645004731442
 40
1.0
 40
1.0
 40
1.0
 40
1.0
 10
134.9870070959762
 20
53.81674089191125
 30
0.0
 10
135.0404054622565
 20
53.87635509561559
 30
0.0
 10
135.0938649742789
 20
53.93591941424614
 30
0.0
 10
135.1473244863014
 20
53.9954837328767
 30
0.0
  0
SPLINE
  5
212
330
1F
100
AcDbEntity
  8
0
  6
Continuous
 62
     7
370
    25
100
AcDbSpline
210
0.0
220
0.0
230
1.0
 70
     8
 71
     3
 72
     8
 73
     4
 74
     0
 42
0.00000001
 43
0.00000001
 40
0.0
 40
0.0
 40
0.0
 40
0.0
 40
0.0394535514607115
 40
0.0394535514607115
 40
0.0394535514607115
 40
0.0394535514607115
 10
135.1473244863014
 20
53.9954837328767
 30
0.0
 10
135.2905901415217
 20
54.13850239151052
 30
0.0
 10
135.4338557967421
 20
54.28152105014436
 30
0.0
 10
135.5780242679174
 20
54.42353509104603
 30
0.0
  0
LINE
  5
213
330
1F
100
AcDbEntity
  8
0
  6
Continuous
 62
     7
370
    25
100
AcDbLine
 10
139.8300714314
 20
51.9686145168
 30
0.0
 11
135.5780242678
 21
54.4235350911
 31
0.0
  0
SPLINE
  5
214
330
1F
100
AcDbEntity
  8
0
  6
Continuous
 62
     7
370
    25
100
AcDbSpline
210
0.0
220
0.0
230
1.0
 70
     8
 71
     3
 72
     8
 73
     4
 74
     0
 42
0.00000001
 43
0.00000001
 40
0.9433060001088389
 40
0.9433060001088389
 40
0.9433060001088389
 40
0.9433060001088389
 40
1.0
 40
1.0
 40
1.0
 40
1.0
 10
139.8300714314263
 20
51.96861451680642
 30
0.0
 10
139.7076425552973
 20
51.81500824735864
 30
0.0
 10
139.58708326395
 20
51.65978366135055
 30
0.0
 10
139.4665239726027
 20
51.50455907534246
 30
0.0
  0
SPLINE
  5
215
330
1F
100
AcDbEntity
  8
0
  6
Continuous
 62
     7
370
    25
100
AcDbSpline
210
0.0
220
0.0
230
1.0
 70
     8
 71
     3
 72
    10
 73
     6
 74
     0
 42
0.00000001
 43
0.00000001
 40
0.0
 40
0.0
 40
0.0
 40
0.0
 40
0.1149912351548613
 40
0.2308325787387938
 40
0.2557329766119278
 40
0.2557329766119278
 40
0.2557329766119278
 40
0.2557329766119278
 10
139.4665239726028
 20
51.50455907534246
 30
0.0
 10
139.2287174351541
 20
51.15990313530425
 30
0.0
 10
138.7513463015518
 20
50.46804327912024
 30
0.0
 10
138.3065647567315
 20
49.6484204500015
 30
0.0
 10
138.0865485574319
 20
49.18552912824552
 30
0.0
 10
138.0484061235864
 20
49.10327651826612
 30
0.0
  0
LINE
  5
216
330
1F
100
AcDbEntity
  8
0
  6
Continuous
 62
     7
370
    25
100
AcDbLine
 10
133.3544441389
 20
51.8133367337
 30
0.0
 11
138.0484061236
 21
49.1032765183
 31
0.0
  0
SPLINE
  5
217
330
1F
100
AcDbEntity
  8
0
  6
Continuous
 62
     7
370
    25
100
AcDbSpline
210
0.0
220
0.0
230
1.0
 70
     8
 71
     3
 72
     9
 73
     5
 74
     0
 42
0.00000001
 43
0.00000001
 40
0.1526183434567671
 40
0.1526183434567671
 40
0.1526183434567671
 40
0.1526183434567671
 40
0.261519288897499
 40
0.386733996395594
 40
0.386733996395594
 40
0.386733996395594
 40
0.386733996395594
 10
168.0706202992208
 20
37.76689840942538
 30
0.0
 10
168.0190514251884
 20
37.21286908479839
 30
0.0
 10
167.8557324737717
 20
36.02594791654169
 30
0.0
 10
167.6072891106699
 20
34.85412360881747
 30
0.0
 10
167.4416120798294
 20
34.23607353036981
 30
0.0
  0
LINE
  5
218
330
1F
100
AcDbEntity
  8
0
  6
Continuous
 62
     7
370
    25
100
AcDbLine
 10
161.5030435652
 20
37.6647076613
 30
0.0
 11
167.4416120811
 21
34.23607353
 31
0.0
  0
SPLINE
  5
219
330
1F
100
AcDbEntity
  8
0
  6
Continuous
 62
     7
370
    25
100
AcDbSpline
210
0.0
220
0.0
230
1.0
 70
     8
 71
     3
 72
     8
 73
     4
 74
     0
 42
0.00000001
 43
0.00000001
 40
0.8762972407428985
 40
0.8762972407428985
 40
0.8762972407428985
 40
0.8762972407428985
 40
1.0
 40
1.0
 40
1.0
 40
1.0
 10
161.5335616438356
 20
39.01800085616437
 30
0.0
 10
161.5284825452156
 20
38.56666030894996
 30
0.0
 10
161.5234034465956
 20
38.11531976173555
 30
0.0
 10
161.5030435652069
 20
37.66470766127152
 30
0.0
  0
SPLINE
  5
21A
330
1F
100
AcDbEntity
  8
0
  6
Continuous
 62
     7
370
    25
100
AcDbSpline
210
0.0
220
0.0
230
1.0
 70
     8
 71
     3
 72
     8
 73
     4
 74
     0
 42
0.00000001
 43
0.00000001
 40
0.2787011442732524
 40
0.2787011442732524
 40
0.2787011442732524
 40
0.2787011442732524
 40
0.3860495846221689
 40
0.3860495846221689
 40
0.3860495846221689
 40
0.3860495846221689
 10
161.4962195600687
 20
40.37267160687669
 30
0.0
 10
161.5156964858472
 20
39.92142002512659
 30
0.0
 10
161.5246290648414
 20
39.46971044064548
 30
0.0
 10
161.5335616438356
 20
39.01800085616437
 30
0.0
  0
SPLINE
  5
21B
330
1F
100
AcDbEntity
  8
0
  6
Continuous
 62
     7
370
    25
100
AcDbSpline
210
0.0
220
0.0
230
1.0
 70
     8
 71
     3
 72
    10
 73
     6
 74
     0
 42
0.00000001
 43
0.00000001
 40
0.1073484403492027
 40
0.1073484403492027
 40
0.1073484403492027
 40
0.1073484403492027
 40
0.1366825126848752
 40
0.2688403810050883
 40
0.3860495846221689
 40
0.3860495846221689
 40
0.3860495846221689
 40
0.3860495846221689
 10
161.4962195600686
 20
40.37267160688031
 30
0.0
 10
161.4908972885218
 20
40.49598077185392
 30
0.0
 10
161.4572621314725
 20
41.1746425396814
 30
0.0
 10
161.3467782602357
 20
42.34359246630292
 30
0.0
 10
161.1665642705198
 20
43.37815777747907
 30
0.0
 10
161.0661490604983
 20
43.86113758647036
 30
0.0
  0
LINE
  5
21C
330
1F
100
AcDbEntity
  8
0
  6
Continuous
 62
     7
370
    25
100
AcDbLine
 10
165.0781044814
 20
41.5448340407
 30
0.0
 11
161.0661490605
 21
43.8611375865
 31
0.0
  0
LINE
  5
21D
330
1F
100
AcDbEntity
  8
0
  6
Continuous
 62
     7
370
    25
100
AcDbLine
 10
164.1903393206
 20
40.007179677
 30
0.0
 11
165.0781044814
 21
41.5448340407
 31
0.0
  0
LINE
  5
21E
330
1F
100
AcDbEntity
  8
0
  6
Continuous
 62
     7
370
    25
100
AcDbLine
 10
168.0706202992
 20
37.7668984094
 30
0.0
 11
164.1903393206
 21
40.007179677
 31
0.0
  0
SPLINE
  5
21F
330
1F
100
AcDbEntity
  8
0
  6
Continuous
 62
     7
370
    25
100
AcDbSpline
210
0.0
220
0.0
230
1.0
 70
     8
 71
     3
 72
     9
 73
     5
 74
     0
 42
0.00000001
 43
0.00000001
 40
0.6824582699473113
 40
0.6824582699473113
 40
0.6824582699473113
 40
0.6824582699473113
 40
0.7461715533523863
 40
0.8234428765712274
 40
0.8234428765712274
 40
0.8234428765712274
 40
0.8234428765712274
 10
156.4813089861377
 20
26.10703361269055
 30
0.0
 10
156.6584798353592
 20
26.24814303848458
 30
0.0
 10
157.0403488323465
 20
26.57323500446425
 30
0.0
 10
157.3985955787479
 20
26.92495475524569
 30
0.0
 10
157.5863655725813
 20
27.1255190071637
 30
0.0
  0
SPLINE
  5
220
330
1F
100
AcDbEntity
  8
0
  6
Continuous
 62
     7
370
    25
100
AcDbSpline
210
0.0
220
0.0
230
1.0
 70
     8
 71
     3
 72
     9
 73
     5
 74
     0
 42
0.00000001
 43
0.00000001
 40
0.6824582699473127
 40
0.6824582699473127
 40
0.6824582699473127
 40
0.6824582699473127
 40
0.8123373936060624
 40
0.8590153933760882
 40
0.8590153933760882
 40
0.8590153933760882
 40
0.8590153933760882
 10
158.7552226027397
 20
28.59922945205479
 30
0.0
 10
158.4847147318554
 20
28.2247568093699
 30
0.0
 10
158.1169874928445
 20
27.7157003056555
 30
0.0
 10
157.6997935218368
 20
27.24667570171633
 30
0.0
 10
157.5863655725813
 20
27.12551900716368
 30
0.0
  0
LINE
  5
221
330
1F
100
AcDbEntity
  8
0
  6
Continuous
 62
     7
370
    25
100
AcDbLine
 10
158.7967739891
 20
28.6641822143
 30
0.0
 11
158.7552226027
 21
28.5992294521
 31
0.0
  0
LINE
  5
222
330
1F
100
AcDbEntity
  8
0
  6
Continuous
 62
     7
370
    25
100
AcDbLine
 10
163.0480487821
 20
26.2097075682
 30
0.0
 11
158.7967739891
 21
28.6641822143
 31
0.0
  0
SPLINE
  5
223
330
1F
100
AcDbEntity
  8
0
  6
Continuous
 62
     7
370
    25
100
AcDbSpline
210
0.0
220
0.0
230
1.0
 70
     8
 71
     3
 72
     8
 73
     4
 74
     0
 42
0.00000001
 43
0.00000001
 40
0.9891576335451533
 40
0.9891576335451533
 40
0.9891576335451533
 40
0.9891576335451533
 40
0.9999999999999999
 40
0.9999999999999999
 40
0.9999999999999999
 40
0.9999999999999999
 10
163.0480487820725
 20
26.20970756816767
 30
0.0
 10
163.0116122448621
 20
26.16791226431417
 30
0.0
 10
162.9751554374996
 20
26.12613293010229
 30
0.0
 10
162.938698630137
 20
26.08435359589041
 30
0.0
  0
SPLINE
  5
224
330
1F
100
AcDbEntity
  8
0
  6
Continuous
 62
     7
370
    25
100
AcDbSpline
210
0.0
220
0.0
230
1.0
 70
     8
 71
     3
 72
     8
 73
     4
 74
     0
 42
0.00000001
 43
0.00000001
 40
0.0
 40
0.0
 40
0.0
 40
0.0
 40
0.0175075249999304
 40
0.0175075249999304
 40
0.0175075249999304
 40
0.0175075249999304
 10
162.938698630137
 20
26.08435359589041
 30
0.0
 10
162.8755108240248
 20
26.01884638140664
 30
0.0
 10
162.8123230179126
 20
25.95333916692288
 30
0.0
 10
162.7490457051642
 20
25.88792876232376
 30
0.0
  0
SPLINE
  5
225
330
1F
100
AcDbEntity
  8
0
  6
Continuous
 62
     7
370
    25
100
AcDbSpline
210
0.0
220
0.0
230
1.0
 70
     8
 71
     3
 72
     9
 73
     5
 74
     0
 42
0.00000001
 43
0.00000001
 40
0.0
 40
0.0
 40
0.0
 40
0.0
 40
0.0933372192932422
 40
0.1990362205641862
 40
0.1990362205641862
 40
0.1990362205641862
 40
0.1990362205641862
 10
160.4439591619704
 20
23.81919646713772
 30
0.0
 10
160.8345714456185
 20
24.10711490142986
 30
0.0
 10
161.6415001411925
 20
24.7560427595943
 30
0.0
 10
162.3670186190604
 20
25.49302346081014
 30
0.0
 10
162.7490457051641
 20
25.88792876232376
 30
0.0
  0
LINE
  5
226
330
1F
100
AcDbEntity
  8
0
  6
Continuous
 62
     7
370
    25
100
AcDbLine
 10
156.4813089861
 20
26.1070336127
 30
0.0
 11
160.443959162
 21
23.8191964671
 31
0.0
  0
LINE
  5
227
330
1F
100
AcDbEntity
  8
0
  6
Continuous
 62
     7
370
    25
100
AcDbLine
 10
153.4457630187
 20
56.5143593539
 30
0.0
 11
154.3335281795
 21
58.0520137176
 31
0.0
  0
LINE
  5
228
330
1F
100
AcDbEntity
  8
0
  6
Continuous
 62
     7
370
    25
100
AcDbLine
 10
165.0781044814
 20
49.7984238792
 30
0.0
 11
153.4457630187
 21
56.5143593539
 31
0.0
  0
LINE
  5
229
330
1F
100
AcDbEntity
  8
0
  6
Continuous
 62
     7
370
    25
100
AcDbLine
 10
164.1903393206
 20
48.2607695155
 30
0.0
 11
165.0781044814
 21
49.7984238792
 31
0.0
  0
LINE
  5
22A
330
1F
100
AcDbEntity
  8
0
  6
Continuous
 62
     7
370
    25
100
AcDbLine
 10
167.3050828924
 20
46.4624714744
 30
0.0
 11
164.1903393206
 21
48.2607695155
 31
0.0
  0
SPLINE
  5
22B
330
1F
100
AcDbEntity
  8
0
  6
Continuous
 62
     7
370
    25
100
AcDbSpline
210
0.0
220
0.0
230
1.0
 70
     8
 71
     3
 72
    11
 73
     7
 74
     0
 42
0.00000001
 43
0.00000001
 40
0.5786685238400979
 40
0.5786685238400979
 40
0.5786685238400979
 40
0.5786685238400979
 40
0.6114857040627016
 40
0.7366098058924114
 40
0.8661498654028635
 40
0.8665677787404618
 40
0.8665677787404618
 40
0.8665677787404618
 40
0.8665677787404618
 10
167.3050828924283
 20
46.462471474423
 30
0.0
 10
167.3526926888376
 20
46.30218644376683
 30
0.0
 10
167.571690029133
 20
45.52782430072398
 30
0.0
 10
167.8785788139668
 20
44.09409601227416
 30
0.0
 10
168.0464437635589
 20
42.80329104183908
 30
0.0
 10
168.0965124526638
 20
42.14337993911847
 30
0.0
 10
168.0966730959389
 20
42.14125780149678
 30
0.0
  0
SPLINE
  5
22C
330
1F
100
AcDbEntity
  8
0
  6
Continuous
 62
     7
370
    25
100
AcDbSpline
210
0.0
220
0.0
230
1.0
 70
     8
 71
     3
 72
     8
 73
     4
 74
     0
 42
0.00000001
 43
0.00000001
 40
0.578668523840098
 40
0.578668523840098
 40
0.578668523840098
 40
0.578668523840098
 40
0.5807125456574731
 40
0.5807125456574731
 40
0.5807125456574731
 40
0.5807125456574731
 10
168.0990041275531
 20
42.11011788236185
 30
0.0
 10
168.0982357710432
 20
42.12049841146075
 30
0.0
 10
168.0974588051509
 20
42.13087838737439
 30
0.0
 10
168.0966730959389
 20
42.14125780149678
 30
0.0
  0
LINE
  5
22D
330
1F
100
AcDbEntity
  8
0
  6
Continuous
 62
     7
370
    25
100
AcDbLine
 10
160.3013665435
 20
46.6120860502
 30
0.0
 11
168.0990041276
 21
42.1101178824
 31
0.0
  0
SPLINE
  5
22E
330
1F
100
AcDbEntity
  8
0
  6
Continuous
 62
     7
370
    25
100
AcDbSpline
210
0.0
220
0.0
230
1.0
 70
     8
 71
     3
 72
     8
 73
     4
 74
     0
 42
0.00000001
 43
0.00000001
 40
0.6123568519267467
 40
0.6123568519267467
 40
0.6123568519267467
 40
0.6123568519267467
 40
0.6322980868545258
 40
0.6322980868545258
 40
0.6322980868545258
 40
0.6322980868545258
 10
160.3013665434655
 20
46.61208605023556
 30
0.0
 10
160.2730234960125
 20
46.69107956512816
 30
0.0
 10
160.2440935228253
 20
46.76985775125107
 30
0.0
 10
160.2145552622632
 20
46.84840348631204
 30
0.0
  0
LINE
  5
22F
330
1F
100
AcDbEntity
  8
0
  6
Continuous
 62
     7
370
    25
100
AcDbLine
 10
161.0216947925
 20
48.2464101615
 30
0.0
 11
160.2145552623
 21
46.8484034863
 31
0.0
  0
LINE
  5
230
330
1F
100
AcDbEntity
  8
0
  6
Continuous
 62
     7
370
    25
100
AcDbLine
 10
159.0087367322
 20
49.4085920436
 30
0.0
 11
161.0216947925
 21
48.2464101615
 31
0.0
  0
SPLINE
  5
231
330
1F
100
AcDbEntity
  8
0
  6
Continuous
 62
     7
370
    25
100
AcDbSpline
210
0.0
220
0.0
230
1.0
 70
     8
 71
     3
 72
     9
 73
     5
 74
     0
 42
0.00000001
 43
0.00000001
 40
0.8566247458149467
 40
0.8566247458149467
 40
0.8566247458149467
 40
0.8566247458149467
 40
0.8812427581502693
 40
1.0
 40
1.0
 40
1.0
 40
1.0
 10
159.0087367322185
 20
49.40859204361262
 30
0.0
 10
158.9571377616089
 20
49.4984082525989
 30
0.0
 10
158.6510961397053
 20
50.01820583143201
 30
0.0
 10
158.3106736864635
 20
50.51677070046647
 30
0.0
 10
158.0287029109589
 20
50.92973030821916
 30
0.0
  0
SPLINE
  5
232
330
1F
100
AcDbEntity
  8
0
  6
Continuous
 62
     7
370
    25
100
AcDbSpline
210
0.0
220
0.0
230
1.0
 70
     8
 71
     3
 72
     8
 73
     4
 74
     0
 42
0.00000001
 43
0.00000001
 40
0.0
 40
0.0
 40
0.0
 40
0.0
 40
0.0208149895238014
 40
0.0208149895238014
 40
0.0208149895238014
 40
0.0208149895238014
 10
158.0287029109589
 20
50.92973030821916
 30
0.0
 10
157.9807008077246
 20
50.99303139002988
 30
0.0
 10
157.9326987044902
 20
51.05633247184059
 30
0.0
 10
157.8845958458473
 20
51.11954800645277
 30
0.0
  0
SPLINE
  5
233
330
1F
100
AcDbEntity
  8
0
  6
Continuous
 62
     7
370
    25
100
AcDbSpline
210
0.0
220
0.0
230
1.0
 70
     8
 71
     3
 72
     9
 73
     5
 74
     0
 42
0.00000001
 43
0.00000001
 40
0.6024169129389887
 40
0.6024169129389887
 40
0.6024169129389887
 40
0.6024169129389887
 40
0.719969997943191
 40
0.8347604994922458
 40
0.8347604994922458
 40
0.8347604994922458
 40
0.8347604994922458
 10
156.1203223743697
 20
53.10246357919797
 30
0.0
 10
156.4512486516962
 20
52.79945995320115
 30
0.0
 10
157.0761763789408
 20
52.16853498207025
 30
0.0
 10
157.61931820719
 20
51.46816902860247
 30
0.0
 10
157.8845958458474
 20
51.11954800645275
 30
0.0
  0
SPLINE
  5
234
330
1F
100
AcDbEntity
  8
0
  6
Continuous
 62
     7
370
    25
100
AcDbSpline
210
0.0
220
0.0
230
1.0
 70
     8
 71
     3
 72
    12
 73
     8
 74
     0
 42
0.00000001
 43
0.00000001
 40
0.2531585760770574
 40
0.2531585760770574
 40
0.2531585760770574
 40
0.2531585760770574
 40
0.2644234038563689
 40
0.3880381288032962
 40
0.5087112423817379
 40
0.628979954308179
 40
0.6338738763373436
 40
0.6338738763373436
 40
0.6338738763373436
 40
0.6338738763373436
 10
156.1203223743697
 20
53.10246357919797
 30
0.0
 10
156.0886105097122
 20
53.13149968372248
 30
0.0
 10
155.7072866301764
 20
53.47738154472914
 30
0.0
 10
154.9494969614496
 20
54.09265603864697
 30
0.0
 10
153.7650682766305
 20
54.82806473124092
 30
0.0
 10
152.9080606124751
 20
55.21399517778953
 30
0.0
 10
152.4610344880029
 20
55.38185647821867
 30
0.0
 10
152.443539376968
 20
55.38837607802049
 30
0.0
  0
SPLINE
  5
235
330
1F
100
AcDbEntity
  8
0
  6
Continuous
 62
     7
370
    25
100
AcDbSpline
210
0.0
220
0.0
230
1.0
 70
     8
 71
     3
 72
     9
 73
     5
 74
     0
 42
0.00000001
 43
0.00000001
 40
0.0
 40
0.0
 40
0.0
 40
0.0
 40
0.1060516820500496
 40
0.2217016126787011
 40
0.2217016126787011
 40
0.2217016126787011
 40
0.2217016126787011
 10
149.9850194909566
 20
55.99406969333963
 30
0.0
 10
150.3864050492742
 20
55.94466237601575
 30
0.0
 10
151.2202485814209
 20
55.79083478301637
 30
0.0
 10
152.0301064768376
 20
55.54244295123857
 30
0.0
 10
152.443539376968
 20
55.38837607802049
 30
0.0
  0
LINE
  5
236
330
1F
100
AcDbEntity
  8
0
  6
Continuous
 62
     7
370
    25
100
AcDbLine
 10
150.2771184906
 20
56.5
 30
0.0
 11
149.985019491
 21
55.9940696933
 31
0.0
  0
LINE
  5
237
330
1F
100
AcDbEntity
  8
0
  6
Continuous
 62
     7
370
    25
100
AcDbLine
 10
145.2875913028
 20
59.380704865
 30
0.0
 11
150.2771184906
 21
56.5
 31
0.0
  0
SPLINE
  5
238
330
1F
100
AcDbEntity
  8
0
  6
Continuous
 62
     7
370
    25
100
AcDbSpline
210
0.0
220
0.0
230
1.0
 70
     8
 71
     3
 72
     9
 73
     5
 74
     0
 42
0.00000001
 43
0.00000001
 40
0.759794443263249
 40
0.759794443263249
 40
0.759794443263249
 40
0.759794443263249
 40
0.8659380781575116
 40
1.0
 40
1.0
 40
1.0
 40
1.0
 10
145.2875913043832
 20
59.38070485564076
 30
0.0
 10
145.824408594724
 20
59.4717624776133
 30
0.0
 10
147.0479802479369
 20
59.62668505549615
 30
0.0
 10
148.2797172581601
 20
59.65571551946221
 30
0.0
 10
148.9671660958904
 20
59.67191780821917
 30
0.0
  0
SPLINE
  5
239
330
1F
100
AcDbEntity
  8
0
  6
Continuous
 62
     7
370
    25
100
AcDbSpline
210
0.0
220
0.0
230
1.0
 70
     8
 71
     3
 72
     9
 73
     5
 74
     0
 42
0.00000001
 43
0.00000001
 40
0.0
 40
0.0
 40
0.0
 40
0.0
 40
0.1380104732162465
 40
0.1825152099906787
 40
0.1825152099906787
 40
0.1825152099906787
 40
0.1825152099906787
 10
148.9671660958904
 20
59.67191780821917
 30
0.0
 10
149.6812126446079
 20
59.65583723769669
 30
0.0
 10
150.6255203681101
 20
59.63457110740032
 30
0.0
 10
151.5654570880269
 20
59.54408320816714
 30
0.0
 10
151.7942495627685
 20
59.51806691059107
 30
0.0
  0
LINE
  5
23A
330
1F
100
AcDbEntity
  8
0
  6
Continuous
 62
     7
370
    25
100
AcDbLine
 10
154.3335281795
 20
58.0520137176
 30
0.0
 11
151.7942495628
 21
59.5180669106
 31
0.0
  0
LINE
  5
23B
330
1F
100
AcDbEntity
  8
0
  6
Continuous
 62
     7
370
    25
100
AcDbLine
 10
142.7011867168
 20
56.5143593539
 30
0.0
 11
143.5889518776
 21
58.0520137176
 31
0.0
  0
LINE
  5
23C
330
1F
100
AcDbEntity
  8
0
  6
Continuous
 62
     7
370
    25
100
AcDbLine
 10
144.5367791279
 20
55.45457957
 30
0.0
 11
142.7011867168
 21
56.5143593539
 31
0.0
  0
SPLINE
  5
23D
330
1F
100
AcDbEntity
  8
0
  6
Continuous
 62
     7
370
    25
100
AcDbSpline
210
0.0
220
0.0
230
1.0
 70
     8
 71
     3
 72
    12
 73
     8
 74
     0
 42
0.00000001
 43
0.00000001
 40
0.3725643803453385
 40
0.3725643803453385
 40
0.3725643803453385
 40
0.3725643803453385
 40
0.3799584269734771
 40
0.5026131429352718
 40
0.6235859510478479
 40
0.7436573536848408
 40
0.745352950522032
 40
0.745352950522032
 40
0.745352950522032
 40
0.745352950522032
 10
141.2370103561897
 20
53.46571902645059
 30
0.0
 10
141.2562185139733
 20
53.48269561330146
 30
0.0
 10
141.595025991738
 20
53.78017612692975
 30
0.0
 10
142.2811453294402
 20
54.31679997709386
 30
0.0
 10
143.3636325977034
 20
54.9674942954554
 30
0.0
 10
144.1350339977696
 20
55.3075871515664
 30
0.0
 10
144.5312599232319
 20
55.45256571757967
 30
0.0
 10
144.536779127948
 20
55.4545795700187
 30
0.0
  0
LINE
  5
23E
330
1F
100
AcDbEntity
  8
0
  6
Continuous
 62
     7
370
    25
100
AcDbLine
 10
138.644777028
 20
54.9623456363
 30
0.0
 11
141.2370103562
 21
53.4657190264
 31
0.0
  0
LINE
  5
23F
330
1F
100
AcDbEntity
  8
0
  6
Continuous
 62
     7
370
    25
100
AcDbLine
 10
139.5325421888
 20
56.5
 30
0.0
 11
138.644777028
 21
54.9623456363
 31
0.0
  0
LINE
  5
240
330
1F
100
AcDbEntity
  8
0
  6
Continuous
 62
     7
370
    25
100
AcDbLine
 10
138.75724234
 20
56.947619578
 30
0.0
 11
139.5325421888
 21
56.5
 31
0.0
  0
SPLINE
  5
241
330
1F
100
AcDbEntity
  8
0
  6
Continuous
 62
     7
370
    25
100
AcDbSpline
210
0.0
220
0.0
230
1.0
 70
     8
 71
     3
 72
    10
 73
     6
 74
     0
 42
0.00000001
 43
0.00000001
 40
0.3039522070384244
 40
0.3039522070384244
 40
0.3039522070384244
 40
0.3039522070384244
 40
0.369288792822804
 40
0.4900395869827778
 40
0.5721122231350335
 40
0.5721122231350335
 40
0.5721122231350335
 40
0.5721122231350335
 10
138.757242339953
 20
56.94761957795437
 30
0.0
 10
139.0421332326636
 20
57.12396696184006
 30
0.0
 10
139.8672743399386
 20
57.60370266057816
 30
0.0
 10
141.1105749178764
 20
58.19678319945476
 30
0.0
 10
142.0872861917053
 20
58.55645184994652
 30
0.0
 10
142.4870634777105
 20
58.6881892843099
 30
0.0
  0
LINE
  5
242
330
1F
100
AcDbEntity
  8
0
  6
Continuous
 62
     7
370
    25
100
AcDbLine
 10
143.5889518776
 20
58.0520137176
 30
0.0
 11
142.4870634777
 21
58.6881892843
 31
0.0
  0
LINE
  5
243
330
1F
100
AcDbEntity
  8
0
  6
Continuous
 62
     7
370
    25
100
AcDbLine
 10
171.7662710944
 20
23.4856406461
 30
0.0
 11
171.2417808219
 21
22.5771968461
 31
0.0
  0
LINE
  5
244
330
1F
100
AcDbEntity
  8
0
  6
Continuous
 62
     7
370
    25
100
AcDbLine
 10
171.2528827909
 20
23.7820455199
 30
0.0
 11
171.7662710944
 21
23.4856406461
 31
0.0
  0
SPLINE
  5
245
330
1F
100
AcDbEntity
  8
0
  6
Continuous
 62
     7
370
    25
100
AcDbSpline
210
0.0
220
0.0
230
1.0
 70
     8
 71
     3
 72
    11
 73
     7
 74
     0
 42
0.00000001
 43
0.00000001
 40
0.1360441559687842
 40
0.1360441559687842
 40
0.1360441559687842
 40
0.1360441559687842
 40
0.2753215161981184
 40
0.5041742745427849
 40
0.7246784838018678
 40
1.0
 40
1.0
 40
1.0
 40
1.0
 10
171.2528827908717
 20
23.78204551987239
 30
0.0
 10
171.2594423256391
 20
23.84300211399251
 30
0.0
 10
171.2880271583259
 20
24.00133749854116
 30
0.0
 10
171.4299312915466
 20
24.23072130366407
 30
0.0
 10
171.712905612592
 20
24.40235581998929
 30
0.0
 10
171.9335837068999
 20
24.41097009842431
 30
0.0
 10
172.0561215753425
 20
24.41575342465753
 30
0.0
  0
LINE
  5
246
330
1F
100
AcDbEntity
  8
0
  6
Continuous
 62
     7
370
    25
100
AcDbLine
 10
175.6506218149
 20
24.7396394886
 30
0.0
 11
172.0561215753
 21
24.4157534247
 31
0.0
  0
LINE
  5
247
330
1F
100
AcDbEntity
  8
0
  6
Continuous
 62
     7
370
    25
100
AcDbLine
 10
174.9349156224
 20
23.5
 30
0.0
 11
175.6506218149
 21
24.7396394886
 31
0.0
  0
LINE
  5
248
330
1F
100
AcDbEntity
  8
0
  6
Continuous
 62
     7
370
    25
100
AcDbLine
 10
178.6588248587
 20
21.35
 30
0.0
 11
174.9349156224
 21
23.5
 31
0.0
  0
LINE
  5
249
330
1F
100
AcDbEntity
  8
0
  6
Continuous
 62
     7
370
    25
100
AcDbLine
 10
172.016202911
 20
21.35
 30
0.0
 11
178.6588248587
 21
21.35
 31
0.0
  0
SPLINE
  5
24A
330
1F
100
AcDbEntity
  8
0
  6
Continuous
 62
     7
370
    25
100
AcDbSpline
210
0.0
220
0.0
230
1.0
 70
     8
 71
     3
 72
     8
 73
     4
 74
     0
 42
0.00000001
 43
0.00000001
 40
0.0
 40
0.0
 40
0.0
 40
0.0
 40
0.0905069266516362
 40
0.0905069266516362
 40
0.0905069266516362
 40
0.0905069266516362
 10
172.0162029109589
 20
21.34999999999999
 30
0.0
 10
171.9777987782709
 20
21.35213504945866
 30
0.0
 10
171.9393946455828
 20
21.35427009891733
 30
0.0
 10
171.9012356605151
 20
21.35751301755923
 30
0.0
  0
LINE
  5
24B
330
1F
100
AcDbEntity
  8
0
  6
Continuous
 62
     7
370
    25
100
AcDbLine
 10
171.3372110394
 20
21.6831527661
 30
0.0
 11
171.901235659
 21
21.3575130001
 31
0.0
  0
SPLINE
  5
24C
330
1F
100
AcDbEntity
  8
0
  6
Continuous
 62
     7
370
    25
100
AcDbSpline
210
0.0
220
0.0
230
1.0
 70
     8
 71
     3
 72
     9
 73
     5
 74
     0
 42
0.00000001
 43
0.00000001
 40
0.6281139129069852
 40
0.6281139129069852
 40
0.6281139129069852
 40
0.6281139129069852
 40
0.7252970312138378
 40
1.0
 40
1.0
 40
1.0
 40
1.0
 10
171.3372110371658
 20
21.68315276488713
 30
0.0
 10
171.3178473089798
 20
21.71965254102447
 30
0.0
 10
171.2571932509193
 20
21.86639718105837
 30
0.0
 10
171.2483287830446
 20
22.02398406075511
 30
0.0
 10
171.2417808219178
 20
22.14038955479452
 30
0.0
  0
LINE
  5
24D
330
1F
100
AcDbEntity
  8
0
  6
Continuous
 62
     7
370
    25
100
AcDbLine
 10
171.2417808219
 20
22.5771968461
 30
0.0
 11
171.2417808219
 21
22.1403895548
 31
0.0
  0
LINE
  5
24E
330
1F
100
AcDbEntity
  8
0
  6
Continuous
 62
     7
370
    25
100
AcDbLine
 10
176.351369863
 20
55.1559493678
 30
0.0
 11
176.351369863
 21
51.8025861734
 31
0.0
  0
LINE
  5
24F
330
1F
100
AcDbEntity
  8
0
  6
Continuous
 62
     7
370
    25
100
AcDbLine
 10
171.9842679795
 20
55.5842465753
 30
0.0
 11
176.351369863
 21
55.1559493678
 31
0.0
  0
SPLINE
  5
250
330
1F
100
AcDbEntity
  8
0
  6
Continuous
 62
     7
370
    25
100
AcDbSpline
210
0.0
220
0.0
230
1.0
 70
     8
 71
     3
 72
    10
 73
     6
 74
     0
 42
0.00000001
 43
0.00000001
 40
0.0
 40
0.0
 40
0.0
 40
0.0
 40
0.0541207950235932
 40
0.2779728630501687
 40
0.5455161292321445
 40
0.5455161292321445
 40
0.5455161292321445
 40
0.5455161292321445
 10
171.3831085792108
 20
55.83634305801716
 30
0.0
 10
171.3961269333091
 20
55.81800801515901
 30
0.0
 10
171.468491320866
 20
55.72780948354391
 30
0.0
 10
171.6675209585771
 20
55.60022976936418
 30
0.0
 10
171.8726073886287
 20
55.58988101787891
 30
0.0
 10
171.9842679794521
 20
55.58424657534245
 30
0.0
  0
LINE
  5
251
330
1F
100
AcDbEntity
  8
0
  6
Continuous
 62
     7
370
    25
100
AcDbLine
 10
171.7662710944
 20
56.5
 30
0.0
 11
171.3831085792
 21
55.836343058
 31
0.0
  0
LINE
  5
252
330
1F
100
AcDbEntity
  8
0
  6
Continuous
 62
     7
370
    25
100
AcDbLine
 10
171.2417808219
 20
56.8028146
 30
0.0
 11
171.7662710944
 21
56.5
 31
0.0
  0
LINE
  5
253
330
1F
100
AcDbEntity
  8
0
  6
Continuous
 62
     7
370
    25
100
AcDbLine
 10
171.2417808219
 20
57.8596104452
 30
0.0
 11
171.2417808219
 21
56.8028146
 31
0.0
  0
SPLINE
  5
254
330
1F
100
AcDbEntity
  8
0
  6
Continuous
 62
     7
370
    25
100
AcDbSpline
210
0.0
220
0.0
230
1.0
 70
     8
 71
     3
 72
    11
 73
     7
 74
     0
 42
0.00000001
 43
0.00000001
 40
0.0
 40
0.0
 40
0.0
 40
0.0
 40
0.2698873083583526
 40
0.495780817890165
 40
0.7238138559309326
 40
1.0
 40
1.0
 40
1.0
 40
1.0
 10
172.0082191780822
 20
58.64999999999999
 30
0.0
 10
171.8939476352527
 20
58.64430374931987
 30
0.0
 10
171.6840317288315
 20
58.63383978256912
 30
0.0
 10
171.4145048418172
 20
58.46675490528142
 30
0.0
 10
171.2601166534724
 20
58.18882928634062
 30
0.0
 10
171.2482698891314
 20
57.97612128801737
 30
0.0
 10
171.2417808219179
 20
57.85961044520548
 30
0.0
  0
LINE
  5
255
330
1F
100
AcDbEntity
  8
0
  6
Continuous
 62
     7
370
    25
100
AcDbLine
 10
174.78693816
 20
58.65
 30
0.0
 11
172.0082191781
 21
58.65
 31
0.0
  0
LINE
  5
256
330
1F
100
AcDbEntity
  8
0
  6
Continuous
 62
     7
370
    25
100
AcDbLine
 10
175.8226807832
 20
58.0520137176
 30
0.0
 11
174.78693816
 21
58.65
 31
0.0
  0
LINE
  5
257
330
1F
100
AcDbEntity
  8
0
  6
Continuous
 62
     7
370
    25
100
AcDbLine
 10
174.9349156224
 20
56.5143593539
 30
0.0
 11
175.8226807832
 21
58.0520137176
 31
0.0
  0
LINE
  5
258
330
1F
100
AcDbEntity
  8
0
  6
Continuous
 62
     7
370
    25
100
AcDbLine
 10
182.4828767123
 20
52.1565419869
 30
0.0
 11
174.9349156224
 21
56.5143593539
 31
0.0
  0
LINE
  5
259
330
1F
100
AcDbEntity
  8
0
  6
Continuous
 62
     7
370
    25
100
AcDbLine
 10
182.4828767123
 20
48.2625590434
 30
0.0
 11
182.4828767123
 21
52.1565419869
 31
0.0
  0
LINE
  5
25A
330
1F
100
AcDbEntity
  8
0
  6
Continuous
 62
     7
370
    25
100
AcDbLine
 10
176.351369863
 20
51.8025861734
 30
0.0
 11
182.4828767123
 21
48.2625590434
 31
0.0
  0
LINE
  5
25B
330
1F
100
AcDbEntity
  8
0
  6
Continuous
 62
     7
370
    25
100
AcDbLine
 10
186.5672570851
 20
58.0520137176
 30
0.0
 11
185.5315144619
 21
58.65
 31
0.0
  0
LINE
  5
25C
330
1F
100
AcDbEntity
  8
0
  6
Continuous
 62
     7
370
    25
100
AcDbLine
 10
185.6794919243
 20
56.5143593539
 30
0.0
 11
186.5672570851
 21
58.0520137176
 31
0.0
  0
LINE
  5
25D
330
1F
100
AcDbEntity
  8
0
  6
Continuous
 62
     7
370
    25
100
AcDbLine
 10
187.1125493079
 20
55.6869832877
 30
0.0
 11
185.6794919243
 21
56.5143593539
 31
0.0
  0
SPLINE
  5
25E
330
1F
100
AcDbEntity
  8
0
  6
Continuous
 62
     7
370
    25
100
AcDbSpline
210
0.0
220
0.0
230
1.0
 70
     8
 71
     3
 72
     9
 73
     5
 74
     0
 42
0.00000001
 43
0.00000001
 40
0.5587884277544022
 40
0.5587884277544022
 40
0.5587884277544022
 40
0.5587884277544022
 40
0.8805856973088553
 40
1.0
 40
1.0
 40
1.0
 40
1.0
 10
186.418857020548
 20
55.58424657534245
 30
0.0
 10
186.5907669583318
 20
55.58985940955478
 30
0.0
 10
186.8264701824122
 20
55.59755508519247
 30
0.0
 10
187.0532046912606
 20
55.66364701419603
 30
0.0
 10
187.1125493057435
 20
55.6869832933416
 30
0.0
  0
LINE
  5
25F
330
1F
100
AcDbEntity
  8
0
  6
Continuous
 62
     7
370
    25
100
AcDbLine
 10
182.4828767123
 20
55.2068238061
 30
0.0
 11
186.4188570205
 21
55.5842465753
 31
0.0
  0
LINE
  5
260
330
1F
100
AcDbEntity
  8
0
  6
Continuous
 62
     7
370
    25
100
AcDbLine
 10
182.4828767123
 20
54.4659430636
 30
0.0
 11
182.4828767123
 21
55.2068238061
 31
0.0
  0
LINE
  5
261
330
1F
100
AcDbEntity
  8
0
  6
Continuous
 62
     7
370
    25
100
AcDbLine
 10
181.6230822355
 20
54.9623456363
 30
0.0
 11
182.4828767123
 21
54.4659430636
 31
0.0
  0
LINE
  5
262
330
1F
100
AcDbEntity
  8
0
  6
Continuous
 62
     7
370
    25
100
AcDbLine
 10
182.5108473963
 20
56.5
 30
0.0
 11
181.6230822355
 21
54.9623456363
 31
0.0
  0
LINE
  5
263
330
1F
100
AcDbEntity
  8
0
  6
Continuous
 62
     7
370
    25
100
AcDbLine
 10
178.78693816
 20
58.65
 30
0.0
 11
182.5108473963
 21
56.5
 31
0.0
  0
LINE
  5
264
330
1F
100
AcDbEntity
  8
0
  6
Continuous
 62
     7
370
    25
100
AcDbLine
 10
185.5315144619
 20
58.65
 30
0.0
 11
178.78693816
 21
58.65
 31
0.0
  0
LINE
  5
265
330
1F
100
AcDbEntity
  8
0
  6
Continuous
 62
     7
370
    25
100
AcDbLine
 10
64.3205080757
 20
23.4856406461
 30
0.0
 11
63.6524628235
 21
22.3285523275
 31
0.0
  0
LINE
  5
266
330
1F
100
AcDbEntity
  8
0
  6
Continuous
 62
     7
370
    25
100
AcDbLine
 10
56.5807782967
 20
27.9541756953
 30
0.0
 11
64.3205080757
 21
23.4856406461
 31
0.0
  0
SPLINE
  5
267
330
1F
100
AcDbEntity
  8
0
  6
Continuous
 62
     7
370
    25
100
AcDbSpline
210
0.0
220
0.0
230
1.0
 70
     8
 71
     3
 72
    15
 73
    11
 74
     0
 42
0.00000001
 43
0.00000001
 40
0.5996734101318695
 40
0.5996734101318695
 40
0.5996734101318695
 40
0.5996734101318695
 40
0.6339412906059934
 40
0.6726037011550158
 40
0.7113211080484092
 40
0.7507425181753872
 40
0.7907970294314566
 40
0.8317950737094713
 40
0.8734217847742625
 40
0.8747761629912796
 40
0.8747761629912796
 40
0.8747761629912796
 40
0.8747761629912796
 10
56.58077829674878
 20
27.95417569525872
 30
0.0
 10
56.36110789968315
 20
28.24509937670399
 30
0.0
 10
55.91518199352998
 20
28.88055623323989
 30
0.0
 10
55.27858011030238
 20
29.88428735266947
 30
0.0
 10
54.70410310057963
 20
30.9875654827734
 30
0.0
 10
54.19445438339531
 20
32.13756995527775
 30
0.0
 10
53.74309134454292
 20
33.33818717023262
 30
0.0
 10
53.37348972281367
 20
34.59052451434812
 30
0.0
 10
53.16396096027066
 20
35.45986539522359
 30
0.0
 10
53.07703587980919
 20
35.90867488277925
 30
0.0
 10
53.07431658334373
 20
35.92282109323803
 30
0.0
  0
LINE
  5
268
330
1F
100
AcDbEntity
  8
0
  6
Continuous
 62
     7
370
    25
100
AcDbLine
 10
57.6323414627
 20
33.2912442022
 30
0.0
 11
53.0743165833
 21
35.9228210932
 31
0.0
  0
LINE
  5
269
330
1F
100
AcDbEntity
  8
0
  6
Continuous
 62
     7
370
    25
100
AcDbLine
 10
56.7445763019
 20
31.7535898385
 30
0.0
 11
57.6323414627
 21
33.2912442022
 31
0.0
  0
LINE
  5
26A
330
1F
100
AcDbEntity
  8
0
  6
Continuous
 62
     7
370
    25
100
AcDbLine
 10
66.5262798583
 20
26.1061206571
 30
0.0
 11
56.7445763019
 21
31.7535898385
 31
0.0
  0
SPLINE
  5
26B
330
1F
100
AcDbEntity
  8
0
  6
Continuous
 62
     7
370
    25
100
AcDbSpline
210
0.0
220
0.0
230
1.0
 70
     8
 71
     3
 72
     9
 73
     5
 74
     0
 42
0.00000001
 43
0.00000001
 40
0.7343481301174772
 40
0.7343481301174772
 40
0.7343481301174772
 40
0.7343481301174772
 40
0.7433700586467095
 40
0.7588784095980826
 40
0.7588784095980826
 40
0.7588784095980826
 40
0.7588784095980826
 10
67.04812832575647
 20
25.77289048624414
 30
0.0
 10
66.98324711869022
 20
25.8123061686131
 30
0.0
 10
66.80773059675784
 20
25.9209472183297
 30
0.0
 10
66.63466759986166
 20
26.03346364241856
 30
0.0
 10
66.52627985828313
 20
26.10612065705804
 30
0.0
  0
SPLINE
  5
26C
330
1F
100
AcDbEntity
  8
0
  6
Continuous
 62
     7
370
    25
100
AcDbSpline
210
0.0
220
0.0
230
1.0
 70
     8
 71
     3
 72
     8
 73
     4
 74
     0
 42
0.00000001
 43
0.00000001
 40
0.7114292655886795
 40
0.7114292655886795
 40
0.7114292655886795
 40
0.7114292655886795
 40
0.7588784095980826
 40
0.7588784095980826
 40
0.7588784095980826
 40
0.7588784095980826
 10
67.04812832575645
 20
25.77289048624415
 30
0.0
 10
67.38935888722843
 20
25.56559108424889
 30
0.0
 10
67.73967410907369
 20
25.37325955152904
 30
0.0
 10
68.09857261657966
 20
25.1983570098107
 30
0.0
  0
LINE
  5
26D
330
1F
100
AcDbEntity
  8
0
  6
Continuous
 62
     7
370
    25
100
AcDbLine
 10
68.3769177645
 20
25.0376543637
 30
0.0
 11
68.0985726166
 21
25.1983570098
 31
0.0
  0
LINE
  5
26E
330
1F
100
AcDbEntity
  8
0
  6
Continuous
 62
     7
370
    25
100
AcDbLine
 10
67.4891526037
 20
23.5
 30
0.0
 11
68.3769177645
 21
25.0376543637
 31
0.0
  0
LINE
  5
26F
330
1F
100
AcDbEntity
  8
0
  6
Continuous
 62
     7
370
    25
100
AcDbLine
 10
72.9732566769
 20
20.3337510371
 30
0.0
 11
67.4891526037
 21
23.5
 31
0.0
  0
SPLINE
  5
270
330
1F
100
AcDbEntity
  8
0
  6
Continuous
 62
     7
370
    25
100
AcDbSpline
210
0.0
220
0.0
230
1.0
 70
     8
 71
     3
 72
    14
 73
    10
 74
     0
 42
0.00000001
 43
0.00000001
 40
0.0129044447886885
 40
0.0129044447886885
 40
0.0129044447886885
 40
0.0129044447886885
 40
0.0485480990298235
 40
0.0954998514331996
 40
0.1412444644529997
 40
0.1856950363021076
 40
0.2293364377346716
 40
0.2719798247710549
 40
0.3137696644739105
 40
0.3137696644739105
 40
0.3137696644739105
 40
0.3137696644739105
 10
72.97325667688317
 20
20.33375103702122
 30
0.0
 10
72.59403806912573
 20
20.33966220975756
 30
0.0
 10
71.71558248898228
 20
20.36000197777916
 30
0.0
 10
70.3545360797497
 20
20.48158066405322
 30
0.0
 10
68.9094944822633
 20
20.68656690471947
 30
0.0
 10
67.51346088414968
 20
20.97207791237361
 30
0.0
 10
66.17378457223053
 20
21.34964158615293
 30
0.0
 10
64.88640887671778
 20
21.79752491173577
 30
0.0
 10
64.05598362573384
 20
22.1419793745552
 30
0.0
 10
63.65246282348917
 20
22.32855232749027
 30
0.0
  0
SPLINE
  5
271
330
1F
100
AcDbEntity
  8
0
  6
Continuous
 62
     7
370
    25
100
AcDbSpline
210
0.0
220
0.0
230
1.0
 70
     8
 71
     3
 72
    11
 73
     7
 74
     0
 42
0.00000001
 43
0.00000001
 40
0.1079803157939116
 40
0.1079803157939116
 40
0.1079803157939116
 40
0.1079803157939116
 40
0.1394338586143894
 40
0.2066465765075057
 40
0.2732396297847922
 40
0.2928364638118758
 40
0.2928364638118758
 40
0.2928364638118758
 40
0.2928364638118758
 10
59.50253910280944
 20
38.41486911050772
 30
0.0
 10
59.53391839001392
 20
38.15210222793013
 30
0.0
 10
59.64950591978517
 20
37.3298744088529
 30
0.0
 10
59.93562906869901
 20
35.96852962207077
 30
0.0
 10
60.29130783201317
 20
34.72661934906834
 30
0.0
 10
60.53687139189298
 20
34.04451212979408
 30
0.0
 10
60.59488089792266
 20
33.89022233660237
 30
0.0
  0
LINE
  5
272
330
1F
100
AcDbEntity
  8
0
  6
Continuous
 62
     7
370
    25
100
AcDbLine
 10
52.7464602344
 20
38.4215101216
 30
0.0
 11
60.5948808999
 21
33.8902223374
 31
0.0
  0
SPLINE
  5
273
330
1F
100
AcDbEntity
  8
0
  6
Continuous
 62
     7
370
    25
100
AcDbSpline
210
0.0
220
0.0
230
1.0
 70
     8
 71
     3
 72
     9
 73
     5
 74
     0
 42
0.00000001
 43
0.00000001
 40
0.9550690869198923
 40
0.9550690869198923
 40
0.9550690869198923
 40
0.9550690869198923
 40
0.9965606859294452
 40
1.0
 40
1.0
 40
1.0
 40
1.0
 10
52.69985133781815
 20
39.85454639417085
 30
0.0
 10
52.70554875338406
 20
39.41293381620302
 30
0.0
 10
52.71241210593669
 20
38.93475514208015
 30
0.0
 10
52.74391177100583
 20
38.45799615825452
 30
0.0
 10
52.74646023435
 20
38.42151012163691
 30
0.0
  0
SPLINE
  5
274
330
1F
100
AcDbEntity
  8
0
  6
Continuous
 62
     7
370
    25
100
AcDbSpline
210
0.0
220
0.0
230
1.0
 70
     8
 71
     3
 72
     8
 73
     4
 74
     0
 42
0.00000001
 43
0.00000001
 40
0.9986951249552228
 40
0.9986951249552228
 40
0.9986951249552228
 40
0.9986951249552228
 40
1.0
 40
1.0
 40
1.0
 40
1.0
 10
52.69985133781815
 20
39.85454639417085
 30
0.0
 10
52.69967215900679
 20
39.8684347293087
 30
0.0
 10
52.69949361374997
 20
39.88232310095572
 30
0.0
 10
52.69931506849315
 20
39.89621147260273
 30
0.0
  0
SPLINE
  5
275
330
1F
100
AcDbEntity
  8
0
  6
Continuous
 62
     7
370
    25
100
AcDbSpline
210
0.0
220
0.0
230
1.0
 70
     8
 71
     3
 72
    10
 73
     6
 74
     0
 42
0.00000001
 43
0.00000001
 40
0.0
 40
0.0
 40
0.0
 40
0.0
 40
0.0470352642913258
 40
0.0923439356706284
 40
0.1301534444074606
 40
0.1301534444074606
 40
0.1301534444074606
 40
0.1301534444074606
 10
52.69931506849315
 20
39.89621147260273
 30
0.0
 10
52.70736479493341
 20
40.41290725423504
 30
0.0
 10
52.72316875461696
 20
41.42733170234298
 30
0.0
 10
52.87448797047401
 20
42.85035060813883
 30
0.0
 10
53.02396468617517
 20
43.75133394805044
 30
0.0
 10
53.1052431174762
 20
44.15855548805528
 30
0.0
  0
LINE
  5
276
330
1F
100
AcDbEntity
  8
0
  6
Continuous
 62
     7
370
    25
100
AcDbLine
 10
57.6323414627
 20
41.5448340407
 30
0.0
 11
53.1052431175
 21
44.1585554881
 31
0.0
  0
LINE
  5
277
330
1F
100
AcDbEntity
  8
0
  6
Continuous
 62
     7
370
    25
100
AcDbLine
 10
56.7445763019
 20
40.007179677
 30
0.0
 11
57.6323414627
 21
41.5448340407
 31
0.0
  0
LINE
  5
278
330
1F
100
AcDbEntity
  8
0
  6
Continuous
 62
     7
370
    25
100
AcDbLine
 10
59.5025391028
 20
38.4148691105
 30
0.0
 11
56.7445763019
 21
40.007179677
 31
0.0
  0
SPLINE
  5
279
330
1F
100
AcDbEntity
  8
0
  6
Continuous
 62
     7
370
    25
100
AcDbSpline
210
0.0
220
0.0
230
1.0
 70
     8
 71
     3
 72
    10
 73
     6
 74
     0
 42
0.00000001
 43
0.00000001
 40
0.3536822816004789
 40
0.3536822816004789
 40
0.3536822816004789
 40
0.3536822816004789
 40
0.4694223122736298
 40
0.5951009096398253
 40
0.6756282220102355
 40
0.6756282220102355
 40
0.6756282220102355
 40
0.6756282220102355
 10
160.4683522321891
 20
32.05870296070345
 30
0.0
 10
160.6078187083958
 20
32.45714564435269
 30
0.0
 10
160.863823783978
 20
33.3007222991226
 30
0.0
 10
161.1222057887163
 20
34.44725776003856
 30
0.0
 10
161.244400992939
 20
35.18949100193001
 30
0.0
 10
161.2867481997851
 20
35.48018477265411
 30
0.0
  0
LINE
  5
27A
330
1F
100
AcDbEntity
  8
0
  6
Continuous
 62
     7
370
    25
100
AcDbLine
 10
165.0781044814
 20
33.2912442022
 30
0.0
 11
161.2867481982
 21
35.4801847729
 31
0.0
  0
LINE
  5
27B
330
1F
100
AcDbEntity
  8
0
  6
Continuous
 62
     7
370
    25
100
AcDbLine
 10
164.1903393206
 20
31.7535898385
 30
0.0
 11
165.0781044814
 21
33.2912442022
 31
0.0
  0
LINE
  5
27C
330
1F
100
AcDbEntity
  8
0
  6
Continuous
 62
     7
370
    25
100
AcDbLine
 10
166.0944387783
 20
30.654257504
 30
0.0
 11
164.1903393206
 21
31.7535898385
 31
0.0
  0
SPLINE
  5
27D
330
1F
100
AcDbEntity
  8
0
  6
Continuous
 62
     7
370
    25
100
AcDbSpline
210
0.0
220
0.0
230
1.0
 70
     8
 71
     3
 72
     9
 73
     5
 74
     0
 42
0.00000001
 43
0.00000001
 40
0.6366583253239159
 40
0.6366583253239159
 40
0.6366583253239159
 40
0.6366583253239159
 40
0.7525397572617479
 40
0.8568729446502353
 40
0.8568729446502353
 40
0.8568729446502353
 40
0.8568729446502353
 10
166.0944387785978
 20
30.65425750385726
 30
0.0
 10
165.8314056699266
 20
30.12370815620204
 30
0.0
 10
165.2795032126883
 20
29.14131211751398
 30
0.0
 10
164.6534569589382
 20
28.20373314386345
 30
0.0
 10
164.3359564836254
 20
27.77553479739266
 30
0.0
  0
LINE
  5
27E
330
1F
100
AcDbEntity
  8
0
  6
Continuous
 62
     7
370
    25
100
AcDbLine
 10
160.1339296317
 20
30.2015761208
 30
0.0
 11
164.3359564836
 21
27.7755347974
 31
0.0
  0
LINE
  5
27F
330
1F
100
AcDbEntity
  8
0
  6
Continuous
 62
     7
370
    25
100
AcDbLine
 10
161.0216947925
 20
31.7392304845
 30
0.0
 11
160.1339296317
 21
30.2015761208
 31
0.0
  0
LINE
  5
280
330
1F
100
AcDbEntity
  8
0
  6
Continuous
 62
     7
370
    25
100
AcDbLine
 10
160.4683522322
 20
32.0587029607
 30
0.0
 11
161.0216947925
 21
31.7392304845
 31
0.0
  0
SPLINE
  5
281
330
1F
100
AcDbEntity
  8
0
  6
Continuous
 62
     7
370
    25
100
AcDbSpline
210
0.0
220
0.0
230
1.0
 70
     8
 71
     3
 72
    10
 73
     6
 74
     0
 42
0.00000001
 43
0.00000001
 40
0.6816056164054074
 40
0.6816056164054074
 40
0.6816056164054074
 40
0.6816056164054074
 40
0.7375981717934698
 40
0.8659380781575116
 40
1.0
 40
1.0
 40
1.0
 40
1.0
 10
102.7207350304302
 20
59.14315471159001
 30
0.0
 10
103.0003328575488
 20
59.20851080329238
 30
0.0
 10
103.9256360902417
 20
59.40323160360443
 30
0.0
 10
105.5464899617888
 20
59.62400248616745
 30
0.0
 10
106.8920460252833
 20
59.65571551946221
 30
0.0
 10
107.5794948630137
 20
59.67191780821917
 30
0.0
  0
SPLINE
  5
282
330
1F
100
AcDbEntity
  8
0
  6
Continuous
 62
     7
370
    25
100
AcDbSpline
210
0.0
220
0.0
230
1.0
 70
     8
 71
     3
 72
     8
 73
     4
 74
     0
 42
0.00000001
 43
0.00000001
 40
0.0
 40
0.0
 40
0.0
 40
0.0
 40
0.0655385040152317
 40
0.0655385040152317
 40
0.0655385040152317
 40
0.0655385040152317
 10
107.5794948630137
 20
59.67191780821917
 30
0.0
 10
107.9185817562733
 20
59.66428145634534
 30
0.0
 10
108.2576686495329
 20
59.65664510447149
 30
0.0
 10
108.5964878969112
 20
59.64477015590161
 30
0.0
  0
LINE
  5
283
330
1F
100
AcDbEntity
  8
0
  6
Continuous
 62
     7
370
    25
100
AcDbLine
 10
111.355222972
 20
58.0520137176
 30
0.0
 11
108.5964878969
 21
59.6447701559
 31
0.0
  0
LINE
  5
284
330
1F
100
AcDbEntity
  8
0
  6
Continuous
 62
     7
370
    25
100
AcDbLine
 10
110.4674578112
 20
56.5143593539
 30
0.0
 11
111.355222972
 21
58.0520137176
 31
0.0
  0
LINE
  5
285
330
1F
100
AcDbEntity
  8
0
  6
Continuous
 62
     7
370
    25
100
AcDbLine
 10
122.0997992739
 20
49.7984238792
 30
0.0
 11
110.4674578112
 21
56.5143593539
 31
0.0
  0
LINE
  5
286
330
1F
100
AcDbEntity
  8
0
  6
Continuous
 62
     7
370
    25
100
AcDbLine
 10
121.2120341131
 20
48.2607695155
 30
0.0
 11
122.0997992739
 21
49.7984238792
 31
0.0
  0
LINE
  5
287
330
1F
100
AcDbEntity
  8
0
  6
Continuous
 62
     7
370
    25
100
AcDbLine
 10
126.2048566714
 20
45.3781620674
 30
0.0
 11
121.2120341131
 21
48.2607695155
 31
0.0
  0
SPLINE
  5
288
330
1F
100
AcDbEntity
  8
0
  6
Continuous
 62
     7
370
    25
100
AcDbSpline
210
0.0
220
0.0
230
1.0
 70
     8
 71
     3
 72
     9
 73
     5
 74
     0
 42
0.00000001
 43
0.00000001
 40
0.6520751503898796
 40
0.6520751503898796
 40
0.6520751503898796
 40
0.6520751503898796
 40
0.7366098058924114
 40
0.8432101506129996
 40
0.8432101506129996
 40
0.8432101506129996
 40
0.8432101506129996
 10
126.2048566649155
 20
45.37816206588992
 30
0.0
 10
126.3030618673746
 20
44.95882934367813
 30
0.0
 10
126.4946273847541
 20
44.00337163923612
 30
0.0
 10
126.6274590509392
 20
43.03742072400355
 30
0.0
 10
126.6786763674186
 20
42.49684854272713
 30
0.0
  0
SPLINE
  5
289
330
1F
100
AcDbEntity
  8
0
  6
Continuous
 62
     7
370
    25
100
AcDbSpline
210
0.0
220
0.0
230
1.0
 70
     8
 71
     3
 72
     9
 73
     5
 74
     0
 42
0.00000001
 43
0.00000001
 40
0.6520751503898801
 40
0.6520751503898801
 40
0.6520751503898801
 40
0.6520751503898801
 40
0.7166222506425631
 40
0.7395619654324264
 40
0.7395619654324264
 40
0.7395619654324264
 40
0.7395619654324264
 10
126.7612718196012
 20
41.16293268835295
 30
0.0
 10
126.7496218463556
 20
41.49154447817054
 30
0.0
 10
126.7276936825142
 20
41.93654886542501
 30
0.0
 10
126.6896980075026
 20
42.38052085453513
 30
0.0
 10
126.6786763674186
 20
42.49684854272713
 30
0.0
  0
LINE
  5
28A
330
1F
100
AcDbEntity
  8
0
  6
Continuous
 62
     7
370
    25
100
AcDbLine
 10
119.2772115482
 20
45.4838569007
 30
0.0
 11
126.7612718196
 21
41.1629326884
 31
0.0
  0
SPLINE
  5
28B
330
1F
100
AcDbEntity
  8
0
  6
Continuous
 62
     7
370
    25
100
AcDbSpline
210
0.0
220
0.0
230
1.0
 70
     8
 71
     3
 72
    12
 73
     8
 74
     0
 42
0.00000001
 43
0.00000001
 40
0.5184740914366844
 40
0.5184740914366844
 40
0.5184740914366844
 40
0.5184740914366844
 40
0.5211867811281821
 40
0.6425873009161831
 40
0.7626742875110927
 40
0.8812427581502693
 40
0.9999999999999999
 40
0.9999999999999999
 40
0.9999999999999999
 40
0.9999999999999999
 10
119.2772115481911
 20
45.48385690068856
 30
0.0
 10
119.2740433400329
 20
45.49482693183064
 30
0.0
 10
119.1286753779521
 20
45.99662151553166
 30
0.0
 10
118.8053644309911
 20
46.97348702119321
 30
0.0
 10
118.1932497446784
 20
48.36104787375793
 30
0.0
 10
117.4864957964378
 20
49.69150790711983
 30
0.0
 10
116.9230024535868
 20
50.51677070046647
 30
0.0
 10
116.6410316780822
 20
50.92973030821916
 30
0.0
  0
SPLINE
  5
28C
330
1F
100
AcDbEntity
  8
0
  6
Continuous
 62
     7
370
    25
100
AcDbSpline
210
0.0
220
0.0
230
1.0
 70
     8
 71
     3
 72
     8
 73
     4
 74
     0
 42
0.00000001
 43
0.00000001
 40
0.0
 40
0.0
 40
0.0
 40
0.0
 40
0.054036883139754
 40
0.054036883139754
 40
0.054036883139754
 40
0.054036883139754
 10
116.6410316780822
 20
50.92973030821916
 30
0.0
 10
116.5164155191371
 20
51.09406347574318
 30
0.0
 10
116.3917993601921
 20
51.25839664326719
 30
0.0
 10
116.2654203703628
 20
51.42123306489982
 30
0.0
  0
SPLINE
  5
28D
330
1F
100
AcDbEntity
  8
0
  6
Continuous
 62
     7
370
    25
100
AcDbSpline
210
0.0
220
0.0
230
1.0
 70
     8
 71
     3
 72
    10
 73
     6
 74
     0
 42
0.00000001
 43
0.00000001
 40
0.6322404111233167
 40
0.6322404111233167
 40
0.6322404111233167
 40
0.6322404111233167
 40
0.7255867410408106
 40
0.8544046538243246
 40
0.9359732617573757
 40
0.9359732617573757
 40
0.9359732617573757
 40
0.9359732617573757
 10
113.8144971509072
 20
53.87033870876624
 30
0.0
 10
114.0982285772685
 20
53.6553061445403
 30
0.0
 10
114.7501238461718
 20
53.11260332498246
 30
0.0
 10
115.572248804906
 20
52.29222324491362
 30
0.0
 10
116.0746514423009
 20
51.66703444095339
 30
0.0
 10
116.2654203703625
 20
51.42123306490028
 30
0.0
  0
SPLINE
  5
28E
330
1F
100
AcDbEntity
  8
0
  6
Continuous
 62
     7
370
    25
100
AcDbSpline
210
0.0
220
0.0
230
1.0
 70
     8
 71
     3
 72
    11
 73
     7
 74
     0
 42
0.00000001
 43
0.00000001
 40
0.3577697337738612
 40
0.3577697337738612
 40
0.3577697337738612
 40
0.3577697337738612
 40
0.3880381288032972
 40
0.5087112423817377
 40
0.62897995430818
 40
0.6890384824881433
 40
0.6890384824881433
 40
0.6890384824881433
 40
0.6890384824881433
 10
113.8144971509072
 20
53.87033870876624
 30
0.0
 10
113.7224946597224
 20
53.94006497014081
 30
0.0
 10
113.2585474837029
 20
54.28096071279968
 30
0.0
 10
112.3773970437537
 20
54.82806473124092
 30
0.0
 10
111.3280801213412
 20
55.30059650123012
 30
0.0
 10
110.6772377063726
 20
55.52426289524099
 30
0.0
 10
110.4583598677507
 20
55.59199065120222
 30
0.0
  0
SPLINE
  5
28F
330
1F
100
AcDbEntity
  8
0
  6
Continuous
 62
     7
370
    25
100
AcDbSpline
210
0.0
220
0.0
230
1.0
 70
     8
 71
     3
 72
    10
 73
     6
 74
     0
 42
0.00000001
 43
0.00000001
 40
0.0
 40
0.0
 40
0.0
 40
0.0
 40
0.1179323974232522
 40
0.2404863379311851
 40
0.3009716624090366
 40
0.3009716624090366
 40
0.3009716624090366
 40
0.3009716624090366
 10
107.063107517894
 20
56.09174562331656
 30
0.0
 10
107.5129834827097
 20
56.07799683807357
 30
0.0
 10
108.4299613004533
 20
56.04512171466853
 30
0.0
 10
109.5643717080632
 20
55.84584822867944
 30
0.0
 10
110.2379266088738
 20
55.66019970359852
 30
0.0
 10
110.4583598677507
 20
55.59199065120222
 30
0.0
  0
LINE
  5
290
330
1F
100
AcDbEntity
  8
0
  6
Continuous
 62
     7
370
    25
100
AcDbLine
 10
107.2988132832
 20
56.5
 30
0.0
 11
107.0631075179
 21
56.0917456233
 31
0.0
  0
LINE
  5
291
330
1F
100
AcDbEntity
  8
0
  6
Continuous
 62
     7
370
    25
100
AcDbLine
 10
102.7207350304
 20
59.1431547116
 30
0.0
 11
107.2988132832
 21
56.5
 31
0.0
  0
LINE
  5
292
330
1F
100
AcDbEntity
  8
0
  6
Continuous
 62
     7
370
    25
100
AcDbLine
 10
118.043389585
 20
56.5
 30
0.0
 11
117.1556244242
 21
54.9623456363
 31
0.0
  0
LINE
  5
293
330
1F
100
AcDbEntity
  8
0
  6
Continuous
 62
     7
370
    25
100
AcDbLine
 10
114.1859836658
 20
58.7270743234
 30
0.0
 11
118.043389585
 21
56.5
 31
0.0
  0
SPLINE
  5
294
330
1F
100
AcDbEntity
  8
0
  6
Continuous
 62
     7
370
    25
100
AcDbSpline
210
0.0
220
0.0
230
1.0
 70
     8
 71
     3
 72
     9
 73
     5
 74
     0
 42
0.00000001
 43
0.00000001
 40
0.8298896145599691
 40
0.8298896145599691
 40
0.8298896145599691
 40
0.8298896145599691
 40
0.9124403574558629
 40
1.0
 40
1.0
 40
1.0
 40
1.0
 10
116.6382257252996
 20
57.75402451794877
 30
0.0
 10
116.2551326903111
 20
57.94306982571194
 30
0.0
 10
115.4497822945097
 20
58.30086698947817
 30
0.0
 10
114.6186440566408
 20
58.59256021095909
 30
0.0
 10
114.1859836657976
 20
58.7270743234297
 30
0.0
  0
SPLINE
  5
295
330
1F
100
AcDbEntity
  8
0
  6
Continuous
 62
     7
370
    25
100
AcDbSpline
210
0.0
220
0.0
230
1.0
 70
     8
 71
     3
 72
    10
 73
     6
 74
     0
 42
0.00000001
 43
0.00000001
 40
0.6017222178348548
 40
0.6017222178348548
 40
0.6017222178348548
 40
0.6017222178348548
 40
0.6395596875528278
 40
0.7585154791347128
 40
0.8632612035249665
 40
0.8632612035249665
 40
0.8632612035249665
 40
0.8632612035249665
 10
116.6382257252997
 20
57.75402451794876
 30
0.0
 10
116.8138179804636
 20
57.66737483004909
 30
0.0
 10
117.5347225383079
 20
57.29489103522366
 30
0.0
 10
118.686181243356
 20
56.58123331600871
 30
0.0
 10
119.6145674157932
 20
55.88554018320063
 30
0.0
 10
120.0275503187508
 20
55.53512128762151
 30
0.0
  0
SPLINE
  5
296
330
1F
100
AcDbEntity
  8
0
  6
Continuous
 62
     7
370
    25
100
AcDbSpline
210
0.0
220
0.0
230
1.0
 70
     8
 71
     3
 72
     9
 73
     5
 74
     0
 42
0.00000001
 43
0.00000001
 40
0.4316118323948231
 40
0.4316118323948231
 40
0.4316118323948231
 40
0.4316118323948231
 40
0.5535079612274204
 40
0.5683506288698567
 40
0.5683506288698567
 40
0.5683506288698567
 40
0.5683506288698567
 10
121.559011130137
 20
54.06733732876712
 30
0.0
 10
121.1170035106238
 20
54.51796049737519
 30
0.0
 10
120.6211748858442
 20
55.02345374256147
 30
0.0
 10
120.0860707787151
 20
55.48546626606348
 30
0.0
 10
120.0275503187508
 20
55.53512128762151
 30
0.0
  0
SPLINE
  5
297
330
1F
100
AcDbEntity
  8
0
  6
Continuous
 62
     7
370
    25
100
AcDbSpline
210
0.0
220
0.0
230
1.0
 70
     8
 71
     3
 72
     8
 73
     4
 74
     0
 42
0.00000001
 43
0.00000001
 40
0.1589402893207767
 40
0.1589402893207767
 40
0.1589402893207767
 40
0.1589402893207767
 40
0.2452607520408928
 40
0.2452607520408928
 40
0.2452607520408928
 40
0.2452607520408928
 10
122.4250224973511
 20
53.07169348052327
 30
0.0
 10
122.1433538364334
 20
53.4091918082347
 30
0.0
 10
121.8511824832852
 20
53.73826456850091
 30
0.0
 10
121.559011130137
 20
54.06733732876712
 30
0.0
  0
SPLINE
  5
298
330
1F
100
AcDbEntity
  8
0
  6
Continuous
 62
     7
370
    25
100
AcDbSpline
210
0.0
220
0.0
230
1.0
 70
     8
 71
     3
 72
     9
 73
     5
 74
     0
 42
0.00000001
 43
0.00000001
 40
0.0863204627200225
 40
0.0863204627200225
 40
0.0863204627200225
 40
0.0863204627200225
 40
0.1241605331404437
 40
0.2452607520408924
 40
0.2452607520408924
 40
0.2452607520408924
 40
0.2452607520408924
 10
122.4250224973502
 20
53.07169348052436
 30
0.0
 10
122.5484968350505
 20
52.92374524108104
 30
0.0
 10
123.0586508597289
 20
52.29551498067966
 30
0.0
 10
123.5175882628632
 20
51.62619724578474
 30
0.0
 10
123.8428758739205
 20
51.10145921187873
 30
0.0
  0
LINE
  5
299
330
1F
100
AcDbEntity
  8
0
  6
Continuous
 62
     7
370
    25
100
AcDbLine
 10
117.1556244242
 20
54.9623456363
 30
0.0
 11
123.8428758739
 21
51.1014592119
 31
0.0
  0
LINE
  5
29A
330
1F
100
AcDbEntity
  8
0
  6
Continuous
 62
     7
370
    25
100
AcDbLine
 10
138.9924431074
 20
30.8037514344
 30
0.0
 11
138.644777028
 21
30.2015761208
 31
0.0
  0
SPLINE
  5
29B
330
1F
100
AcDbEntity
  8
0
  6
Continuous
 62
     7
370
    25
100
AcDbSpline
210
0.0
220
0.0
230
1.0
 70
     8
 71
     3
 72
     9
 73
     5
 74
     0
 42
0.00000001
 43
0.00000001
 40
0.1525304831360566
 40
0.1525304831360566
 40
0.1525304831360566
 40
0.1525304831360566
 40
0.2118024227385282
 40
0.2441931878745093
 40
0.2441931878745093
 40
0.2441931878745093
 40
0.2441931878745093
 10
138.9924431073495
 20
30.80375143438634
 30
0.0
 10
139.1426436399129
 20
30.53014782833702
 30
0.0
 10
139.3875255749814
 20
30.11391342676661
 30
0.0
 10
139.6495883900409
 20
29.70852477399979
 30
0.0
 10
139.744372503097
 20
29.56672436374537
 30
0.0
  0
LINE
  5
29C
330
1F
100
AcDbEntity
  8
0
  6
Continuous
 62
     7
370
    25
100
AcDbLine
 10
138.644777028
 20
30.2015761208
 30
0.0
 11
139.7443725031
 21
29.5667243637
 31
0.0
  0
SPLINE
  5
29D
330
1F
100
AcDbEntity
  8
0
  6
Continuous
 62
     7
370
    25
100
AcDbSpline
210
0.0
220
0.0
230
1.0
 70
     8
 71
     3
 72
     8
 73
     4
 74
     0
 42
0.00000001
 43
0.00000001
 40
0.9905509385787395
 40
0.9905509385787395
 40
0.9905509385787395
 40
0.9905509385787395
 40
1.0
 40
1.0
 40
1.0
 40
1.0
 10
149.5444087279763
 20
23.90867082477165
 30
0.0
 10
149.594165004433
 20
23.90733688362425
 30
0.0
 10
149.6439253960521
 20
23.9060657020861
 30
0.0
 10
149.6936857876713
 20
23.90479452054794
 30
0.0
  0
SPLINE
  5
29E
330
1F
100
AcDbEntity
  8
0
  6
Continuous
 62
     7
370
    25
100
AcDbSpline
210
0.0
220
0.0
230
1.0
 70
     8
 71
     3
 72
    11
 73
     7
 74
     0
 42
0.00000001
 43
0.00000001
 40
0.0
 40
0.0
 40
0.0
 40
0.0
 40
0.1342397534876778
 40
0.2625457381711542
 40
0.3858006363024704
 40
0.428237466369921
 40
0.428237466369921
 40
0.428237466369921
 40
0.428237466369921
 10
149.6936857876712
 20
23.90479452054794
 30
0.0
 10
150.1709914903031
 20
23.91719335753165
 30
0.0
 10
151.1045046618858
 20
23.94144296857292
 30
0.0
 10
152.4603644680362
 20
24.17188072007166
 30
0.0
 10
153.4662265308838
 20
24.46112357130446
 30
0.0
 10
154.0163473002014
 20
24.67258475695858
 30
0.0
 10
154.1559053788856
 20
24.73000264842268
 30
0.0
  0
LINE
  5
29F
330
1F
100
AcDbEntity
  8
0
  6
Continuous
 62
     7
370
    25
100
AcDbLine
 10
153.4457630187
 20
23.5
 30
0.0
 11
154.1559053789
 21
24.7300026484
 31
0.0
  0
LINE
  5
2A0
330
1F
100
AcDbEntity
  8
0
  6
Continuous
 62
     7
370
    25
100
AcDbLine
 10
156.6042794467
 20
21.6764296901
 30
0.0
 11
153.4457630187
 21
23.5
 31
0.0
  0
SPLINE
  5
2A1
330
1F
100
AcDbEntity
  8
0
  6
Continuous
 62
     7
370
    25
100
AcDbSpline
210
0.0
220
0.0
230
1.0
 70
     8
 71
     3
 72
     8
 73
     4
 74
     0
 42
0.00000001
 43
0.00000001
 40
0.8110823301899879
 40
0.8110823301899879
 40
0.8110823301899879
 40
0.8110823301899879
 40
0.8114332236224238
 40
0.8114332236224238
 40
0.8114332236224238
 40
0.8114332236224238
 10
156.599195596259
 20
21.6744111879383
 30
0.0
 10
156.6008903216018
 20
21.67508374745985
 30
0.0
 10
156.6025849385823
 20
21.67575658116095
 30
0.0
 10
156.6042794470942
 20
21.67642968905517
 30
0.0
  0
SPLINE
  5
2A2
330
1F
100
AcDbEntity
  8
0
  6
Continuous
 62
     7
370
    25
100
AcDbSpline
210
0.0
220
0.0
230
1.0
 70
     8
 71
     3
 72
    10
 73
     6
 74
     0
 42
0.00000001
 43
0.00000001
 40
0.4997671732071612
 40
0.4997671732071612
 40
0.4997671732071612
 40
0.4997671732071612
 40
0.6069540454555158
 40
0.7327498141087452
 40
0.8114332236224238
 40
0.8114332236224238
 40
0.8114332236224238
 40
0.8114332236224238
 10
156.5991955962589
 20
21.67441118793828
 30
0.0
 10
156.0815104758749
 20
21.4689654746465
 30
0.0
 10
154.9342857991051
 20
21.07801586244247
 30
0.0
 10
153.3548593462372
 20
20.71428515274756
 30
0.0
 10
152.304393972454
 20
20.54975468092069
 30
0.0
 10
151.8987720020968
 20
20.49917273641566
 30
0.0
  0
LINE
  5
2A3
330
1F
100
AcDbEntity
  8
0
  6
Continuous
 62
     7
370
    25
100
AcDbLine
 10
149.3893533298
 20
21.9479862824
 30
0.0
 11
151.8987720021
 21
20.4991727364
 31
0.0
  0
LINE
  5
2A4
330
1F
100
AcDbEntity
  8
0
  6
Continuous
 62
     7
370
    25
100
AcDbLine
 10
150.2771184906
 20
23.4856406461
 30
0.0
 11
149.3893533298
 21
21.9479862824
 31
0.0
  0
LINE
  5
2A5
330
1F
100
AcDbEntity
  8
0
  6
Continuous
 62
     7
370
    25
100
AcDbLine
 10
149.544408728
 20
23.9086708248
 30
0.0
 11
150.2771184906
 21
23.4856406461
 31
0.0
  0
LINE
  5
2A6
330
1F
100
AcDbEntity
  8
0
  6
Continuous
 62
     7
370
    25
100
AcDbLine
 10
160.7647634001
 20
56.0549817743
 30
0.0
 11
160.1339296317
 21
54.9623456363
 31
0.0
  0
SPLINE
  5
2A7
330
1F
100
AcDbEntity
  8
0
  6
Continuous
 62
     7
370
    25
100
AcDbSpline
210
0.0
220
0.0
230
1.0
 70
     8
 71
     3
 72
     9
 73
     5
 74
     0
 42
0.00000001
 43
0.00000001
 40
0.8096083387509503
 40
0.8096083387509503
 40
0.8096083387509503
 40
0.8096083387509503
 40
0.8781038711674028
 40
0.8905118598600502
 40
0.8905118598600502
 40
0.8905118598600502
 40
0.8905118598600502
 10
160.7647634001247
 20
56.05498177430497
 30
0.0
 10
161.0477724482975
 20
55.84133624944938
 30
0.0
 10
161.3734926418201
 20
55.57807398004798
 30
0.0
 10
161.6854637797402
 20
55.29959053895605
 30
0.0
 10
161.7330196011762
 20
55.25655858505156
 30
0.0
  0
SPLINE
  5
2A8
330
1F
100
AcDbEntity
  8
0
  6
Continuous
 62
     7
370
    25
100
AcDbSpline
210
0.0
220
0.0
230
1.0
 70
     8
 71
     3
 72
     8
 73
     4
 74
     0
 42
0.00000001
 43
0.00000001
 40
0.8096083387509503
 40
0.8096083387509503
 40
0.8096083387509503
 40
0.8096083387509503
 40
0.9190964788912127
 40
0.9190964788912127
 40
0.9190964788912127
 40
0.9190964788912127
 10
162.9466823630137
 20
54.06733732876712
 30
0.0
 10
162.5496673580927
 20
54.47209089319546
 30
0.0
 10
162.1526523531718
 20
54.8768444576238
 30
0.0
 10
161.7330196011727
 20
55.25655858505482
 30
0.0
  0
SPLINE
  5
2A9
330
1F
100
AcDbEntity
  8
0
  6
Continuous
 62
     7
370
    25
100
AcDbSpline
210
0.0
220
0.0
230
1.0
 70
     8
 71
     3
 72
     8
 73
     4
 74
     0
 42
0.00000001
 43
0.00000001
 40
0.0116593234427632
 40
0.0116593234427632
 40
0.0116593234427632
 40
0.0116593234427632
 40
0.1232115016568119
 40
0.1232115016568119
 40
0.1232115016568119
 40
0.1232115016568119
 10
164.0567369892332
 20
52.7733682413939
 30
0.0
 10
163.7018300957386
 20
53.21681401038248
 30
0.0
 10
163.3242562293761
 20
53.6420756695748
 30
0.0
 10
162.9466823630137
 20
54.06733732876712
 30
0.0
  0
SPLINE
  5
2AA
330
1F
100
AcDbEntity
  8
0
  6
Continuous
 62
     7
370
    25
100
AcDbSpline
210
0.0
220
0.0
230
1.0
 70
     8
 71
     3
 72
     8
 73
     4
 74
     0
 42
0.00000001
 43
0.00000001
 40
0.1115521782140474
 40
0.1115521782140474
 40
0.1115521782140474
 40
0.1115521782140474
 40
0.123211501656827
 40
0.123211501656827
 40
0.123211501656827
 40
0.123211501656827
 10
164.0567369892332
 20
52.77336824139391
 30
0.0
 10
164.0938315070595
 20
52.72701972778579
 30
0.0
 10
164.1306784058003
 20
52.68047256689174
 30
0.0
 10
164.1672518045532
 20
52.63370599629374
 30
0.0
  0
LINE
  5
2AB
330
1F
100
AcDbEntity
  8
0
  6
Continuous
 62
     7
370
    25
100
AcDbLine
 10
160.1339296317
 20
54.9623456363
 30
0.0
 11
164.1672518046
 21
52.6337059963
 31
0.0
  0
LINE
  5
2AC
330
1F
100
AcDbEntity
  8
0
  6
Continuous
 62
     7
370
    25
100
AcDbLine
 10
118.043389585
 20
23.4856406461
 30
0.0
 11
117.7176592943
 21
22.9214592329
 31
0.0
  0
LINE
  5
2AD
330
1F
100
AcDbEntity
  8
0
  6
Continuous
 62
     7
370
    25
100
AcDbLine
 10
114.3909717384
 20
25.5943650695
 30
0.0
 11
118.043389585
 21
23.4856406461
 31
0.0
  0
SPLINE
  5
2AE
330
1F
100
AcDbEntity
  8
0
  6
Continuous
 62
     7
370
    25
100
AcDbSpline
210
0.0
220
0.0
230
1.0
 70
     8
 71
     3
 72
    11
 73
     7
 74
     0
 42
0.00000001
 43
0.00000001
 40
0.6008822664085056
 40
0.6008822664085056
 40
0.6008822664085056
 40
0.6008822664085056
 40
0.6252207741453284
 40
0.7461715533523853
 40
0.8701208763412495
 40
0.8827284896524
 40
0.8827284896524
 40
0.8827284896524
 40
0.8827284896524
 10
114.3909717383737
 20
25.59436506947712
 30
0.0
 10
114.4630078881557
 20
25.64233527560913
 30
0.0
 10
114.8892711580296
 20
25.9343124667382
 30
0.0
 10
115.6368417449318
 20
26.5344965522022
 30
0.0
 10
116.2768927247173
 20
27.19301353971049
 30
0.0
 10
116.586721514131
 20
27.56617428785719
 30
0.0
 10
116.6150986921629
 20
27.6008106504278
 30
0.0
  0
SPLINE
  5
2AF
330
1F
100
AcDbEntity
  8
0
  6
Continuous
 62
     7
370
    25
100
AcDbSpline
210
0.0
220
0.0
230
1.0
 70
     8
 71
     3
 72
     8
 73
     4
 74
     0
 42
0.00000001
 43
0.00000001
 40
0.6323976979748674
 40
0.6323976979748674
 40
0.6323976979748674
 40
0.6323976979748674
 40
0.6504145814249762
 40
0.6504145814249762
 40
0.6504145814249762
 40
0.6504145814249762
 10
116.7354318610388
 20
27.75037308377769
 30
0.0
 10
116.6957382765389
 20
27.70018109228864
 30
0.0
 10
116.6556510391158
 20
27.65030767196308
 30
0.0
 10
116.6150986921629
 20
27.60081065042782
 30
0.0
  0
SPLINE
  5
2B0
330
1F
100
AcDbEntity
  8
0
  6
Continuous
 62
     7
370
    25
100
AcDbSpline
210
0.0
220
0.0
230
1.0
 70
     8
 71
     3
 72
     8
 73
     4
 74
     0
 42
0.00000001
 43
0.00000001
 40
0.90074537310251
 40
0.90074537310251
 40
0.90074537310251
 40
0.90074537310251
 40
0.9322608046688727
 40
0.9322608046688727
 40
0.9322608046688727
 40
0.9322608046688727
 10
116.7354318610388
 20
27.75037308377768
 30
0.0
 10
116.8048645378609
 20
27.83816974835249
 30
0.0
 10
116.8730927317245
 20
27.92694116381795
 30
0.0
 10
116.9404988913018
 20
28.01637782626529
 30
0.0
  0
LINE
  5
2B1
330
1F
100
AcDbEntity
  8
0
  6
Continuous
 62
     7
370
    25
100
AcDbLine
 10
121.0972355706
 20
25.6164847877
 30
0.0
 11
116.9404988913
 21
28.0163778263
 31
0.0
  0
SPLINE
  5
2B2
330
1F
100
AcDbEntity
  8
0
  6
Continuous
 62
     7
370
    25
100
AcDbSpline
210
0.0
220
0.0
230
1.0
 70
     8
 71
     3
 72
    10
 73
     6
 74
     0
 42
0.00000001
 43
0.00000001
 40
0.0417983967487107
 40
0.0417983967487107
 40
0.0417983967487107
 40
0.0417983967487107
 40
0.1177776469085657
 40
0.2385504448422802
 40
0.3199585743644446
 40
0.3199585743644446
 40
0.3199585743644446
 40
0.3199585743644446
 10
117.7176592997398
 20
22.92145924235262
 30
0.0
 10
118.0550182531547
 20
23.12628678766456
 30
0.0
 10
118.910578509392
 20
23.68680302024651
 30
0.0
 10
120.0539727871701
 20
24.576740281786
 30
0.0
 10
120.8010467002766
 20
25.31444906337725
 30
0.0
 10
121.0972355705704
 20
25.61648478769974
 30
0.0
  0
LINE
  5
2B3
330
1F
100
AcDbEntity
  8
0
  6
Continuous
 62
     7
370
    25
100
AcDbLine
 10
67.4891526037
 20
56.5143593539
 30
0.0
 11
68.3769177645
 21
58.0520137176
 31
0.0
  0
LINE
  5
2B4
330
1F
100
AcDbEntity
  8
0
  6
Continuous
 62
     7
370
    25
100
AcDbLine
 10
69.2705333551
 20
55.4858786976
 30
0.0
 11
67.4891526037
 21
56.5143593539
 31
0.0
  0
SPLINE
  5
2B5
330
1F
100
AcDbEntity
  8
0
  6
Continuous
 62
     7
370
    25
100
AcDbSpline
210
0.0
220
0.0
230
1.0
 70
     8
 71
     3
 72
    11
 73
     7
 74
     0
 42
0.00000001
 43
0.00000001
 40
0.2091936737540665
 40
0.2091936737540665
 40
0.2091936737540665
 40
0.2091936737540665
 40
0.2669739063272886
 40
0.3264097539182279
 40
0.3843372761549972
 40
0.3852268783458178
 40
0.3852268783458178
 40
0.3852268783458178
 40
0.3852268783458178
 10
69.2705333550914
 20
55.48587869762306
 30
0.0
 10
68.82638897789914
 20
55.36528371137072
 30
0.0
 10
67.93518625816684
 20
55.08405236009862
 30
0.0
 10
66.65554557133855
 20
54.52412277524613
 30
0.0
 10
65.83224191100976
 20
54.06419013191967
 30
0.0
 10
65.43738891064048
 20
53.81222503143916
 30
0.0
 10
65.43142016308433
 20
53.80840878902517
 30
0.0
  0
LINE
  5
2B6
330
1F
100
AcDbEntity
  8
0
  6
Continuous
 62
     7
370
    25
100
AcDbLine
 10
63.4327429149
 20
54.9623456363
 30
0.0
 11
65.4314201631
 21
53.808408789
 31
0.0
  0
LINE
  5
2B7
330
1F
100
AcDbEntity
  8
0
  6
Continuous
 62
     7
370
    25
100
AcDbLine
 10
64.3205080757
 20
56.5
 30
0.0
 11
63.4327429149
 21
54.9623456363
 31
0.0
  0
LINE
  5
2B8
330
1F
100
AcDbEntity
  8
0
  6
Continuous
 62
     7
370
    25
100
AcDbLine
 10
63.2053720493
 20
57.143824085
 30
0.0
 11
64.3205080757
 21
56.5
 31
0.0
  0
SPLINE
  5
2B9
330
1F
100
AcDbEntity
  8
0
  6
Continuous
 62
     7
370
    25
100
AcDbSpline
210
0.0
220
0.0
230
1.0
 70
     8
 71
     3
 72
    10
 73
     6
 74
     0
 42
0.00000001
 43
0.00000001
 40
0.713732834680693
 40
0.713732834680693
 40
0.713732834680693
 40
0.713732834680693
 40
0.7247986408762083
 40
0.7655943205356801
 40
0.7791175846040131
 40
0.7791175846040131
 40
0.7791175846040131
 40
0.7791175846040131
 10
65.1737675417181
 20
58.01735876585316
 30
0.0
 10
65.06033520184579
 20
57.97371395677324
 30
0.0
 10
64.53042665225797
 20
57.76472802778742
 30
0.0
 10
63.87312620727686
 20
57.47442265673587
 30
0.0
 10
63.33794004129112
 20
57.21079297597079
 30
0.0
 10
63.20537204930632
 20
57.14382408501495
 30
0.0
  0
SPLINE
  5
2BA
330
1F
100
AcDbEntity
  8
0
  6
Continuous
 62
     7
370
    25
100
AcDbSpline
210
0.0
220
0.0
230
1.0
 70
     8
 71
     3
 72
     9
 73
     5
 74
     0
 42
0.00000001
 43
0.00000001
 40
0.7127855565595396
 40
0.7127855565595396
 40
0.7127855565595396
 40
0.7127855565595396
 40
0.7430453266137911
 40
0.7791175846040131
 40
0.7791175846040131
 40
0.7791175846040131
 40
0.7791175846040131
 10
65.1737675417305
 20
58.01735876585793
 30
0.0
 10
65.4839515862192
 20
58.13670677028561
 30
0.0
 10
66.16987681942679
 20
58.38280490339083
 30
0.0
 10
66.86644647843518
 20
58.59700518008036
 30
0.0
 10
67.24797174662804
 20
58.70381100499502
 30
0.0
  0
LINE
  5
2BB
330
1F
100
AcDbEntity
  8
0
  6
Continuous
 62
     7
370
    25
100
AcDbLine
 10
68.3769177645
 20
58.0520137176
 30
0.0
 11
67.2479717466
 21
58.703811005
 31
0.0
  0
MTEXT
  5
2BD
330
1F
100
AcDbEntity
  8
0
  6
Continuous
 62
     7
100
AcDbMText
 10
-6.096
 20
-7.1155663917
 30
0.0
 40
4.83362
 41
0.0
 71
     1
 72
     1
  1
SOLIDWORKS Educational Product.
  7
SLDTEXTSTYLE0
 73
     1
 44
1.0
  0
MTEXT
  5
2BE
330
1F
100
AcDbEntity
  8
0
  6
Continuous
 62
     7
100
AcDbMText
 10
-6.096
 20
-14.3659963917
 30
0.0
 40
4.83362
 41
0.0
 71
     1
 72
     1
  1
For Instructional Use Only.
  7
SLDTEXTSTYLE0
 73
     1
 44
1.0
  0
ENDSEC
  0
SECTION
  2
OBJECTS
  0
DICTIONARY
  5
C
330
0
100
AcDbDictionary
281
     1
  3
ACAD_GROUP
350
D
  3
ACAD_LAYOUT
350
1A
  3
ACAD_MLINESTYLE
350
17
  3
ACAD_PLOTSETTINGS
350
19
  3
ACAD_PLOTSTYLENAME
350
E
  3
ACAD_SCALELIST
350
47
  3
DWGPROPS
350
2BF
  0
DICTIONARY
  5
D
102
{ACAD_REACTORS
330
C
102
}
330
C
100
AcDbDictionary
281
     1
  0
DICTIONARY
  5
1A
102
{ACAD_REACTORS
330
C
102
}
330
C
100
AcDbDictionary
281
     1
  3
Layout1
350
1E
  3
Layout2
350
26
  3
Model
350
22
  0
DICTIONARY
  5
17
102
{ACAD_REACTORS
330
C
102
}
330
C
100
AcDbDictionary
281
     1
  3
Standard
350
18
  0
DICTIONARY
  5
19
102
{ACAD_REACTORS
330
C
102
}
330
C
100
AcDbDictionary
281
     1
  0
ACDBDICTIONARYWDFLT
  5
E
102
{ACAD_REACTORS
330
C
102
}
330
C
100
AcDbDictionary
281
     1
  3
Normal
350
F
100
AcDbDictionaryWithDefault
340
F
  0
DICTIONARY
  5
47
102
{ACAD_REACTORS
330
C
102
}
330
C
100
AcDbDictionary
281
     1
  3
A0
350
48
  3
A1
350
49
  3
A2
350
4A
  3
A3
350
4B
  3
A4
350
4C
  3
A5
350
4D
  3
A6
350
4E
  3
A7
350
4F
  3
A8
350
50
  3
A9
350
51
  3
B0
350
52
  3
B1
350
53
  3
B2
350
54
  3
B3
350
55
  3
B4
350
56
  3
B5
350
57
  3
B6
350
58
  3
B7
350
59
  3
B8
350
5A
  3
B9
350
5B
  3
C0
350
5C
  3
C1
350
5D
  3
C2
350
5E
  3
C3
350
5F
  3
C4
350
60
  3
C5
350
61
  3
C6
350
62
  3
C7
350
63
  3
C8
350
64
  3
C9
350
65
  3
D0
350
66
  3
D1
350
67
  3
D2
350
68
  0
XRECORD
  5
2BF
102
{ACAD_REACTORS
330
C
102
}
330
C
100
AcDbXrecord
280
     1
  1
DWGPROPS COOKIE
  2

  3

  4

  6

  7

  8
Caden
  9

300
=
301
=
302
=
303
=
304
=
305
=
306
=
307
=
308
=
309
=
 40
0.0
 41
2459598.920743113
 42
2459598.920780614
  1

 90
        0
  0
LAYOUT
  5
1E
102
{ACAD_REACTORS
330
1A
102
}
330
1A
100
AcDbPlotSettings
  1

  2
none_device
  4

  6

 40
0.0
 41
0.0
 42
0.0
 43
0.0
 44
0.0
 45
0.0
 46
0.0
 47
0.0
 48
0.0
 49
0.0
140
0.0
141
0.0
142
1.0
143
1.0
 70
   688
 72
     1
 73
     0
 74
     5
  7

 75
    16
147
1.0
148
0.0
149
0.0
100
AcDbLayout
  1
Layout1
 70
     1
 71
     1
 10
0.0
 20
0.0
 11
420.0
 21
297.0
 12
0.0
 22
0.0
 32
0.0
 14
1.0000000000E+20
 24
1.0000000000E+20
 34
1.0000000000E+20
 15
-1.0000000000E+20
 25
-1.0000000000E+20
 35
-1.0000000000E+20
146
0.0
 13
0.0
 23
0.0
 33
0.0
 16
1.0
 26
0.0
 36
0.0
 17
0.0
 27
1.0
 37
0.0
 76
     0
330
1B
  0
LAYOUT
  5
26
102
{ACAD_REACTORS
330
1A
102
}
330
1A
100
AcDbPlotSettings
  1

  2
none_device
  4

  6

 40
0.0
 41
0.0
 42
0.0
 43
0.0
 44
0.0
 45
0.0
 46
0.0
 47
0.0
 48
0.0
 49
0.0
140
0.0
141
0.0
142
1.0
143
1.0
 70
   688
 72
     1
 73
     0
 74
     5
  7

 75
    16
147
1.0
148
0.0
149
0.0
100
AcDbLayout
  1
Layout2
 70
     1
 71
     2
 10
0.0
 20
0.0
 11
0.0
 21
0.0
 12
0.0
 22
0.0
 32
0.0
 14
0.0
 24
0.0
 34
0.0
 15
0.0
 25
0.0
 35
0.0
146
0.0
 13
0.0
 23
0.0
 33
0.0
 16
1.0
 26
0.0
 36
0.0
 17
0.0
 27
1.0
 37
0.0
 76
     0
330
23
  0
LAYOUT
  5
22
102
{ACAD_REACTORS
330
1A
102
}
330
1A
100
AcDbPlotSettings
  1

  2
none_device
  4
ANSI_A_(11.00_x_8.50_Inches)
  6

 40
6.35
 41
19.05
 42
6.35000508
 43
19.05000254
 44
279.4
 45
215.9
 46
1.4781249391
 47
46.7009995233
 48
0.0
 49
0.0
140
0.0
141
0.0
142
0.041534448
143
1.0
 70
  1696
 72
     0
 73
     0
 74
     0
  7

 75
     0
147
0.0179189148
148
-1300.4909072572
149
0.0
100
AcDbLayout
  1
Model
 70
     1
 71
     0
 10
0.0
 20
0.0
 11
420.0
 21
297.0
 12
0.0
 22
0.0
 32
0.0
 14
-6.096
 24
-6.096
 34
0.0
 15
256.096
 25
86.096
 35
0.0
146
0.0
 13
0.0
 23
0.0
 33
0.0
 16
1.0
 26
0.0
 36
0.0
 17
0.0
 27
1.0
 37
0.0
 76
     0
330
1F
331
29
  0
MLINESTYLE
  5
18
102
{ACAD_REACTORS
330
17
102
}
330
17
100
AcDbMlineStyle
  2
Standard
 70
     0
  3

 62
   256
 51
90.0
 52
90.0
 71
     2
 49
0.5
 62
   256
  6
BYLAYER
 49
-0.5
 62
   256
  6
BYLAYER
  0
ACDBPLACEHOLDER
  5
F
102
{ACAD_REACTORS
330
E
102
}
330
E
  0
SCALE
  5
48
102
{ACAD_REACTORS
330
47
102
}
330
47
100
AcDbScale
 70
     0
300
1:1
140
1.0
141
1.0
290
     1
  0
SCALE
  5
49
102
{ACAD_REACTORS
330
47
102
}
330
47
100
AcDbScale
 70
     0
300
1:2
140
1.0
141
2.0
290
     0
  0
SCALE
  5
4A
102
{ACAD_REACTORS
330
47
102
}
330
47
100
AcDbScale
 70
     0
300
1:4
140
1.0
141
4.0
290
     0
  0
SCALE
  5
4B
102
{ACAD_REACTORS
330
47
102
}
330
47
100
AcDbScale
 70
     0
300
1:5
140
1.0
141
5.0
290
     0
  0
SCALE
  5
4C
102
{ACAD_REACTORS
330
47
102
}
330
47
100
AcDbScale
 70
     0
300
1:8
140
1.0
141
8.0
290
     0
  0
SCALE
  5
4D
102
{ACAD_REACTORS
330
47
102
}
330
47
100
AcDbScale
 70
     0
300
1:10
140
1.0
141
10.0
290
     0
  0
SCALE
  5
4E
102
{ACAD_REACTORS
330
47
102
}
330
47
100
AcDbScale
 70
     0
300
1:16
140
1.0
141
16.0
290
     0
  0
SCALE
  5
4F
102
{ACAD_REACTORS
330
47
102
}
330
47
100
AcDbScale
 70
     0
300
1:20
140
1.0
141
20.0
290
     0
  0
SCALE
  5
50
102
{ACAD_REACTORS
330
47
102
}
330
47
100
AcDbScale
 70
     0
300
1:30
140
1.0
141
30.0
290
     0
  0
SCALE
  5
51
102
{ACAD_REACTORS
330
47
102
}
330
47
100
AcDbScale
 70
     0
300
1:40
140
1.0
141
40.0
290
     0
  0
SCALE
  5
52
102
{ACAD_REACTORS
330
47
102
}
330
47
100
AcDbScale
 70
     0
300
1:50
140
1.0
141
50.0
290
     0
  0
SCALE
  5
53
102
{ACAD_REACTORS
330
47
102
}
330
47
100
AcDbScale
 70
     0
300
1:100
140
1.0
141
100.0
290
     0
  0
SCALE
  5
54
102
{ACAD_REACTORS
330
47
102
}
330
47
100
AcDbScale
 70
     0
300
2:1
140
2.0
141
1.0
290
     0
  0
SCALE
  5
55
102
{ACAD_REACTORS
330
47
102
}
330
47
100
AcDbScale
 70
     0
300
4:1
140
4.0
141
1.0
290
     0
  0
SCALE
  5
56
102
{ACAD_REACTORS
330
47
102
}
330
47
100
AcDbScale
 70
     0
300
8:1
140
8.0
141
1.0
290
     0
  0
SCALE
  5
57
102
{ACAD_REACTORS
330
47
102
}
330
47
100
AcDbScale
 70
     0
300
10:1
140
10.0
141
1.0
290
     0
  0
SCALE
  5
58
102
{ACAD_REACTORS
330
47
102
}
330
47
100
AcDbScale
 70
     0
300
100:1
140
100.0
141
1.0
290
     0
  0
SCALE
  5
59
102
{ACAD_REACTORS
330
47
102
}
330
47
100
AcDbScale
 70
     0
300
1/128" = 1'-0"
140
0.0078125
141
12.0
290
     0
  0
SCALE
  5
5A
102
{ACAD_REACTORS
330
47
102
}
330
47
100
AcDbScale
 70
     0
300
1/64" = 1'-0"
140
0.015625
141
12.0
290
     0
  0
SCALE
  5
5B
102
{ACAD_REACTORS
330
47
102
}
330
47
100
AcDbScale
 70
     0
300
1/32" = 1'-0"
140
0.03125
141
12.0
290
     0
  0
SCALE
  5
5C
102
{ACAD_REACTORS
330
47
102
}
330
47
100
AcDbScale
 70
     0
300
1/16" = 1'-0"
140
0.0625
141
12.0
290
     0
  0
SCALE
  5
5D
102
{ACAD_REACTORS
330
47
102
}
330
47
100
AcDbScale
 70
     0
300
3/32" = 1'-0"
140
0.09375
141
12.0
290
     0
  0
SCALE
  5
5E
102
{ACAD_REACTORS
330
47
102
}
330
47
100
AcDbScale
 70
     0
300
1/8" = 1'-0"
140
0.125
141
12.0
290
     0
  0
SCALE
  5
5F
102
{ACAD_REACTORS
330
47
102
}
330
47
100
AcDbScale
 70
     0
300
3/16" = 1'-0"
140
0.1875
141
12.0
290
     0
  0
SCALE
  5
60
102
{ACAD_REACTORS
330
47
102
}
330
47
100
AcDbScale
 70
     0
300
1/4" = 1'-0"
140
0.25
141
12.0
290
     0
  0
SCALE
  5
61
102
{ACAD_REACTORS
330
47
102
}
330
47
100
AcDbScale
 70
     0
300
3/8" = 1'-0"
140
0.375
141
12.0
290
     0
  0
SCALE
  5
62
102
{ACAD_REACTORS
330
47
102
}
330
47
100
AcDbScale
 70
     0
300
1/2" = 1'-0"
140
0.5
141
12.0
290
     0
  0
SCALE
  5
63
102
{ACAD_REACTORS
330
47
102
}
330
47
100
AcDbScale
 70
     0
300
3/4" = 1'-0"
140
0.75
141
12.0
290
     0
  0
SCALE
  5
64
102
{ACAD_REACTORS
330
47
102
}
330
47
100
AcDbScale
 70
     0
300
1" = 1'-0"
140
1.0
141
12.0
290
     0
  0
SCALE
  5
65
102
{ACAD_REACTORS
330
47
102
}
330
47
100
AcDbScale
 70
     0
300
1-1/2" = 1'-0"
140
1.5
141
12.0
290
     0
  0
SCALE
  5
66
102
{ACAD_REACTORS
330
47
102
}
330
47
100
AcDbScale
 70
     0
300
3" = 1'-0"
140
3.0
141
12.0
290
     0
  0
SCALE
  5
67
102
{ACAD_REACTORS
330
47
102
}
330
47
100
AcDbScale
 70
     0
300
6" = 1'-0"
140
6.0
141
12.0
290
     0
  0
SCALE
  5
68
102
{ACAD_REACTORS
330
47
102
}
330
47
100
AcDbScale
 70
     0
300
1'-0" = 1'-0"
140
12.0
141
12.0
290
     0
  0
ENDSEC
  0
EOF
